<svg width="162" height="30" viewBox="0 0 162 30" fill="none" xmlns="http://www.w3.org/2000/svg">
<path d="M16.7852 22.1964C15.6952 23.2064 14.1552 24.0964 12.0452 24.0964C8.96519 24.0964 7.16519 22.1964 7.03519 18.7764H22.9852V13.3164C22.9852 9.04644 22.1552 6.18645 20.3052 4.07645C18.2852 1.79645 15.3752 0.606445 11.8552 0.606445C8.5652 0.606445 5.83519 1.71644 3.85519 3.77644C1.75519 5.97644 0.825195 8.65644 0.825195 12.8364V17.3164C0.825195 21.8464 1.8352 24.7364 4.1152 26.8564C6.1852 28.7364 8.90519 29.7964 11.9552 29.7964C15.2452 29.7964 17.8452 28.7364 20.2752 26.4564L16.7852 22.1964ZM7.0252 13.1864C7.0252 10.1964 7.6352 6.24644 11.9052 6.24644C16.1752 6.24644 16.7852 10.1964 16.7852 13.1864H7.0252Z" fill="url(#paint0_linear_179_999)"/>
<path d="M38.1204 4.60637V0.526367H25.1104V4.60637H29.4604V29.8564H33.7804V4.60637H38.1204Z" fill="#271F3E"/>
<path d="M54.5173 29.8564V0.526367H50.2173V25.7764H45.2873V0.526367H40.9673V29.8564H54.5173Z" fill="#271F3E"/>
<path d="M70.3918 4.60637V0.526367H57.3818V4.60637H61.7318V29.8564H66.0518V4.60637H70.3918Z" fill="#271F3E"/>
<path d="M86.7988 29.8564V0.526367H73.2588V29.8564H86.7988ZM82.4988 25.7664H77.5688V4.60637H82.4988V25.7664Z" fill="#271F3E"/>
<path d="M105.443 29.8564L102.583 22.2864H104.733V0.526367H91.1929V29.8564H95.5129V22.2864H98.0629L100.793 29.8564H105.443ZM100.433 18.1964H95.5029V4.60637H100.433V18.1964Z" fill="#271F3E"/>
<path d="M118.109 24.8764V29.8564H122.769V24.8764H125.979V20.5764H122.769V12.7064H118.109V20.5764H112.789L122.679 0.526367H117.459L110.599 14.0664C107.609 20.0064 107.289 20.7164 107.289 22.0364C107.289 24.8764 110.099 24.8764 112.479 24.8764H118.109Z" fill="#271F3E"/>
<path d="M146.332 29.8564V0.526367H142.032L137.712 11.2064L133.362 0.526367H129.042V29.8564H133.362V11.6864L137.712 22.1964L142.032 11.6764V29.8464H146.332V29.8564Z" fill="#271F3E"/>
<path d="M161.408 29.8561V25.7761H155.038V16.2161H161.318V12.1361H155.038V4.61613H161.408V0.536133H150.728V29.8661H161.408V29.8561Z" fill="#271F3E"/>
<defs>
<linearGradient id="paint0_linear_179_999" x1="11.9063" y1="0.607445" x2="11.9063" y2="29.8049" gradientUnits="userSpaceOnUse">
<stop offset="0.00283151" stop-color="#FF6C72"/>
<stop offset="1" stop-color="#894FFF"/>
</linearGradient>
</defs>
</svg>
