<svg width="34" height="33" viewBox="0 0 34 33" fill="none" xmlns="http://www.w3.org/2000/svg">
<path d="M6.47315 20.9539H4.9821C4.1912 20.9539 3.43269 20.6398 2.87344 20.0805C2.31418 19.5213 2 18.7628 2 17.9718V4.55241C2 3.76151 2.31418 3.003 2.87344 2.44375C3.43269 1.8845 4.1912 1.57031 4.9821 1.57031H18.4015C19.1924 1.57031 19.9509 1.8845 20.5102 2.44375C21.0694 3.003 21.3836 3.76151 21.3836 4.55241V6.04346M15.4194 12.0077H28.8389C30.4858 12.0077 31.821 13.3428 31.821 14.9898V28.4092C31.821 30.0562 30.4858 31.3913 28.8389 31.3913H15.4194C13.7725 31.3913 12.4373 30.0562 12.4373 28.4092V14.9898C12.4373 13.3428 13.7725 12.0077 15.4194 12.0077Z" stroke="white" stroke-width="2.59313" stroke-linecap="round" stroke-linejoin="round"/>
</svg>
