<svg width="20" height="34" viewBox="0 0 20 34" fill="none" xmlns="http://www.w3.org/2000/svg">
<path d="M14.6324 0.898438H19.0074L19.344 2.97376C19.4935 3.40378 19.7927 4.31991 19.7927 4.54427C19.7927 4.82472 20.1292 5.77824 19.6244 5.94651C19.2206 6.08113 19.344 6.90004 19.0074 7.23658H17.5491H16.3712L14.6324 8.24619L13.3423 11.6677L13.735 13.8552L14.9129 14.1917L17.5491 13.8552L19.7927 14.36C19.6431 15.0891 19.2766 16.6372 19.0074 16.9962C18.7382 17.3552 18.3343 18.8659 18.1661 19.5763L17.5491 20.4177H16.7638H15.6981L13.3423 21.1468L13.0619 22.9417V25.4657V28.9994V32.3087L12.5571 33.9353H10.7061H7.00421L6.21895 31.6356V28.6629C6.34983 27.6906 6.61158 25.6901 6.61158 25.4657V22.0443L5.60196 21.0347L3.24619 20.4177H0.273438L0.609976 18.2863L0.273438 14.977L1.28305 14.36H4.64844L6.61158 13.8552L7.00421 12.3407V9.53626V7.23658L8.96735 3.87119L11.6597 1.57151L14.6324 0.898438Z" fill="#DBD8EF"/>
</svg>
