<svg width="1920" height="1080" viewBox="0 0 1920 1080" fill="none" xmlns="http://www.w3.org/2000/svg">
<rect width="1920" height="1080" fill="#262336"/>
<g opacity="0.2" filter="url(#filter0_d_2971_27847)">
<path d="M772.246 253.165L776.333 258.276L782.809 258.415L777.782 262.613L777.613 269.225L773.526 264.115L767.05 263.975L772.077 259.777L772.246 253.165Z" fill="#D9D9D9"/>
<path d="M378.051 169.494L382.138 174.604L388.614 174.744L383.587 178.941L383.418 185.553L379.331 180.443L372.855 180.303L377.882 176.105L378.051 169.494Z" fill="#D9D9D9"/>
<path d="M1229.11 431.119L1233.19 436.229L1239.67 436.369L1234.64 440.566L1234.47 447.178L1230.39 442.068L1223.91 441.928L1228.94 437.73L1229.11 431.119Z" fill="#D9D9D9"/>
<path d="M172.543 763.197L176.63 768.307L183.106 768.447L178.079 772.645L177.91 779.256L173.823 774.146L167.347 774.006L172.374 769.809L172.543 763.197Z" fill="#D9D9D9"/>
<path d="M1760.05 232.767L1764.14 237.877L1770.61 238.017L1765.59 242.215L1765.42 248.827L1761.33 243.716L1754.86 243.577L1759.88 239.379L1760.05 232.767Z" fill="#D9D9D9"/>
<path d="M648.344 695.842L649.221 699.624L652.607 701.391L648.898 702.305L647.15 705.771L646.273 701.99L642.887 700.222L646.596 699.308L648.344 695.842Z" fill="#D9D9D9"/>
<path d="M1377.8 179.186L1378.67 182.967L1382.06 184.735L1378.35 185.649L1376.6 189.115L1375.73 185.333L1372.34 183.566L1376.05 182.652L1377.8 179.186Z" fill="#D9D9D9"/>
<path d="M1542.12 1003.33L1542.99 1007.12L1546.38 1008.88L1542.67 1009.8L1540.92 1013.26L1540.05 1009.48L1536.66 1007.71L1540.37 1006.8L1542.12 1003.33Z" fill="#D9D9D9"/>
<path d="M1848.74 1020.4L1849.62 1024.19L1853 1025.95L1849.3 1026.87L1847.55 1030.33L1846.67 1026.55L1843.29 1024.78L1846.99 1023.87L1848.74 1020.4Z" fill="#D9D9D9"/>
<path d="M697.758 1039.19L698.635 1042.98L702.021 1044.74L698.312 1045.66L696.564 1049.12L695.687 1045.34L692.301 1043.57L696.01 1042.66L697.758 1039.19Z" fill="#D9D9D9"/>
<path d="M360.453 384.225L361.33 388.007L364.716 389.774L361.008 390.688L359.259 394.154L358.382 390.372L354.997 388.605L358.705 387.691L360.453 384.225Z" fill="#D9D9D9"/>
<path d="M1346.41 685.311L1347.28 689.092L1350.67 690.86L1346.96 691.774L1345.21 695.24L1344.34 691.458L1340.95 689.691L1344.66 688.777L1346.41 685.311Z" fill="#D9D9D9"/>
<path d="M1736.41 639.967L1737.28 643.749L1740.67 645.516L1736.96 646.43L1735.21 649.896L1734.34 646.115L1730.95 644.347L1734.66 643.433L1736.41 639.967Z" fill="#D9D9D9"/>
</g>
<g opacity="0.3">
<g filter="url(#filter1_d_2971_27847)">
<path d="M1337.87 1063.65C1337.87 970.355 1296.39 880.885 1222.57 814.918C1148.75 748.951 1048.63 711.891 944.234 711.891C839.836 711.891 739.714 748.951 665.894 814.918C592.073 880.885 550.602 970.355 550.602 1063.65L944.234 1063.65H1337.87Z" fill="#262336"/>
<path d="M1337.87 1063.65C1337.87 970.355 1296.39 880.885 1222.57 814.918C1148.75 748.951 1048.63 711.891 944.234 711.891C839.836 711.891 739.714 748.951 665.894 814.918C592.073 880.885 550.602 970.355 550.602 1063.65L944.234 1063.65H1337.87Z" fill="url(#paint0_linear_2971_27847)" fill-opacity="0.75"/>
</g>
<g filter="url(#filter2_d_2971_27847)">
<path d="M1337.87 1063.65C1337.87 970.355 1296.39 880.885 1222.57 814.918C1148.75 748.951 1048.63 711.891 944.234 711.891C839.836 711.891 739.714 748.951 665.894 814.918C592.073 880.885 550.602 970.355 550.602 1063.65L944.234 1063.65H1337.87Z" fill="#262336"/>
<path d="M1337.87 1063.65C1337.87 970.355 1296.39 880.885 1222.57 814.918C1148.75 748.951 1048.63 711.891 944.234 711.891C839.836 711.891 739.714 748.951 665.894 814.918C592.073 880.885 550.602 970.355 550.602 1063.65L944.234 1063.65H1337.87Z" fill="url(#paint1_linear_2971_27847)" fill-opacity="0.75"/>
</g>
<mask id="path-16-inside-1_2971_27847" fill="white">
<path d="M1276.05 869.716C1239.03 819.378 1187.45 778.34 1126.46 750.696C1065.46 723.052 997.179 709.767 928.421 712.166C859.662 714.565 792.829 732.564 734.587 764.368C676.345 796.173 628.728 840.671 596.485 893.426L944.234 1053.48L1276.05 869.716Z"/>
</mask>
<path d="M1276.05 869.716C1239.03 819.378 1187.45 778.34 1126.46 750.696C1065.46 723.052 997.179 709.767 928.421 712.166C859.662 714.565 792.829 732.564 734.587 764.368C676.345 796.173 628.728 840.671 596.485 893.426L944.234 1053.48L1276.05 869.716Z" stroke="black" stroke-width="2.83824" mask="url(#path-16-inside-1_2971_27847)"/>
<path d="M1017.6 915.691C1001.06 924.332 977.684 931.949 945.664 931.949C898.918 931.949 871.596 915.691 869.628 886.428H1111.71V839.708C1111.71 803.173 1099.11 778.698 1071.03 760.646C1040.37 741.134 996.203 730.953 942.783 730.953C892.846 730.953 851.41 740.449 821.367 758.077C789.488 776.904 775.375 799.834 775.375 835.599V873.933C775.375 912.697 790.702 937.421 825.312 955.564C856.73 971.652 898.015 980.718 944.298 980.718C994.236 980.718 1033.69 971.647 1070.57 952.14L1017.6 915.691ZM869.478 838.598C869.478 813.014 878.733 779.213 943.546 779.213C1008.36 779.213 1017.61 813.014 1017.61 838.598H869.478Z" fill="url(#paint2_linear_2971_27847)"/>
<g filter="url(#filter3_d_2971_27847)">
<path d="M1433.46 1124.07C1433.46 1012.04 1383.61 904.601 1294.88 825.384C1206.15 746.167 1085.8 701.664 960.31 701.664C834.822 701.664 714.473 746.167 625.74 825.384C537.006 904.601 487.156 1012.04 487.156 1124.07L960.31 1124.07H1433.46Z" fill="#262336"/>
<path d="M1433.46 1124.07C1433.46 1012.04 1383.61 904.601 1294.88 825.384C1206.15 746.167 1085.8 701.664 960.31 701.664C834.822 701.664 714.473 746.167 625.74 825.384C537.006 904.601 487.156 1012.04 487.156 1124.07L960.31 1124.07H1433.46Z" fill="url(#paint3_linear_2971_27847)" fill-opacity="0.75"/>
</g>
<g filter="url(#filter4_d_2971_27847)">
<path d="M1433.46 1124.07C1433.46 1012.04 1383.61 904.601 1294.88 825.384C1206.15 746.167 1085.8 701.664 960.31 701.664C834.822 701.664 714.473 746.167 625.74 825.384C537.006 904.601 487.156 1012.04 487.156 1124.07L960.31 1124.07H1433.46Z" fill="#262336"/>
<path d="M1433.46 1124.07C1433.46 1012.04 1383.61 904.601 1294.88 825.384C1206.15 746.167 1085.8 701.664 960.31 701.664C834.822 701.664 714.473 746.167 625.74 825.384C537.006 904.601 487.156 1012.04 487.156 1124.07L960.31 1124.07H1433.46Z" fill="url(#paint4_radial_2971_27847)" fill-opacity="0.1"/>
</g>
</g>
<defs>
<filter id="filter0_d_2971_27847" x="-1734.86" y="-502.578" width="3591.87" height="1555.7" filterUnits="userSpaceOnUse" color-interpolation-filters="sRGB">
<feFlood flood-opacity="0" result="BackgroundImageFix"/>
<feColorMatrix in="SourceAlpha" type="matrix" values="0 0 0 0 0 0 0 0 0 0 0 0 0 0 0 0 0 0 127 0" result="hardAlpha"/>
<feOffset/>
<feGaussianBlur stdDeviation="2"/>
<feComposite in2="hardAlpha" operator="out"/>
<feColorMatrix type="matrix" values="0 0 0 0 1 0 0 0 0 1 0 0 0 0 1 0 0 0 1 0"/>
<feBlend mode="normal" in2="BackgroundImageFix" result="effect1_dropShadow_2971_27847"/>
<feBlend mode="normal" in="SourceGraphic" in2="effect1_dropShadow_2971_27847" result="shape"/>
</filter>
<filter id="filter1_d_2971_27847" x="265.359" y="193.912" width="1357.75" height="922.244" filterUnits="userSpaceOnUse" color-interpolation-filters="sRGB">
<feFlood flood-opacity="0" result="BackgroundImageFix"/>
<feColorMatrix in="SourceAlpha" type="matrix" values="0 0 0 0 0 0 0 0 0 0 0 0 0 0 0 0 0 0 127 0" result="hardAlpha"/>
<feMorphology radius="1.41912" operator="dilate" in="SourceAlpha" result="effect1_dropShadow_2971_27847"/>
<feOffset dy="-232.736"/>
<feGaussianBlur stdDeviation="141.912"/>
<feComposite in2="hardAlpha" operator="out"/>
<feColorMatrix type="matrix" values="0 0 0 0 0.988235 0 0 0 0 0.466667 0 0 0 0 0.466667 0 0 0 0.1 0"/>
<feBlend mode="normal" in2="BackgroundImageFix" result="effect1_dropShadow_2971_27847"/>
<feBlend mode="normal" in="SourceGraphic" in2="effect1_dropShadow_2971_27847" result="shape"/>
</filter>
<filter id="filter2_d_2971_27847" x="263.94" y="141.405" width="1360.59" height="925.082" filterUnits="userSpaceOnUse" color-interpolation-filters="sRGB">
<feFlood flood-opacity="0" result="BackgroundImageFix"/>
<feColorMatrix in="SourceAlpha" type="matrix" values="0 0 0 0 0 0 0 0 0 0 0 0 0 0 0 0 0 0 127 0" result="hardAlpha"/>
<feMorphology radius="2.83824" operator="dilate" in="SourceAlpha" result="effect1_dropShadow_2971_27847"/>
<feOffset dy="-283.824"/>
<feGaussianBlur stdDeviation="141.912"/>
<feComposite in2="hardAlpha" operator="out"/>
<feColorMatrix type="matrix" values="0 0 0 0 0.678431 0 0 0 0 0.345098 0 0 0 0 0.827451 0 0 0 0.2 0"/>
<feBlend mode="normal" in2="BackgroundImageFix" result="effect1_dropShadow_2971_27847"/>
<feBlend mode="normal" in="SourceGraphic" in2="effect1_dropShadow_2971_27847" result="shape"/>
</filter>
<filter id="filter3_d_2971_27847" x="201.913" y="183.686" width="1516.79" height="992.892" filterUnits="userSpaceOnUse" color-interpolation-filters="sRGB">
<feFlood flood-opacity="0" result="BackgroundImageFix"/>
<feColorMatrix in="SourceAlpha" type="matrix" values="0 0 0 0 0 0 0 0 0 0 0 0 0 0 0 0 0 0 127 0" result="hardAlpha"/>
<feMorphology radius="1.41912" operator="dilate" in="SourceAlpha" result="effect1_dropShadow_2971_27847"/>
<feOffset dy="-232.736"/>
<feGaussianBlur stdDeviation="141.912"/>
<feComposite in2="hardAlpha" operator="out"/>
<feColorMatrix type="matrix" values="0 0 0 0 0.988235 0 0 0 0 0.466667 0 0 0 0 0.466667 0 0 0 0.21 0"/>
<feBlend mode="normal" in2="BackgroundImageFix" result="effect1_dropShadow_2971_27847"/>
<feBlend mode="normal" in="SourceGraphic" in2="effect1_dropShadow_2971_27847" result="shape"/>
</filter>
<filter id="filter4_d_2971_27847" x="467.289" y="613.679" width="986.04" height="510.392" filterUnits="userSpaceOnUse" color-interpolation-filters="sRGB">
<feFlood flood-opacity="0" result="BackgroundImageFix"/>
<feColorMatrix in="SourceAlpha" type="matrix" values="0 0 0 0 0 0 0 0 0 0 0 0 0 0 0 0 0 0 127 0" result="hardAlpha"/>
<feMorphology radius="39.7353" operator="erode" in="SourceAlpha" result="effect1_dropShadow_2971_27847"/>
<feOffset dy="-68.1177"/>
<feGaussianBlur stdDeviation="29.8015"/>
<feComposite in2="hardAlpha" operator="out"/>
<feColorMatrix type="matrix" values="0 0 0 0 0 0 0 0 0 0 0 0 0 0 0 0 0 0 0.6 0"/>
<feBlend mode="normal" in2="BackgroundImageFix" result="effect1_dropShadow_2971_27847"/>
<feBlend mode="normal" in="SourceGraphic" in2="effect1_dropShadow_2971_27847" result="shape"/>
</filter>
<linearGradient id="paint0_linear_2971_27847" x1="944.234" y1="687.225" x2="944.234" y2="969.81" gradientUnits="userSpaceOnUse">
<stop offset="0.65" stop-color="#8653FF"/>
<stop offset="1" stop-color="#262336"/>
</linearGradient>
<linearGradient id="paint1_linear_2971_27847" x1="944.234" y1="687.225" x2="944.234" y2="969.81" gradientUnits="userSpaceOnUse">
<stop offset="0.29312" stop-color="#8653FF"/>
<stop offset="1" stop-color="#262336"/>
</linearGradient>
<linearGradient id="paint2_linear_2971_27847" x1="943.546" y1="730.953" x2="943.546" y2="980.718" gradientUnits="userSpaceOnUse">
<stop stop-color="#FF6C72"/>
<stop offset="1" stop-color="#894FFF"/>
</linearGradient>
<linearGradient id="paint3_linear_2971_27847" x1="960.31" y1="672.044" x2="960.31" y2="1011.39" gradientUnits="userSpaceOnUse">
<stop offset="0.65" stop-color="#8653FF"/>
<stop offset="1" stop-color="#262336"/>
</linearGradient>
<radialGradient id="paint4_radial_2971_27847" cx="0" cy="0" r="1" gradientUnits="userSpaceOnUse" gradientTransform="translate(960.306 507.446) rotate(90) scale(969.723 1289.55)">
<stop offset="0.227329" stop-color="#FA6A77"/>
<stop offset="0.385615" stop-color="#9F54E4" stop-opacity="0.21"/>
<stop offset="0.555206" stop-color="#262336" stop-opacity="0"/>
</radialGradient>
</defs>
</svg>
