<svg width="1920" height="1080" viewBox="0 0 1920 1080" fill="none" xmlns="http://www.w3.org/2000/svg">
<rect width="1920" height="1080" fill="#262336"/>
<g opacity="0.2" filter="url(#filter0_d_2971_28925)">
<path d="M434.117 406.335L434.311 409.564L436.86 407.626L435.156 410.365L438.327 410.321L435.377 411.522L437.958 413.389L434.888 412.594L435.894 415.659L433.877 413.171L432.923 416.263L432.73 413.033L430.181 414.971L431.885 412.233L428.714 412.277L431.664 411.076L429.083 409.209L432.153 410.004L431.147 406.939L433.164 409.426L434.117 406.335Z" fill="#D9D9D9"/>
<path d="M89.055 375.585L89.9317 379.366L93.3175 381.133L89.6091 382.047L87.8606 385.513L86.984 381.732L83.5981 379.964L87.3065 379.05L89.055 375.585Z" fill="#D9D9D9"/>
<path d="M1224.05 406.585L1224.93 410.366L1228.32 412.133L1224.61 413.047L1222.86 416.513L1221.98 412.732L1218.6 410.964L1222.31 410.05L1224.05 406.585Z" fill="#D9D9D9"/>
<path d="M904.055 173.585L904.248 176.814L906.797 174.876L905.094 177.615L908.264 177.571L905.314 178.772L907.895 180.639L904.825 179.844L905.831 182.909L903.814 180.421L902.861 183.513L902.667 180.283L900.118 182.221L901.822 179.483L898.651 179.527L901.602 178.326L899.021 176.459L902.09 177.254L901.084 174.189L903.101 176.676L904.055 173.585Z" fill="#D9D9D9"/>
<path d="M1694.05 225.585L1694.25 228.814L1696.8 226.876L1695.09 229.615L1698.26 229.571L1695.31 230.772L1697.9 232.639L1694.83 231.844L1695.83 234.909L1693.81 232.421L1692.86 235.513L1692.67 232.283L1690.12 234.221L1691.82 231.483L1688.65 231.527L1691.6 230.326L1689.02 228.459L1692.09 229.254L1691.08 226.189L1693.1 228.676L1694.05 225.585Z" fill="#D9D9D9"/>
<path d="M501.055 829.585L501.932 833.366L505.317 835.133L501.609 836.047L499.861 839.513L498.984 835.732L495.598 833.964L499.307 833.05L501.055 829.585Z" fill="#D9D9D9"/>
<path d="M140.055 758.585L140.932 762.366L144.317 764.133L140.609 765.047L138.861 768.513L137.984 764.732L134.598 762.964L138.307 762.05L140.055 758.585Z" fill="#D9D9D9"/>
<path d="M1823.05 850.585L1823.93 854.366L1827.32 856.133L1823.61 857.047L1821.86 860.513L1820.98 856.732L1817.6 854.964L1821.31 854.05L1823.05 850.585Z" fill="#D9D9D9"/>
<path d="M740.742 423.405L741.619 427.186L745.005 428.954L741.297 429.868L739.548 433.333L738.671 429.552L735.286 427.785L738.994 426.87L740.742 423.405Z" fill="#D9D9D9"/>
<path d="M1365.05 808.585L1365.25 811.814L1367.8 809.876L1366.09 812.615L1369.26 812.571L1366.31 813.772L1368.9 815.639L1365.83 814.844L1366.83 817.909L1364.81 815.421L1363.86 818.513L1363.67 815.283L1361.12 817.221L1362.82 814.483L1359.65 814.527L1362.6 813.326L1360.02 811.459L1363.09 812.254L1362.08 809.189L1364.1 811.676L1365.05 808.585Z" fill="#D9D9D9"/>
<path d="M238.407 88.3112L239.283 92.0925L242.669 93.86L238.961 94.774L237.212 98.2396L236.336 94.4583L232.95 92.6908L236.658 91.7767L238.407 88.3112Z" fill="#D9D9D9"/>
<path d="M628.407 42.9674L629.283 46.7487L632.669 48.5162L628.961 49.4303L627.212 52.8958L626.336 49.1145L622.95 47.347L626.658 46.4329L628.407 42.9674Z" fill="#D9D9D9"/>
</g>
<g opacity="0.3">
<g filter="url(#filter1_d_2971_28925)">
<path d="M1337.87 1063.65C1337.87 970.355 1296.39 880.885 1222.57 814.918C1148.75 748.951 1048.63 711.891 944.234 711.891C839.836 711.891 739.714 748.951 665.894 814.918C592.073 880.885 550.602 970.355 550.602 1063.65L944.234 1063.65H1337.87Z" fill="#262336"/>
<path d="M1337.87 1063.65C1337.87 970.355 1296.39 880.885 1222.57 814.918C1148.75 748.951 1048.63 711.891 944.234 711.891C839.836 711.891 739.714 748.951 665.894 814.918C592.073 880.885 550.602 970.355 550.602 1063.65L944.234 1063.65H1337.87Z" fill="url(#paint0_linear_2971_28925)" fill-opacity="0.75"/>
</g>
<g filter="url(#filter2_d_2971_28925)">
<path d="M1337.87 1063.65C1337.87 970.355 1296.39 880.885 1222.57 814.918C1148.75 748.951 1048.63 711.891 944.234 711.891C839.836 711.891 739.714 748.951 665.894 814.918C592.073 880.885 550.602 970.355 550.602 1063.65L944.234 1063.65H1337.87Z" fill="#262336"/>
<path d="M1337.87 1063.65C1337.87 970.355 1296.39 880.885 1222.57 814.918C1148.75 748.951 1048.63 711.891 944.234 711.891C839.836 711.891 739.714 748.951 665.894 814.918C592.073 880.885 550.602 970.355 550.602 1063.65L944.234 1063.65H1337.87Z" fill="url(#paint1_linear_2971_28925)" fill-opacity="0.75"/>
</g>
<mask id="path-15-inside-1_2971_28925" fill="white">
<path d="M1276.05 869.716C1239.03 819.378 1187.45 778.34 1126.46 750.696C1065.46 723.052 997.179 709.767 928.421 712.166C859.662 714.565 792.829 732.564 734.587 764.368C676.345 796.173 628.728 840.671 596.485 893.426L944.234 1053.48L1276.05 869.716Z"/>
</mask>
<path d="M1276.05 869.716C1239.03 819.378 1187.45 778.34 1126.46 750.696C1065.46 723.052 997.179 709.767 928.421 712.166C859.662 714.565 792.829 732.564 734.587 764.368C676.345 796.173 628.728 840.671 596.485 893.426L944.234 1053.48L1276.05 869.716Z" stroke="black" stroke-width="2.83824" mask="url(#path-15-inside-1_2971_28925)"/>
<path d="M1017.6 915.691C1001.06 924.332 977.684 931.949 945.664 931.949C898.918 931.949 871.596 915.691 869.628 886.428H1111.71V839.708C1111.71 803.173 1099.11 778.698 1071.03 760.646C1040.37 741.134 996.203 730.953 942.783 730.953C892.846 730.953 851.41 740.449 821.367 758.077C789.488 776.904 775.375 799.834 775.375 835.599V873.933C775.375 912.697 790.702 937.421 825.312 955.564C856.73 971.652 898.015 980.718 944.298 980.718C994.236 980.718 1033.69 971.647 1070.57 952.14L1017.6 915.691ZM869.478 838.598C869.478 813.014 878.733 779.213 943.546 779.213C1008.36 779.213 1017.61 813.014 1017.61 838.598H869.478Z" fill="url(#paint2_linear_2971_28925)"/>
<g filter="url(#filter3_d_2971_28925)">
<path d="M1433.46 1124.07C1433.46 1012.04 1383.61 904.601 1294.88 825.384C1206.15 746.167 1085.8 701.664 960.31 701.664C834.822 701.664 714.473 746.167 625.74 825.384C537.006 904.601 487.156 1012.04 487.156 1124.07L960.31 1124.07H1433.46Z" fill="#262336"/>
<path d="M1433.46 1124.07C1433.46 1012.04 1383.61 904.601 1294.88 825.384C1206.15 746.167 1085.8 701.664 960.31 701.664C834.822 701.664 714.473 746.167 625.74 825.384C537.006 904.601 487.156 1012.04 487.156 1124.07L960.31 1124.07H1433.46Z" fill="url(#paint3_linear_2971_28925)" fill-opacity="0.75"/>
</g>
<g filter="url(#filter4_d_2971_28925)">
<path d="M1433.46 1124.07C1433.46 1012.04 1383.61 904.601 1294.88 825.384C1206.15 746.167 1085.8 701.664 960.31 701.664C834.822 701.664 714.473 746.167 625.74 825.384C537.006 904.601 487.156 1012.04 487.156 1124.07L960.31 1124.07H1433.46Z" fill="#262336"/>
<path d="M1433.46 1124.07C1433.46 1012.04 1383.61 904.601 1294.88 825.384C1206.15 746.167 1085.8 701.664 960.31 701.664C834.822 701.664 714.473 746.167 625.74 825.384C537.006 904.601 487.156 1012.04 487.156 1124.07L960.31 1124.07H1433.46Z" fill="url(#paint4_radial_2971_28925)" fill-opacity="0.1"/>
</g>
</g>
<defs>
<filter id="filter0_d_2971_28925" x="-2842.86" y="-1099.58" width="4674.18" height="1964.09" filterUnits="userSpaceOnUse" color-interpolation-filters="sRGB">
<feFlood flood-opacity="0" result="BackgroundImageFix"/>
<feColorMatrix in="SourceAlpha" type="matrix" values="0 0 0 0 0 0 0 0 0 0 0 0 0 0 0 0 0 0 127 0" result="hardAlpha"/>
<feOffset/>
<feGaussianBlur stdDeviation="2"/>
<feComposite in2="hardAlpha" operator="out"/>
<feColorMatrix type="matrix" values="0 0 0 0 1 0 0 0 0 1 0 0 0 0 1 0 0 0 1 0"/>
<feBlend mode="normal" in2="BackgroundImageFix" result="effect1_dropShadow_2971_28925"/>
<feBlend mode="normal" in="SourceGraphic" in2="effect1_dropShadow_2971_28925" result="shape"/>
</filter>
<filter id="filter1_d_2971_28925" x="265.359" y="193.912" width="1357.75" height="922.244" filterUnits="userSpaceOnUse" color-interpolation-filters="sRGB">
<feFlood flood-opacity="0" result="BackgroundImageFix"/>
<feColorMatrix in="SourceAlpha" type="matrix" values="0 0 0 0 0 0 0 0 0 0 0 0 0 0 0 0 0 0 127 0" result="hardAlpha"/>
<feMorphology radius="1.41912" operator="dilate" in="SourceAlpha" result="effect1_dropShadow_2971_28925"/>
<feOffset dy="-232.736"/>
<feGaussianBlur stdDeviation="141.912"/>
<feComposite in2="hardAlpha" operator="out"/>
<feColorMatrix type="matrix" values="0 0 0 0 0.988235 0 0 0 0 0.466667 0 0 0 0 0.466667 0 0 0 0.1 0"/>
<feBlend mode="normal" in2="BackgroundImageFix" result="effect1_dropShadow_2971_28925"/>
<feBlend mode="normal" in="SourceGraphic" in2="effect1_dropShadow_2971_28925" result="shape"/>
</filter>
<filter id="filter2_d_2971_28925" x="263.94" y="141.405" width="1360.59" height="925.082" filterUnits="userSpaceOnUse" color-interpolation-filters="sRGB">
<feFlood flood-opacity="0" result="BackgroundImageFix"/>
<feColorMatrix in="SourceAlpha" type="matrix" values="0 0 0 0 0 0 0 0 0 0 0 0 0 0 0 0 0 0 127 0" result="hardAlpha"/>
<feMorphology radius="2.83824" operator="dilate" in="SourceAlpha" result="effect1_dropShadow_2971_28925"/>
<feOffset dy="-283.824"/>
<feGaussianBlur stdDeviation="141.912"/>
<feComposite in2="hardAlpha" operator="out"/>
<feColorMatrix type="matrix" values="0 0 0 0 0.678431 0 0 0 0 0.345098 0 0 0 0 0.827451 0 0 0 0.2 0"/>
<feBlend mode="normal" in2="BackgroundImageFix" result="effect1_dropShadow_2971_28925"/>
<feBlend mode="normal" in="SourceGraphic" in2="effect1_dropShadow_2971_28925" result="shape"/>
</filter>
<filter id="filter3_d_2971_28925" x="201.913" y="183.686" width="1516.79" height="992.892" filterUnits="userSpaceOnUse" color-interpolation-filters="sRGB">
<feFlood flood-opacity="0" result="BackgroundImageFix"/>
<feColorMatrix in="SourceAlpha" type="matrix" values="0 0 0 0 0 0 0 0 0 0 0 0 0 0 0 0 0 0 127 0" result="hardAlpha"/>
<feMorphology radius="1.41912" operator="dilate" in="SourceAlpha" result="effect1_dropShadow_2971_28925"/>
<feOffset dy="-232.736"/>
<feGaussianBlur stdDeviation="141.912"/>
<feComposite in2="hardAlpha" operator="out"/>
<feColorMatrix type="matrix" values="0 0 0 0 0.988235 0 0 0 0 0.466667 0 0 0 0 0.466667 0 0 0 0.21 0"/>
<feBlend mode="normal" in2="BackgroundImageFix" result="effect1_dropShadow_2971_28925"/>
<feBlend mode="normal" in="SourceGraphic" in2="effect1_dropShadow_2971_28925" result="shape"/>
</filter>
<filter id="filter4_d_2971_28925" x="467.289" y="613.679" width="986.04" height="510.392" filterUnits="userSpaceOnUse" color-interpolation-filters="sRGB">
<feFlood flood-opacity="0" result="BackgroundImageFix"/>
<feColorMatrix in="SourceAlpha" type="matrix" values="0 0 0 0 0 0 0 0 0 0 0 0 0 0 0 0 0 0 127 0" result="hardAlpha"/>
<feMorphology radius="39.7353" operator="erode" in="SourceAlpha" result="effect1_dropShadow_2971_28925"/>
<feOffset dy="-68.1177"/>
<feGaussianBlur stdDeviation="29.8015"/>
<feComposite in2="hardAlpha" operator="out"/>
<feColorMatrix type="matrix" values="0 0 0 0 0 0 0 0 0 0 0 0 0 0 0 0 0 0 0.6 0"/>
<feBlend mode="normal" in2="BackgroundImageFix" result="effect1_dropShadow_2971_28925"/>
<feBlend mode="normal" in="SourceGraphic" in2="effect1_dropShadow_2971_28925" result="shape"/>
</filter>
<linearGradient id="paint0_linear_2971_28925" x1="944.234" y1="687.225" x2="944.234" y2="969.81" gradientUnits="userSpaceOnUse">
<stop offset="0.65" stop-color="#8653FF"/>
<stop offset="1" stop-color="#262336"/>
</linearGradient>
<linearGradient id="paint1_linear_2971_28925" x1="944.234" y1="687.225" x2="944.234" y2="969.81" gradientUnits="userSpaceOnUse">
<stop offset="0.29312" stop-color="#8653FF"/>
<stop offset="1" stop-color="#262336"/>
</linearGradient>
<linearGradient id="paint2_linear_2971_28925" x1="943.546" y1="730.953" x2="943.546" y2="980.718" gradientUnits="userSpaceOnUse">
<stop stop-color="#FF6C72"/>
<stop offset="1" stop-color="#894FFF"/>
</linearGradient>
<linearGradient id="paint3_linear_2971_28925" x1="960.31" y1="672.044" x2="960.31" y2="1011.39" gradientUnits="userSpaceOnUse">
<stop offset="0.65" stop-color="#8653FF"/>
<stop offset="1" stop-color="#262336"/>
</linearGradient>
<radialGradient id="paint4_radial_2971_28925" cx="0" cy="0" r="1" gradientUnits="userSpaceOnUse" gradientTransform="translate(960.306 507.446) rotate(90) scale(969.723 1289.55)">
<stop offset="0.227329" stop-color="#FA6A77"/>
<stop offset="0.385615" stop-color="#9F54E4" stop-opacity="0.21"/>
<stop offset="0.555206" stop-color="#262336" stop-opacity="0"/>
</radialGradient>
</defs>
</svg>
