<svg width="1920" height="1080" viewBox="0 0 1920 1080" fill="none" xmlns="http://www.w3.org/2000/svg">
<rect width="1920" height="1080" fill="#1E1E1E"/>
<rect width="3130" height="1131" transform="translate(1246 -2012)" fill="#262336"/>
<g opacity="0.2" filter="url(#filter0_d_0_1)">
<path d="M255.184 -3.8346L259.271 1.27567L265.746 1.41538L260.72 5.61327L260.55 12.2252L256.464 7.11492L249.988 6.9752L255.014 2.77732L255.184 -3.8346Z" fill="#D9D9D9"/>
<path d="M711.817 175.783L715.903 180.893L722.379 181.033L717.353 185.23L717.183 191.842L713.097 186.732L706.621 186.592L711.647 182.395L711.817 175.783Z" fill="#D9D9D9"/>
<path d="M131.282 438.842L132.158 442.624L135.544 444.391L131.836 445.305L130.087 448.771L129.211 444.99L125.825 443.222L129.533 442.308L131.282 438.842Z" fill="#D9D9D9"/>
<path d="M1025.05 746.335L1025.25 749.564L1027.8 747.626L1026.09 750.365L1029.26 750.321L1026.31 751.522L1028.9 753.389L1025.83 752.594L1026.83 755.659L1024.81 753.171L1023.86 756.263L1023.67 753.033L1021.12 754.971L1022.82 752.233L1019.65 752.277L1022.6 751.076L1020.02 749.209L1023.09 750.004L1022.08 746.939L1024.1 749.426L1025.05 746.335Z" fill="#D9D9D9"/>
<path d="M679.992 715.585L680.869 719.366L684.255 721.133L680.547 722.047L678.798 725.513L677.921 721.732L674.536 719.964L678.244 719.05L679.992 715.585Z" fill="#D9D9D9"/>
<path d="M1814.99 746.585L1815.87 750.366L1819.25 752.133L1815.55 753.047L1813.8 756.513L1812.92 752.732L1809.54 750.964L1813.24 750.05L1814.99 746.585Z" fill="#D9D9D9"/>
<path d="M1494.99 513.585L1495.19 516.814L1497.73 514.876L1496.03 517.615L1499.2 517.571L1496.25 518.772L1498.83 520.639L1495.76 519.844L1496.77 522.909L1494.75 520.421L1493.8 523.513L1493.6 520.283L1491.06 522.221L1492.76 519.483L1489.59 519.527L1492.54 518.326L1489.96 516.459L1493.03 517.254L1492.02 514.189L1494.04 516.676L1494.99 513.585Z" fill="#D9D9D9"/>
<path d="M1331.68 763.405L1332.56 767.186L1335.94 768.954L1332.23 769.868L1330.49 773.333L1329.61 769.552L1326.22 767.785L1329.93 766.87L1331.68 763.405Z" fill="#D9D9D9"/>
<path d="M180.696 782.194L181.572 785.975L184.958 787.743L181.25 788.657L179.501 792.122L178.625 788.341L175.239 786.574L178.947 785.659L180.696 782.194Z" fill="#D9D9D9"/>
<path d="M829.344 428.311L830.221 432.092L833.607 433.86L829.898 434.774L828.15 438.24L827.273 434.458L823.887 432.691L827.596 431.777L829.344 428.311Z" fill="#D9D9D9"/>
<path d="M1219.34 382.967L1220.22 386.749L1223.61 388.516L1219.9 389.43L1218.15 392.896L1217.27 389.115L1213.89 387.347L1217.6 386.433L1219.34 382.967Z" fill="#D9D9D9"/>
</g>
<defs>
<filter id="filter0_d_0_1" x="-2251.92" y="-759.578" width="4674.18" height="1964.09" filterUnits="userSpaceOnUse" color-interpolation-filters="sRGB">
<feFlood flood-opacity="0" result="BackgroundImageFix"/>
<feColorMatrix in="SourceAlpha" type="matrix" values="0 0 0 0 0 0 0 0 0 0 0 0 0 0 0 0 0 0 127 0" result="hardAlpha"/>
<feOffset/>
<feGaussianBlur stdDeviation="2"/>
<feComposite in2="hardAlpha" operator="out"/>
<feColorMatrix type="matrix" values="0 0 0 0 1 0 0 0 0 1 0 0 0 0 1 0 0 0 1 0"/>
<feBlend mode="normal" in2="BackgroundImageFix" result="effect1_dropShadow_0_1"/>
<feBlend mode="normal" in="SourceGraphic" in2="effect1_dropShadow_0_1" result="shape"/>
</filter>
</defs>
</svg>
