<svg width="59" height="67" viewBox="0 0 59 67" fill="none" xmlns="http://www.w3.org/2000/svg">
<path d="M1.95437 66.7629C0.804367 66.2329 0.504359 65.3229 0.524359 64.0929C0.754359 52.2229 9.80437 41.6729 21.4844 39.7629C22.9444 39.5229 24.4344 39.4227 25.9144 39.3927C28.5344 39.3327 31.1644 39.3027 33.7844 39.3927C43.7444 39.7627 51.0344 44.4827 55.8044 53.1427C57.6844 56.5527 58.4944 60.2727 58.6644 64.1527C58.7144 65.3627 58.3544 66.2328 57.2344 66.7528C38.8044 66.7628 20.3844 66.7629 1.95437 66.7629Z" fill="#4A3C7F"/>
<path d="M29.6242 0.632822C39.2442 0.642822 47.0641 8.51306 47.0341 18.1231C47.0041 27.7131 39.1642 35.5129 29.5742 35.5029C19.9542 35.4929 12.1341 27.6229 12.1641 18.0029C12.1841 8.42294 20.0242 0.622822 29.6242 0.632822Z" fill="#4A3C7F"/>
</svg>
