<svg width="59" height="91" viewBox="0 0 59 91" fill="none" xmlns="http://www.w3.org/2000/svg">
<path d="M53.381 12.8608L34.641 2.04077C33.051 1.12077 31.2409 0.640625 29.4109 0.640625C27.5809 0.640625 25.7709 1.12077 24.1809 2.04077L5.44095 12.8608C2.21095 14.7208 0.210938 18.2007 0.210938 21.9207V43.5608C0.210938 47.2908 2.21095 50.7608 5.44095 52.6208L11.761 56.2708V79.0408C11.761 80.8708 12.5909 82.5607 13.9309 83.4607L13.9709 83.4907L23.6509 89.2407C25.3909 90.2707 27.3809 90.8208 29.4109 90.8208C31.441 90.8208 33.431 90.2707 35.171 89.2407L44.851 83.4907L44.891 83.4607C46.231 82.5607 47.0609 80.8708 47.0609 79.0408V56.2708L53.381 52.6208C56.611 50.7608 58.6109 47.2808 58.6109 43.5608V21.9207C58.6109 18.2007 56.611 14.7308 53.381 12.8608Z" fill="white"/>
<path d="M42.7335 32.9609H16.0934C14.6734 32.9609 13.5234 34.451 13.5234 36.291V79.041C13.5234 80.281 14.0635 81.421 14.9135 82.001L24.5534 87.7209C27.5534 89.5009 31.2834 89.5009 34.2834 87.7209L43.9235 82.001C44.7735 81.431 45.3134 80.291 45.3134 79.041V36.291C45.3034 34.451 44.1535 32.9609 42.7335 32.9609Z" fill="#388770"/>
<path d="M56.8488 43.5609V21.9208C56.8488 18.8108 55.1887 15.9408 52.4987 14.3808L33.7588 3.56094C31.0688 2.01094 27.7487 2.01094 25.0587 3.56094L6.31876 14.3808C3.62876 15.9308 1.96875 18.8108 1.96875 21.9208V43.5609C1.96875 46.6709 3.62876 49.541 6.31876 51.101L25.0587 61.9208C27.7487 63.4708 31.0688 63.4708 33.7588 61.9208L52.4987 51.101C55.1887 49.541 56.8488 46.6709 56.8488 43.5609Z" fill="url(#paint0_linear_599_12791)"/>
<path d="M52.4041 23.6808V41.8109C52.4041 44.4209 51.0141 46.821 48.7541 48.121L33.054 57.1808C30.794 58.4808 28.0141 58.4808 25.7641 57.1808L10.0641 48.121C7.80406 46.821 6.41406 44.4109 6.41406 41.8109V23.6808C6.41406 21.0808 7.80406 18.671 10.0641 17.371L25.7641 8.31094C28.0241 7.01094 30.804 7.01094 33.054 8.31094L48.7541 17.371C51.0141 18.671 52.4041 21.0708 52.4041 23.6808Z" fill="url(#paint1_linear_599_12791)"/>
<path d="M50.0025 24.6185V40.8585C50.0025 43.1885 48.7625 45.3484 46.7325 46.5184L32.6725 54.6382C30.6525 55.8082 28.1625 55.8082 26.1425 54.6382L12.0825 46.5184C10.0625 45.3484 8.8125 43.1985 8.8125 40.8585V24.6185C8.8125 22.2885 10.0525 20.1283 12.0825 18.9583L26.1425 10.8384C28.1625 9.66844 30.6525 9.66844 32.6725 10.8384L46.7325 18.9583C48.7625 20.1283 50.0025 22.2885 50.0025 24.6185Z" fill="#251F3A"/>
<path d="M38.9907 39.5519C38.6907 39.5519 38.4107 39.6817 38.2207 39.9117C36.1407 42.4717 32.9607 44.1019 29.4107 44.1019C24.3907 44.1019 20.1307 40.8419 18.6307 36.3319C18.4207 35.6819 18.8907 35.0218 19.5707 35.0218H31.0207H40.5307H44.2407C44.7607 35.0218 45.1907 34.6319 45.2307 34.1119C45.2707 33.6619 45.2907 33.2118 45.2907 32.7518C45.2907 24.0718 38.3307 17.0219 29.6907 16.8619C20.7207 16.7019 13.3407 24.0719 13.5107 33.0419C13.6707 41.6819 20.7207 48.6417 29.4007 48.6417C35.1207 48.6417 40.1407 45.6119 42.9407 41.0719C43.3507 40.4119 42.8807 39.5519 42.1007 39.5519H38.9907ZM29.4107 21.3917C34.4307 21.3917 38.6907 24.6517 40.1907 29.1617C40.4007 29.8117 39.9307 30.4718 39.2507 30.4718H19.5807C18.9007 30.4718 18.4207 29.8017 18.6407 29.1617C20.1307 24.6417 24.3907 21.3917 29.4107 21.3917Z" fill="white"/>
<path d="M33.2041 78.1897V80.4397H25.6241V78.5398L29.0141 74.2898C29.2941 73.8798 29.5141 73.5097 29.6741 73.1897C29.8341 72.8697 29.9541 72.5698 30.0341 72.2998C30.1141 72.0298 30.1441 71.7998 30.1441 71.5798C30.1441 71.2198 30.1141 70.9097 30.0441 70.6697C29.9741 70.4297 29.874 70.2399 29.744 70.1099C29.614 69.9799 29.4541 69.9197 29.2641 69.9197C29.0541 69.9197 28.8741 70.0097 28.7241 70.1797C28.5741 70.3497 28.4641 70.5896 28.3841 70.8896C28.3041 71.1896 28.2641 71.5297 28.2641 71.8997H25.4141C25.4141 71.1297 25.5741 70.4198 25.9041 69.7798C26.2341 69.1398 26.694 68.6298 27.274 68.2498C27.864 67.8698 28.5441 67.6797 29.3241 67.6797C30.1341 67.6797 30.8041 67.8199 31.3541 68.1099C31.8941 68.3999 32.304 68.8099 32.584 69.3599C32.854 69.8999 32.994 70.5598 32.994 71.3298C32.994 71.7698 32.9341 72.1898 32.8241 72.5898C32.7041 72.9898 32.5441 73.3898 32.3241 73.7898C32.1041 74.1898 31.8341 74.5898 31.5141 74.9998C31.1941 75.4198 30.8241 75.8598 30.3941 76.3198L29.3441 78.1997H33.2041V78.1897Z" fill="white"/>
<defs>
<linearGradient id="paint0_linear_599_12791" x1="29.41" y1="63.0845" x2="29.41" y2="2.40204" gradientUnits="userSpaceOnUse">
<stop stop-color="#032135"/>
<stop offset="1" stop-color="#00AA7B"/>
</linearGradient>
<linearGradient id="paint1_linear_599_12791" x1="29.4153" y1="7.32614" x2="29.4153" y2="58.161" gradientUnits="userSpaceOnUse">
<stop stop-color="#032135"/>
<stop offset="1" stop-color="#00AA7B"/>
</linearGradient>
</defs>
</svg>
