<svg width="88" height="91" viewBox="0 0 88 91" fill="none" xmlns="http://www.w3.org/2000/svg">
<path d="M43.8106 90.8108C41.7806 90.8108 39.7906 90.2607 38.0506 89.2307L28.3706 83.4807L28.3305 83.4507C27.0505 82.5907 26.2406 81.0108 26.1706 79.2808L24.1905 78.2808L24.1506 78.2607C22.4906 77.3107 21.4605 75.4807 21.4605 73.4707V53.5508L19.8405 52.6208C19.0405 52.1609 18.3106 51.6007 17.6606 50.9407H14.9106C13.7006 50.9407 12.6205 50.2206 12.2205 49.1406L9.09052 40.6008C8.82052 39.8708 8.90058 39.0907 9.28058 38.4307C8.56058 38.1407 7.98052 37.5708 7.71052 36.8408L4.83051 28.9807C4.56051 28.2507 4.64058 27.4708 5.03058 26.8108C4.31058 26.5208 3.73052 25.9507 3.46052 25.2207L0.330511 16.6807C0.0405106 15.8807 0.150569 15.0308 0.640569 14.3208C1.17057 13.5708 2.06057 13.1208 3.02057 13.1208H19.4106C19.5506 13.0308 19.6905 12.9408 19.8305 12.8608L38.5705 2.04077C40.1605 1.12077 41.9706 0.640625 43.8006 0.640625C45.6306 0.640625 47.4406 1.12077 49.0306 2.04077L67.7706 12.8608C67.9106 12.9408 68.0505 13.0308 68.1905 13.1208H84.5805C85.5405 13.1208 86.4305 13.5708 86.9605 14.3208C87.4505 15.0208 87.5606 15.8807 87.2706 16.6807L84.1406 25.2207C83.8706 25.9507 83.2905 26.5208 82.5705 26.8108C82.9605 27.4708 83.0306 28.2507 82.7606 28.9807L79.8806 36.8408C79.6106 37.5708 79.0306 38.1407 78.3106 38.4307C78.7006 39.0907 78.7706 39.8708 78.5006 40.6008L75.3706 49.1406C74.9806 50.2206 73.8906 50.9407 72.6806 50.9407H69.9306C69.2806 51.5907 68.5506 52.1609 67.7506 52.6208L66.1306 53.5508V73.4707C66.1306 75.4807 65.1005 77.3107 63.4405 78.2607L63.4006 78.2808L61.4206 79.2808C61.3506 81.0108 60.5306 82.5907 59.2606 83.4507L59.2205 83.4807L49.5406 89.2307C47.8306 90.2607 45.8406 90.8108 43.8106 90.8108Z" fill="white"/>
<path d="M80.0934 27.1797H7.54345C6.81345 27.1797 6.28341 27.7796 6.50341 28.3796L9.38342 36.2397C9.52342 36.6297 9.94346 36.8896 10.4235 36.8896H77.2134C77.6934 36.8896 78.1134 36.6297 78.2534 36.2397L81.1334 28.3796C81.3434 27.7796 80.8234 27.1797 80.0934 27.1797Z" fill="#F49D3D"/>
<path d="M82.5034 24.6072L85.6334 16.0671C85.8534 15.4771 85.3234 14.8672 84.5934 14.8672H3.04345C2.31345 14.8672 1.78341 15.4671 2.00341 16.0671L5.13342 24.6072C5.27342 24.9972 5.69346 25.2571 6.17346 25.2571H81.4734C81.9434 25.2571 82.3634 24.9972 82.5034 24.6072Z" fill="#F49D3D"/>
<path d="M10.7618 39.9968L13.8918 48.5369C14.0318 48.9269 14.4519 49.1868 14.9319 49.1868H72.7218C73.2018 49.1868 73.6218 48.9269 73.7618 48.5369L76.8918 39.9968C77.1118 39.4068 76.5818 38.7969 75.8518 38.7969H11.8119C11.0619 38.7969 10.5418 39.4068 10.7618 39.9968Z" fill="#F49D3D"/>
<path d="M61.0787 22.7188H26.5488C24.7088 22.7188 23.2188 24.3587 23.2188 26.3887V73.4788C23.2188 74.8488 23.9088 76.1088 25.0188 76.7388L37.5088 83.0388C41.3888 84.9988 46.2288 84.9988 50.1088 83.0388L62.5988 76.7388C63.6988 76.1088 64.3988 74.8488 64.3988 73.4788V26.3887C64.4088 24.3587 62.9187 22.7188 61.0787 22.7188Z" fill="#F49D3D"/>
<path d="M43.8119 87.801C42.3219 87.801 40.8618 87.4009 39.5918 86.6409L29.9518 80.9209C29.5118 80.6209 29.1719 79.851 29.1719 79.041V36.291C29.1719 35.071 29.8618 34.2109 30.4918 34.2109H57.1318C57.7518 34.2109 58.4518 35.061 58.4518 36.291V79.041C58.4518 79.851 58.1218 80.6209 57.6218 80.9609L48.0419 86.6509C46.7619 87.4009 45.3019 87.801 43.8119 87.801Z" fill="#FFF9EE"/>
<path d="M56.9718 35.4709C57.0618 35.5809 57.2018 35.861 57.2018 36.301V79.041C57.2018 79.521 57.0218 79.8209 56.9418 79.9009L47.4019 85.561C46.3219 86.201 45.0818 86.541 43.8218 86.541C42.5618 86.541 41.3218 86.201 40.2418 85.561L30.7018 79.9009C30.6218 79.8209 30.4418 79.511 30.4418 79.041V36.301C30.4418 35.861 30.5919 35.5909 30.6719 35.4709H56.9718ZM57.1318 32.9609H30.4918C29.0718 32.9609 27.9219 34.451 27.9219 36.291V79.031C27.9219 80.271 28.4619 81.411 29.3119 81.991L38.9518 87.7109C40.4518 88.6009 42.1319 89.041 43.8119 89.041C45.4919 89.041 47.1719 88.5909 48.6719 87.7109L58.3119 81.991C59.1619 81.421 59.7018 80.281 59.7018 79.031V36.291C59.7018 34.451 58.5518 32.9609 57.1318 32.9609Z" fill="#D3C8B8"/>
<path d="M80.0934 27.1797H7.54345C6.81345 27.1797 6.28341 27.7796 6.50341 28.3796L9.38342 36.2397C9.52342 36.6297 9.94346 36.8896 10.4235 36.8896H77.2134C77.6934 36.8896 78.1134 36.6297 78.2534 36.2397L81.1334 28.3796C81.3434 27.7796 80.8234 27.1797 80.0934 27.1797Z" fill="#FFC943"/>
<mask id="mask0_599_12834" style="mask-type:luminance" maskUnits="userSpaceOnUse" x="6" y="27" width="76" height="10">
<path d="M80.0934 27.1797H7.54345C6.81345 27.1797 6.28341 27.7796 6.50341 28.3796L9.38342 36.2397C9.52342 36.6297 9.94346 36.8896 10.4235 36.8896H77.2134C77.6934 36.8896 78.1134 36.6297 78.2534 36.2397L81.1334 28.3796C81.3434 27.7796 80.8234 27.1797 80.0934 27.1797Z" fill="white"/>
</mask>
<g mask="url(#mask0_599_12834)">
<path d="M80.0934 31.7109H7.54345C6.81345 31.7109 6.28341 32.0311 6.50341 32.3511L9.38342 36.551C9.52342 36.761 9.94346 36.9009 10.4235 36.9009H77.2134C77.6934 36.9009 78.1134 36.761 78.2534 36.551L81.1334 32.3511C81.3434 32.0311 80.8234 31.7109 80.0934 31.7109Z" fill="#EFAC35"/>
</g>
<path d="M82.5034 24.6072L85.6334 16.0671C85.8534 15.4771 85.3234 14.8672 84.5934 14.8672H3.04345C2.31345 14.8672 1.78341 15.4671 2.00341 16.0671L5.13342 24.6072C5.27342 24.9972 5.69346 25.2571 6.17346 25.2571H81.4734C81.9434 25.2571 82.3634 24.9972 82.5034 24.6072Z" fill="#FFC943"/>
<mask id="mask1_599_12834" style="mask-type:luminance" maskUnits="userSpaceOnUse" x="1" y="14" width="85" height="12">
<path d="M82.5034 24.6072L85.6334 16.0671C85.8534 15.4771 85.3234 14.8672 84.5934 14.8672H3.04345C2.31345 14.8672 1.78341 15.4671 2.00341 16.0671L5.13342 24.6072C5.27342 24.9972 5.69346 25.2571 6.17346 25.2571H81.4734C81.9434 25.2571 82.3634 24.9972 82.5034 24.6072Z" fill="white"/>
</mask>
<g mask="url(#mask1_599_12834)">
<path d="M82.5034 24.9402L85.6334 20.6702C85.8534 20.3702 85.3234 20.0703 84.5934 20.0703H3.04345C2.31345 20.0703 1.78341 20.3702 2.00341 20.6702L5.13342 24.9402C5.27342 25.1302 5.69346 25.2603 6.17346 25.2603H81.4734C81.9434 25.2603 82.3634 25.1302 82.5034 24.9402Z" fill="#EFAC35"/>
</g>
<path d="M10.7618 39.9968L13.8918 48.5369C14.0318 48.9269 14.4519 49.1868 14.9319 49.1868H72.7218C73.2018 49.1868 73.6218 48.9269 73.7618 48.5369L76.8918 39.9968C77.1118 39.4068 76.5818 38.7969 75.8518 38.7969H11.8119C11.0619 38.7969 10.5418 39.4068 10.7618 39.9968Z" fill="#FFC943"/>
<mask id="mask2_599_12834" style="mask-type:luminance" maskUnits="userSpaceOnUse" x="10" y="38" width="67" height="12">
<path d="M10.7618 39.9968L13.8918 48.5369C14.0318 48.9269 14.4519 49.1868 14.9319 49.1868H72.7218C73.2018 49.1868 73.6218 48.9269 73.7618 48.5369L76.8918 39.9968C77.1118 39.4068 76.5818 38.7969 75.8518 38.7969H11.8119C11.0619 38.7969 10.5418 39.4068 10.7618 39.9968Z" fill="white"/>
</mask>
<g mask="url(#mask2_599_12834)">
<path d="M10.7618 44.5845L13.8918 48.8545C14.0318 49.0445 14.4519 49.1743 14.9319 49.1743H72.7218C73.2018 49.1743 73.6218 49.0445 73.7618 48.8545L76.8918 44.5845C77.1118 44.2845 76.5818 43.9844 75.8518 43.9844H11.8119C11.0619 43.9844 10.5418 44.2945 10.7618 44.5845Z" fill="#EFAC35"/>
</g>
<path d="M71.2628 43.5609V21.9208C71.2628 18.8108 69.6028 15.9408 66.9128 14.3808L48.1729 3.56094C45.4829 2.01094 42.1628 2.01094 39.4728 3.56094L20.7328 14.3808C18.0428 15.9308 16.3828 18.8108 16.3828 21.9208V43.5609C16.3828 46.6709 18.0428 49.541 20.7328 51.101L39.4728 61.9208C42.1628 63.4708 45.4829 63.4708 48.1729 61.9208L66.9128 51.101C69.6028 49.541 71.2628 46.6709 71.2628 43.5609Z" fill="url(#paint0_linear_599_12834)"/>
<path d="M66.8025 23.6808V41.8109C66.8025 44.4209 65.4125 46.821 63.1525 48.121L47.4524 57.1808C45.1924 58.4808 42.4125 58.4808 40.1625 57.1808L24.4624 48.121C22.2024 46.821 20.8125 44.4109 20.8125 41.8109V23.6808C20.8125 21.0808 22.2024 18.671 24.4624 17.371L40.1625 8.31094C42.4225 7.01094 45.2024 7.01094 47.4524 8.31094L63.1525 17.371C65.4125 18.671 66.8025 21.0708 66.8025 23.6808Z" fill="url(#paint1_linear_599_12834)"/>
<path d="M64.4088 24.6185V40.8585C64.4088 43.1885 63.1688 45.3484 61.1388 46.5184L47.0787 54.6382C45.0587 55.8082 42.5688 55.8082 40.5488 54.6382L26.4888 46.5184C24.4688 45.3484 23.2188 43.1985 23.2188 40.8585V24.6185C23.2188 22.2885 24.4588 20.1283 26.4888 18.9583L40.5488 10.8384C42.5688 9.66844 45.0587 9.66844 47.0787 10.8384L61.1388 18.9583C63.1588 20.1283 64.4088 22.2885 64.4088 24.6185Z" fill="#251F3A"/>
<path d="M53.3891 39.5519C53.0891 39.5519 52.8091 39.6817 52.6191 39.9117C50.5391 42.4717 47.3592 44.1019 43.8092 44.1019C38.7892 44.1019 34.5291 40.8419 33.0291 36.3319C32.8191 35.6819 33.2891 35.0218 33.9691 35.0218H45.4191H54.9291H58.6391C59.1591 35.0218 59.5891 34.6319 59.6291 34.1119C59.6691 33.6619 59.689 33.2118 59.689 32.7518C59.689 24.0718 52.7291 17.0219 44.0891 16.8619C35.1191 16.7019 27.7391 24.0719 27.9091 33.0419C28.0691 41.6819 35.1191 48.6417 43.7991 48.6417C49.5191 48.6417 54.5391 45.6119 57.3391 41.0719C57.7491 40.4119 57.2791 39.5519 56.4991 39.5519H53.3891ZM43.8092 21.3917C48.8292 21.3917 53.0891 24.6517 54.5891 29.1617C54.7991 29.8117 54.3291 30.4718 53.6491 30.4718H33.9791C33.2991 30.4718 32.8191 29.8017 33.0391 29.1617C34.5291 24.6417 38.7892 21.3917 43.8092 21.3917Z" fill="url(#paint2_linear_599_12834)"/>
<path d="M41.2404 67.7422V80.4121H38.3804V71.0522L36.0703 71.8921V69.6621L40.9904 67.7422H41.2404Z" fill="#F49D3D"/>
<path d="M52.1825 72.9202V75.2302C52.1825 76.1402 52.0925 76.9304 51.9025 77.6104C51.7125 78.2804 51.4524 78.8403 51.1124 79.2803C50.7724 79.7203 50.3725 80.0503 49.9025 80.2603C49.4425 80.4703 48.9324 80.5803 48.3824 80.5803C47.9424 80.5803 47.5224 80.5101 47.1324 80.3801C46.7424 80.2501 46.3924 80.0302 46.0724 79.7502C45.7624 79.4702 45.4925 79.1202 45.2625 78.6902C45.0325 78.2702 44.8624 77.7702 44.7424 77.1902C44.6224 76.6102 44.5625 75.9602 44.5625 75.2302V72.9202C44.5625 72.0002 44.6524 71.2103 44.8424 70.5403C45.0324 69.8703 45.2925 69.3104 45.6425 68.8704C45.9925 68.4304 46.3924 68.1001 46.8524 67.8901C47.3124 67.6801 47.8224 67.5703 48.3724 67.5703C48.8124 67.5703 49.2224 67.6403 49.6124 67.7703C50.0024 67.9103 50.3525 68.1201 50.6625 68.4001C50.9825 68.6801 51.2524 69.0302 51.4724 69.4602C51.7024 69.8802 51.8724 70.3802 51.9924 70.9602C52.1224 71.5302 52.1825 72.1902 52.1825 72.9202ZM49.3324 75.5903V72.5403C49.3324 72.1303 49.3225 71.7802 49.2925 71.4802C49.2625 71.1802 49.2225 70.9202 49.1625 70.7102C49.1025 70.5002 49.0324 70.3302 48.9624 70.2002C48.8824 70.0702 48.7924 69.9702 48.6924 69.9102C48.5924 69.8502 48.4924 69.8203 48.3824 69.8203C48.2324 69.8203 48.1024 69.8702 47.9924 69.9602C47.8824 70.0502 47.7724 70.2102 47.6924 70.4202C47.6124 70.6302 47.5424 70.9103 47.4924 71.2603C47.4424 71.6103 47.4325 72.0303 47.4325 72.5403V75.5903C47.4325 76.0003 47.4524 76.3602 47.4824 76.6602C47.5124 76.9602 47.5524 77.2202 47.6124 77.4302C47.6724 77.6402 47.7325 77.8102 47.8125 77.9402C47.8925 78.0702 47.9824 78.1702 48.0824 78.2202C48.1824 78.2802 48.2925 78.3103 48.4025 78.3103C48.5425 78.3103 48.6725 78.2602 48.7825 78.1702C48.8925 78.0802 48.9924 77.9202 49.0824 77.7102C49.1724 77.5002 49.2325 77.2204 49.2825 76.8704C49.3325 76.5204 49.3324 76.1003 49.3324 75.5903Z" fill="#F49D3D"/>
<defs>
<linearGradient id="paint0_linear_599_12834" x1="43.816" y1="2.40204" x2="43.816" y2="63.0845" gradientUnits="userSpaceOnUse">
<stop stop-color="white"/>
<stop offset="0.0185" stop-color="#FFFDF7"/>
<stop offset="0.0477" stop-color="#FFF8E0"/>
<stop offset="0.0839" stop-color="#FFF0BB"/>
<stop offset="0.1257" stop-color="#FFE688"/>
<stop offset="0.1676" stop-color="#FFD94D"/>
<stop offset="0.5555" stop-color="#D6824A"/>
<stop offset="0.8573" stop-color="#B84448"/>
<stop offset="1" stop-color="#AD2C47"/>
</linearGradient>
<linearGradient id="paint1_linear_599_12834" x1="43.8157" y1="58.1612" x2="43.8157" y2="7.32564" gradientUnits="userSpaceOnUse">
<stop stop-color="white"/>
<stop offset="0.0185" stop-color="#FFFDF7"/>
<stop offset="0.0477" stop-color="#FFF8E0"/>
<stop offset="0.0839" stop-color="#FFF0BB"/>
<stop offset="0.1257" stop-color="#FFE688"/>
<stop offset="0.1676" stop-color="#FFD94D"/>
<stop offset="0.5555" stop-color="#D6824A"/>
<stop offset="0.8573" stop-color="#B84448"/>
<stop offset="1" stop-color="#AD2C47"/>
</linearGradient>
<linearGradient id="paint2_linear_599_12834" x1="51.7592" y1="46.5085" x2="35.8729" y2="18.9924" gradientUnits="userSpaceOnUse">
<stop stop-color="#FBC926"/>
<stop offset="0.0416" stop-color="#FCCF42"/>
<stop offset="0.1317" stop-color="#FDE08A"/>
<stop offset="0.2627" stop-color="#FFFAFD"/>
<stop offset="0.2654" stop-color="#FFFBFF"/>
<stop offset="0.3313" stop-color="#EFDABF"/>
<stop offset="0.4004" stop-color="#DFBA83"/>
<stop offset="0.4638" stop-color="#D3A253"/>
<stop offset="0.5195" stop-color="#CA9031"/>
<stop offset="0.5653" stop-color="#C5851C"/>
<stop offset="0.5955" stop-color="#C38114"/>
<stop offset="0.8667" stop-color="#FEDD58"/>
<stop offset="0.8708" stop-color="#FFDE59"/>
<stop offset="0.9046" stop-color="#FFE88C"/>
<stop offset="0.9496" stop-color="#FFF4CA"/>
<stop offset="0.9827" stop-color="#FFFCF0"/>
<stop offset="1" stop-color="white"/>
</linearGradient>
</defs>
</svg>
