<svg width="169" height="176" viewBox="0 0 169 176" fill="none" xmlns="http://www.w3.org/2000/svg">
<path d="M84.7053 175.109C80.7953 175.109 76.9453 174.049 73.5753 172.059L54.8753 160.959L54.7953 160.909C52.3354 159.259 50.7553 156.199 50.6253 152.859L46.7953 150.929L46.7153 150.889C43.5153 149.059 41.5253 145.519 41.5253 141.649V103.179L38.4053 101.379C36.8653 100.489 35.4553 99.4087 34.2053 98.1387H28.8953C26.5553 98.1387 24.4653 96.7387 23.7053 94.6587L17.6653 78.1688C17.1553 76.7588 17.2953 75.2588 18.0453 73.9688C16.6453 73.4088 15.5253 72.3088 15.0153 70.8988L9.45526 55.7087C8.94526 54.2987 9.08526 52.7988 9.83526 51.5088C8.43526 50.9488 7.31536 49.8487 6.80536 48.4387L0.765318 31.9487C0.205318 30.4087 0.425294 28.7588 1.36529 27.3988C2.38529 25.9388 4.09526 25.0687 5.95526 25.0687H37.6053C37.8753 24.8887 38.1453 24.7287 38.4153 24.5687L74.6053 3.67883C77.6753 1.90883 81.1653 0.96875 84.7053 0.96875C88.2453 0.96875 91.7454 1.90883 94.8054 3.67883L130.995 24.5687C131.265 24.7187 131.525 24.8887 131.805 25.0687H163.455C165.315 25.0687 167.025 25.9388 168.045 27.3988C168.995 28.7488 169.215 30.4087 168.645 31.9487L162.605 48.4387C162.085 49.8487 160.965 50.9388 159.575 51.5088C160.325 52.7888 160.465 54.2987 159.955 55.7087L154.395 70.8988C153.875 72.3088 152.755 73.3988 151.365 73.9688C152.115 75.2487 152.255 76.7588 151.745 78.1688L145.705 94.6587C144.945 96.7387 142.855 98.1387 140.515 98.1387H135.205C133.945 99.3987 132.535 100.489 130.995 101.379L127.875 103.179V141.649C127.875 145.529 125.885 149.069 122.685 150.889L122.605 150.929L118.775 152.859C118.635 156.199 117.065 159.259 114.605 160.909L114.525 160.959L95.8253 172.059C92.4653 174.049 88.6153 175.109 84.7053 175.109Z" fill="white"/>
<path d="M154.761 52.2188H14.6508C13.2408 52.2188 12.2308 53.3788 12.6508 54.5288L18.2107 69.7188C18.4807 70.4688 19.3007 70.9688 20.2107 70.9688H149.211C150.131 70.9688 150.941 70.4587 151.211 69.7188L156.771 54.5288C157.181 53.3788 156.171 52.2188 154.761 52.2188Z" fill="#6D151D"/>
<path d="M159.423 47.2688L165.463 30.7788C165.883 29.6288 164.873 28.4688 163.463 28.4688H5.96326C4.55326 28.4688 3.54326 29.6288 3.96326 30.7788L10.0033 47.2688C10.2733 48.0188 11.0933 48.5188 12.0033 48.5188H157.433C158.333 48.5188 159.153 48.0088 159.423 47.2688Z" fill="#6D151D"/>
<path d="M20.8505 76.9818L26.8906 93.4718C27.1606 94.2218 27.9806 94.7218 28.8906 94.7218H140.501C141.421 94.7218 142.231 94.2118 142.501 93.4718L148.541 76.9818C148.961 75.8318 147.951 74.6719 146.541 74.6719H22.8605C21.4405 74.6719 20.4405 75.8318 20.8505 76.9818Z" fill="#6D151D"/>
<path d="M118.048 43.6094H51.3676C47.8176 43.6094 44.9375 46.7793 44.9375 50.6993V141.639C44.9375 144.289 46.2776 146.709 48.4076 147.929L72.5376 160.109C80.0376 163.899 89.3776 163.899 96.8776 160.109L121.008 147.929C123.138 146.709 124.478 144.289 124.478 141.639V50.6993C124.478 46.7793 121.598 43.6094 118.048 43.6094Z" fill="#6D151D"/>
<path d="M110.433 63.3906H58.9834C56.2434 63.3906 54.0234 66.2706 54.0234 69.8206V152.371C54.0234 154.771 55.0534 156.981 56.7034 158.081L75.3234 169.13C81.1134 172.57 88.3134 172.57 94.1034 169.13L112.723 158.081C114.373 156.971 115.403 154.771 115.403 152.371V69.8206C115.393 66.2706 113.173 63.3906 110.433 63.3906Z" fill="#D83232"/>
<path d="M137.705 83.8573V42.0671C137.705 36.0571 134.505 30.5072 129.295 27.5072L93.1053 6.61719C87.9053 3.61719 81.4954 3.61719 76.2954 6.61719L40.1053 27.5072C34.9053 30.5072 31.6953 36.0571 31.6953 42.0671V83.8573C31.6953 89.8673 34.8953 95.4171 40.1053 98.4171L76.2954 119.307C81.4954 122.307 87.9053 122.307 93.1053 119.307L129.295 98.4171C134.495 95.4071 137.705 89.8573 137.705 83.8573Z" fill="url(#paint0_linear_599_15021)"/>
<path d="M129.105 45.4571V80.4671C129.105 85.4971 126.425 90.1471 122.065 92.6671L91.7446 110.167C87.3846 112.687 82.0147 112.687 77.6647 110.167L47.3446 92.6671C42.9846 90.1471 40.3047 85.5071 40.3047 80.4671V45.4571C40.3047 40.4271 42.9846 35.7772 47.3446 33.2572L77.6647 15.7572C82.0247 13.2372 87.3946 13.2372 91.7446 15.7572L122.065 33.2572C126.415 35.7772 129.105 40.4271 129.105 45.4571Z" fill="url(#paint1_linear_599_15021)"/>
<path d="M124.472 47.2797V78.6396C124.472 83.1497 122.072 87.3097 118.162 89.5597L91.0018 105.24C87.1018 107.49 82.2918 107.49 78.3918 105.24L51.2318 89.5597C47.3318 87.3097 44.9219 83.1396 44.9219 78.6396V47.2797C44.9219 42.7697 47.3218 38.6096 51.2318 36.3596L78.3918 20.6797C82.2918 18.4297 87.1018 18.4297 91.0018 20.6797L118.162 36.3596C122.072 38.6096 124.472 42.7797 124.472 47.2797Z" fill="#251F3A"/>
<path d="M103.209 76.0949C102.639 76.0949 102.089 76.345 101.729 76.795C97.7087 81.735 91.5787 84.8849 84.7187 84.8849C75.0187 84.8849 66.7987 78.595 63.8987 69.865C63.4887 68.615 64.4087 67.3249 65.7187 67.3249H87.8387H106.209H113.379C114.379 67.3249 115.209 66.5649 115.289 65.5749C115.359 64.7049 115.399 63.8349 115.399 62.9449C115.399 46.1849 101.969 32.565 85.2787 32.255C67.9487 31.945 53.7087 46.175 54.0287 63.505C54.3287 80.195 67.9587 93.6248 84.7187 93.6248C95.7787 93.6248 105.459 87.775 110.869 79.015C111.659 77.735 110.749 76.0749 109.239 76.0749H103.209V76.0949ZM84.7087 41.025C94.4087 41.025 102.629 47.315 105.529 56.045C105.939 57.295 105.019 58.5849 103.709 58.5849H65.7187C64.4087 58.5849 63.4787 57.295 63.8987 56.045C66.7887 47.315 75.0087 41.025 84.7087 41.025Z" fill="white"/>
<path d="M92.0166 130.766V133.776L84.6366 155.086H78.8466L86.2566 135.116H76.9766V130.776H92.0166V130.766Z" fill="white"/>
<defs>
<linearGradient id="paint0_linear_599_15021" x1="84.705" y1="121.558" x2="84.705" y2="4.36288" gradientUnits="userSpaceOnUse">
<stop stop-color="#36002B"/>
<stop offset="1" stop-color="#FF0037"/>
</linearGradient>
<linearGradient id="paint1_linear_599_15021" x1="84.7043" y1="13.8713" x2="84.7043" y2="112.049" gradientUnits="userSpaceOnUse">
<stop stop-color="#36002B"/>
<stop offset="1" stop-color="#FF0037"/>
</linearGradient>
</defs>
</svg>
