<svg width="88" height="91" viewBox="0 0 88 91" fill="none" xmlns="http://www.w3.org/2000/svg">
<path d="M44.0885 90.8108C42.0585 90.8108 40.0685 90.2607 38.3285 89.2307L28.6485 83.4807L28.6084 83.4507C27.3284 82.5907 26.5185 81.0108 26.4485 79.2808L24.4684 78.2808L24.4284 78.2607C22.7684 77.3107 21.7384 75.4807 21.7384 73.4707V53.5508L20.1185 52.6208C17.7885 51.2709 16.0985 49.1208 15.3385 46.5908H10.7785C9.47848 46.5908 8.33848 45.7507 7.95848 44.5107L5.14848 35.4607C4.86848 34.5707 5.03848 33.5808 5.58848 32.8308C5.60848 32.8108 5.62848 32.7807 5.64848 32.7607C4.73848 32.4807 3.99848 31.7708 3.70848 30.8108L0.648479 20.9707C0.368479 20.0807 0.538482 19.0908 1.08848 18.3408C1.63848 17.5908 2.52843 17.1406 3.46843 17.1406H16.0585C16.9785 15.3606 18.3885 13.8708 20.1285 12.8608L38.8685 2.04077C40.4585 1.12077 42.2684 0.640625 44.0984 0.640625C45.9284 0.640625 47.7385 1.12077 49.3285 2.04077L68.0685 12.8608C69.8085 13.8608 71.2185 15.3606 72.1385 17.1406H84.7284C85.6684 17.1406 86.5584 17.5908 87.1084 18.3408C87.6584 19.0908 87.8284 20.0807 87.5484 20.9707L84.4884 30.8108C84.1884 31.7608 83.4584 32.4807 82.5484 32.7607C82.5684 32.7807 82.5884 32.8108 82.6084 32.8308C83.1584 33.5808 83.3284 34.5707 83.0484 35.4607L80.2384 44.5107C79.8484 45.7507 78.7184 46.5908 77.4184 46.5908H72.8584C72.0984 49.1308 70.4085 51.2709 68.0785 52.6208L66.4585 53.5508V73.4707C66.4585 75.4807 65.4285 77.3107 63.7685 78.2607L63.7284 78.2808L61.7485 79.2808C61.6785 81.0108 60.8585 82.5907 59.5885 83.4507L59.5484 83.4807L49.8685 89.2307C48.1085 90.2607 46.1185 90.8108 44.0885 90.8108Z" fill="white"/>
<path d="M80.2187 33.3906H7.96874C7.15874 33.3906 6.58879 34.1707 6.82879 34.9407L9.63879 43.9907C9.79879 44.4907 10.2588 44.8308 10.7788 44.8308H77.4087C77.9287 44.8308 78.3988 44.4907 78.5488 43.9907L81.3588 34.9407C81.5988 34.1707 81.0287 33.3906 80.2187 33.3906Z" fill="#75133B"/>
<path d="M82.8088 30.2886L85.8688 20.4485C86.1088 19.6785 85.5288 18.8984 84.7288 18.8984H3.46874C2.65874 18.8984 2.08879 19.6785 2.32879 20.4485L5.38879 30.2886C5.54879 30.7886 6.0088 31.1284 6.5288 31.1284H81.6688C82.1888 31.1384 82.6488 30.7886 82.8088 30.2886Z" fill="#75133B"/>
<path d="M61.36 22.7188H26.83C24.99 22.7188 23.5 24.3587 23.5 26.3887V73.4788C23.5 74.8488 24.19 76.1088 25.3 76.7388L37.79 83.0388C41.67 84.9988 46.51 84.9988 50.39 83.0388L62.88 76.7388C63.98 76.1088 64.68 74.8488 64.68 73.4788V26.3887C64.69 24.3587 63.2 22.7188 61.36 22.7188Z" fill="#75133B"/>
<path d="M57.4053 32.9609H30.7653C29.3453 32.9609 28.1953 34.451 28.1953 36.291V79.041C28.1953 80.281 28.7353 81.421 29.5853 82.001L39.2253 87.7209C42.2253 89.5009 45.9553 89.5009 48.9553 87.7209L58.5953 82.001C59.4453 81.431 59.9853 80.291 59.9853 79.041V36.291C59.9753 34.451 58.8253 32.9609 57.4053 32.9609Z" fill="#C9357C"/>
<path d="M71.5384 43.5609V21.9208C71.5384 18.8108 69.8784 15.9408 67.1884 14.3808L48.4484 3.56094C45.7584 2.01094 42.4384 2.01094 39.7484 3.56094L20.9984 14.3908C18.3084 15.9408 16.6484 18.8208 16.6484 21.9308V43.5709C16.6484 46.6809 18.3084 49.551 20.9984 51.111L39.7384 61.9308C42.4284 63.4808 45.7484 63.4808 48.4384 61.9308L67.1784 51.111C69.8784 49.541 71.5384 46.6709 71.5384 43.5609Z" fill="url(#paint0_linear_599_12801)"/>
<path d="M67.0759 23.6808V41.8109C67.0759 44.4209 65.6859 46.821 63.4259 48.121L47.7259 57.1808C45.4659 58.4808 42.6859 58.4808 40.4359 57.1808L24.7359 48.121C22.4759 46.821 21.0859 44.4109 21.0859 41.8109V23.6808C21.0859 21.0808 22.4759 18.671 24.7359 17.371L40.4359 8.31094C42.6959 7.01094 45.4759 7.01094 47.7259 8.31094L63.4259 17.371C65.6859 18.671 67.0759 21.0708 67.0759 23.6808Z" fill="url(#paint1_linear_599_12801)"/>
<path d="M64.69 24.6185V40.8585C64.69 43.1885 63.45 45.3484 61.42 46.5184L47.36 54.6382C45.34 55.8082 42.85 55.8082 40.83 54.6382L26.77 46.5184C24.75 45.3484 23.5 43.1985 23.5 40.8585V24.6185C23.5 22.2885 24.74 20.1283 26.77 18.9583L40.83 10.8384C42.85 9.66844 45.34 9.66844 47.36 10.8384L61.42 18.9583C63.44 20.1283 64.69 22.2885 64.69 24.6185Z" fill="#251F3A"/>
<path d="M53.6704 39.5519C53.3704 39.5519 53.0904 39.6817 52.9004 39.9117C50.8204 42.4717 47.6404 44.1019 44.0904 44.1019C39.0704 44.1019 34.8104 40.8419 33.3104 36.3319C33.1004 35.6819 33.5704 35.0218 34.2504 35.0218H45.7004H55.2104H58.9204C59.4404 35.0218 59.8703 34.6319 59.9104 34.1119C59.9504 33.6619 59.9703 33.2118 59.9703 32.7518C59.9703 24.0718 53.0104 17.0219 44.3704 16.8619C35.4004 16.7019 28.0204 24.0719 28.1904 33.0419C28.3504 41.6819 35.4004 48.6417 44.0804 48.6417C49.8004 48.6417 54.8204 45.6119 57.6204 41.0719C58.0304 40.4119 57.5604 39.5519 56.7804 39.5519H53.6704ZM44.0904 21.3917C49.1104 21.3917 53.3704 24.6517 54.8704 29.1617C55.0804 29.8117 54.6104 30.4718 53.9304 30.4718H34.2604C33.5804 30.4718 33.1004 29.8017 33.3204 29.1617C34.8104 24.6417 39.0704 21.3917 44.0904 21.3917Z" fill="white"/>
<path d="M45.9512 67.6719H46.3912V69.9619H46.2612C45.8212 69.9619 45.4113 70.0419 45.0312 70.1919C44.6512 70.3519 44.3212 70.5818 44.0312 70.8918C43.7413 71.2018 43.5212 71.602 43.3612 72.082C43.2012 72.562 43.1312 73.122 43.1312 73.772V75.9719C43.1312 76.3719 43.1512 76.722 43.1912 77.022C43.2312 77.322 43.3012 77.572 43.3812 77.762C43.4612 77.962 43.5712 78.1019 43.7112 78.2019C43.8512 78.3019 44.0112 78.3521 44.1912 78.3521C44.3412 78.3521 44.4812 78.3019 44.6112 78.1919C44.7412 78.0919 44.8512 77.942 44.9512 77.752C45.0512 77.562 45.1212 77.342 45.1712 77.082C45.2212 76.832 45.2512 76.552 45.2512 76.252C45.2512 75.932 45.2212 75.6418 45.1612 75.3818C45.1012 75.1218 45.0212 74.9019 44.9212 74.7219C44.8212 74.5419 44.7012 74.402 44.5612 74.302C44.4212 74.202 44.2712 74.1619 44.1112 74.1619C43.8412 74.1619 43.6212 74.2419 43.4512 74.4119C43.2812 74.5719 43.1612 74.782 43.0812 75.042C43.0012 75.292 42.9712 75.552 42.9712 75.812L42.3312 75.1021C42.3212 74.7521 42.3712 74.402 42.4812 74.032C42.5912 73.662 42.7612 73.322 42.9912 73.002C43.2212 72.682 43.5112 72.4319 43.8712 72.2319C44.2212 72.0319 44.6412 71.9419 45.1212 71.9419C45.6012 71.9419 46.0312 72.052 46.4012 72.272C46.7712 72.492 47.0812 72.7919 47.3312 73.1919C47.5812 73.5819 47.7812 74.042 47.9112 74.562C48.0412 75.082 48.1012 75.652 48.1012 76.262C48.1012 76.882 48.0012 77.4519 47.8112 77.9819C47.6212 78.5119 47.3612 78.9721 47.0212 79.3621C46.6812 79.7521 46.2812 80.062 45.8112 80.282C45.3412 80.502 44.8312 80.6121 44.2712 80.6121C43.7012 80.6121 43.1712 80.502 42.6912 80.272C42.2112 80.042 41.7912 79.712 41.4212 79.282C41.0612 78.842 40.7812 78.3119 40.5812 77.6819C40.3812 77.0519 40.2812 76.342 40.2812 75.542V74.4819C40.2812 73.4019 40.4312 72.4421 40.7312 71.6021C41.0312 70.7621 41.4512 70.0519 41.9812 69.4619C42.5112 68.8719 43.1112 68.4321 43.8012 68.1221C44.4812 67.8221 45.2012 67.6719 45.9512 67.6719Z" fill="white"/>
<defs>
<linearGradient id="paint0_linear_599_12801" x1="44.0915" y1="63.0845" x2="44.0915" y2="2.40204" gradientUnits="userSpaceOnUse">
<stop stop-color="#310032"/>
<stop offset="1" stop-color="#FF5A9B"/>
</linearGradient>
<linearGradient id="paint1_linear_599_12801" x1="44.0891" y1="7.32564" x2="44.0891" y2="58.1612" gradientUnits="userSpaceOnUse">
<stop stop-color="#310032"/>
<stop offset="1" stop-color="#FF5A9B"/>
</linearGradient>
</defs>
</svg>
