<svg width="170" height="176" viewBox="0 0 170 176" fill="none" xmlns="http://www.w3.org/2000/svg">
<path d="M84.7103 175.238C80.7903 175.238 76.9403 174.178 73.5703 172.178L54.8403 161.058L54.7603 161.008C52.2903 159.348 50.7203 156.298 50.5803 152.948L46.7503 151.018L46.6703 150.978C43.4703 149.148 41.4803 145.598 41.4803 141.718V103.188L38.3503 101.378C36.8103 100.488 35.4003 99.3982 34.1403 98.1382H28.8303C26.4803 98.1382 24.3903 96.7382 23.6303 94.6482L17.5803 78.1282C17.0603 76.7182 17.2003 75.2082 17.9603 73.9282C16.5603 73.3682 15.4403 72.2682 14.9203 70.8582L9.35028 55.6482C8.83028 54.2382 8.98028 52.7281 9.73028 51.4481C8.33028 50.8881 7.21024 49.7882 6.69024 48.3782L0.640318 31.8582C0.0803179 30.3182 0.300294 28.6582 1.24029 27.2982C2.26029 25.8382 3.98027 24.9681 5.84027 24.9681H37.5403C37.8103 24.7881 38.0803 24.6281 38.3503 24.4681L74.6003 3.53821C77.6703 1.76821 81.1703 0.828125 84.7203 0.828125C88.2703 0.828125 91.7703 1.76821 94.8403 3.53821L131.08 24.4681C131.35 24.6181 131.62 24.7881 131.89 24.9681H163.59C165.45 24.9681 167.17 25.8382 168.19 27.2982C169.14 28.6582 169.36 30.3182 168.79 31.8582L162.74 48.3782C162.22 49.7882 161.1 50.8881 159.7 51.4481C160.45 52.7281 160.59 54.2382 160.08 55.6482L154.51 70.8582C153.99 72.2682 152.87 73.3682 151.47 73.9282C152.22 75.2082 152.36 76.7182 151.85 78.1282L145.8 94.6482C145.04 96.7382 142.95 98.1382 140.6 98.1382H135.29C134.03 99.4082 132.62 100.488 131.08 101.378L127.95 103.188V141.718C127.95 145.598 125.96 149.148 122.76 150.978L122.68 151.018L118.85 152.948C118.71 156.298 117.14 159.358 114.67 161.008L114.59 161.058L95.8603 172.178C92.4803 174.188 88.6303 175.238 84.7103 175.238Z" fill="white"/>
<path d="M154.881 52.1562H14.5514C13.1314 52.1562 12.1213 53.3262 12.5413 54.4662L18.1113 69.6763C18.3813 70.4263 19.2013 70.9263 20.1213 70.9263H149.321C150.241 70.9263 151.051 70.4163 151.331 69.6763L156.901 54.4662C157.301 53.3262 156.291 52.1562 154.881 52.1562Z" fill="#8E4D00"/>
<path d="M159.551 47.1971L165.6 30.6772C166.02 29.5272 165.01 28.3672 163.59 28.3672H5.84042C4.42042 28.3672 3.41041 29.5372 3.83041 30.6772L9.88046 47.1971C10.1505 47.9471 10.9705 48.4471 11.8905 48.4471H157.551C158.461 48.4571 159.271 47.9471 159.551 47.1971Z" fill="#8E4D00"/>
<path d="M20.7679 76.9584L26.8178 93.4784C27.0878 94.2284 27.9078 94.7284 28.8278 94.7284H140.608C141.528 94.7284 142.338 94.2184 142.618 93.4784L148.668 76.9584C149.088 75.8084 148.078 74.6484 146.658 74.6484H22.7879C21.3579 74.6484 20.3479 75.8084 20.7679 76.9584Z" fill="#8E4D00"/>
<path d="M118.103 43.5391H51.3228C47.7628 43.5391 44.8828 46.719 44.8828 50.639V141.719C44.8828 144.369 46.2228 146.799 48.3628 148.019L72.5328 160.209C80.0428 163.999 89.3928 163.999 96.9128 160.209L121.083 148.019C123.223 146.799 124.563 144.369 124.563 141.719V50.639C124.543 46.719 121.663 43.5391 118.103 43.5391Z" fill="#8E4D00"/>
<path d="M110.477 63.3516H58.9465C56.1965 63.3516 53.9766 66.2316 53.9766 69.7916V152.472C53.9766 154.882 55.0166 157.082 56.6566 158.192L75.3066 169.262C81.1066 172.702 88.3166 172.702 94.1166 169.262L112.767 158.192C114.417 157.082 115.447 154.882 115.447 152.472V69.7916C115.447 66.2316 113.217 63.3516 110.477 63.3516Z" fill="#D69034"/>
<path d="M137.793 83.8519V42.0019C137.793 35.9819 134.583 30.4319 129.373 27.4219L93.1328 6.49187C87.9228 3.48187 81.5028 3.48187 76.2928 6.49187L40.0529 27.4219C34.8429 30.4319 31.6328 35.9919 31.6328 42.0019V83.8519C31.6328 89.8719 34.8429 95.4219 40.0529 98.4319L76.2928 119.362C81.5028 122.372 87.9228 122.372 93.1328 119.362L129.373 98.4319C134.583 95.4219 137.793 89.8619 137.793 83.8519Z" fill="url(#paint0_linear_599_14256)"/>
<path d="M129.178 45.39V80.4499C129.178 85.4899 126.488 90.15 122.128 92.67L91.7678 110.2C87.4078 112.72 82.0278 112.72 77.6678 110.2L47.3079 92.67C42.9479 90.15 40.2578 85.4899 40.2578 80.4499V45.39C40.2578 40.35 42.9479 35.69 47.3079 33.17L77.6678 15.64C82.0278 13.12 87.4078 13.12 91.7678 15.64L122.128 33.17C126.488 35.7 129.178 40.35 129.178 45.39Z" fill="url(#paint1_linear_599_14256)"/>
<path d="M124.537 47.2178V78.6279C124.537 83.1379 122.127 87.3078 118.217 89.5678L91.0172 105.268C87.1072 107.528 82.2872 107.528 78.3872 105.268L51.1871 89.5678C47.2771 87.3078 44.8672 83.1379 44.8672 78.6279V47.2178C44.8672 42.7078 47.2771 38.5279 51.1871 36.2779L78.3872 20.5778C82.2972 18.3178 87.1172 18.3178 91.0172 20.5778L118.217 36.2779C122.127 38.5379 124.537 42.7078 124.537 47.2178Z" fill="#251F3A"/>
<path d="M103.232 76.075C102.662 76.075 102.112 76.3251 101.752 76.7751C97.7219 81.7251 91.5918 84.885 84.7118 84.885C75.0018 84.885 66.7619 78.585 63.8618 69.845C63.4518 68.595 64.3719 67.3051 65.6819 67.3051H87.8418H106.242H113.422C114.422 67.3051 115.252 66.5451 115.342 65.5451C115.412 64.6751 115.452 63.8051 115.452 62.9151C115.452 46.1251 101.992 32.485 85.2819 32.185C67.9219 31.865 53.6618 46.125 53.9818 63.485C54.2818 80.195 67.9318 93.6551 84.7118 93.6551C95.7818 93.6551 105.492 87.795 110.902 79.015C111.692 77.725 110.782 76.075 109.272 76.075H103.232ZM84.7118 40.955C94.4218 40.955 102.662 47.255 105.562 55.995C105.972 57.245 105.052 58.5351 103.742 58.5351H65.6918C64.3718 58.5351 63.4519 57.245 63.8719 55.995C66.7619 47.255 75.0018 40.955 84.7118 40.955Z" fill="white"/>
<path d="M80.5472 150.999H80.7972C81.6372 150.999 82.3972 150.879 83.0872 150.629C83.7772 150.379 84.3672 149.999 84.8672 149.479C85.3672 148.959 85.7472 148.289 86.0272 147.459C86.3072 146.629 86.4471 145.619 86.4471 144.439V139.409C86.4471 138.629 86.4071 137.949 86.3171 137.379C86.2271 136.809 86.1071 136.329 85.9471 135.949C85.7871 135.569 85.5972 135.289 85.3672 135.109C85.1372 134.929 84.8872 134.829 84.6272 134.829C84.3272 134.829 84.0672 134.959 83.8572 135.209C83.6472 135.459 83.4671 135.799 83.3171 136.209C83.1671 136.629 83.0472 137.099 82.9772 137.609C82.8972 138.129 82.8572 138.649 82.8572 139.169C82.8572 139.759 82.8972 140.309 82.9872 140.819C83.0672 141.329 83.1972 141.769 83.3672 142.139C83.5372 142.509 83.7472 142.809 84.0072 143.019C84.2672 143.229 84.5771 143.339 84.9371 143.339C85.2471 143.339 85.5172 143.249 85.7472 143.059C85.9772 142.879 86.1671 142.629 86.3171 142.319C86.4671 142.009 86.5772 141.679 86.6572 141.319C86.7372 140.959 86.7672 140.609 86.7572 140.269L88.3171 141.559C88.3171 142.269 88.1871 142.979 87.9371 143.669C87.6771 144.359 87.3172 144.989 86.8572 145.549C86.3972 146.109 85.8672 146.559 85.2772 146.899C84.6872 147.239 84.0672 147.399 83.4072 147.399C82.4672 147.399 81.6272 147.209 80.8872 146.809C80.1472 146.419 79.5172 145.859 78.9872 145.139C78.4672 144.419 78.0572 143.549 77.7872 142.539C77.5172 141.529 77.3672 140.409 77.3672 139.169C77.3672 137.979 77.5472 136.859 77.9072 135.809C78.2672 134.759 78.7672 133.839 79.4172 133.039C80.0672 132.239 80.8472 131.619 81.7372 131.159C82.6372 130.699 83.6171 130.469 84.6871 130.469C85.6571 130.469 86.5872 130.689 87.4672 131.129C88.3472 131.569 89.1272 132.209 89.7972 133.059C90.4672 133.909 91.0072 134.949 91.3972 136.189C91.7872 137.429 91.9772 138.839 91.9772 140.439V142.379C91.9772 144.109 91.7872 145.669 91.4072 147.059C91.0272 148.449 90.4972 149.679 89.7972 150.729C89.1072 151.779 88.2972 152.659 87.3772 153.369C86.4572 154.079 85.4472 154.609 84.3472 154.969C83.2472 155.329 82.0972 155.509 80.8972 155.509H80.5671L80.5472 150.999Z" fill="white"/>
<defs>
<linearGradient id="paint0_linear_599_14256" x1="84.7125" y1="121.614" x2="84.7125" y2="4.23708" gradientUnits="userSpaceOnUse">
<stop stop-color="#480F1A"/>
<stop offset="1" stop-color="#FFC549"/>
</linearGradient>
<linearGradient id="paint1_linear_599_14256" x1="84.7075" y1="13.7584" x2="84.7075" y2="112.089" gradientUnits="userSpaceOnUse">
<stop stop-color="#480F1A"/>
<stop offset="1" stop-color="#FFC549"/>
</linearGradient>
</defs>
</svg>
