<svg width="88" height="91" viewBox="0 0 88 91" fill="none" xmlns="http://www.w3.org/2000/svg">
<path d="M44.0293 90.8108C41.9993 90.8108 40.0093 90.2607 38.2693 89.2307L28.5892 83.4807L28.5493 83.4507C27.2693 82.5907 26.4593 81.0108 26.3893 79.2808L24.4093 78.2808L24.3692 78.2607C22.7092 77.3107 21.6793 75.4807 21.6793 73.4707V53.5508L20.0593 52.6208C19.2593 52.1609 18.5293 51.6007 17.8793 50.9407H15.1293C13.9193 50.9407 12.8392 50.2206 12.4392 49.1406L9.30931 40.6008C9.03931 39.8708 9.11925 39.0907 9.49925 38.4307C8.77925 38.1407 8.1993 37.5708 7.9293 36.8408L5.0493 28.9807C4.7793 28.2507 4.85925 27.4708 5.24925 26.8108C4.52925 26.5208 3.9493 25.9507 3.6793 25.2207L0.549298 16.6807C0.259298 15.8807 0.369234 15.0308 0.859234 14.3208C1.38923 13.5708 2.27924 13.1208 3.23924 13.1208H19.6293C19.7693 13.0308 19.9093 12.9408 20.0493 12.8608L38.7893 2.04077C40.3793 1.12077 42.1893 0.640625 44.0193 0.640625C45.8493 0.640625 47.6592 1.12077 49.2492 2.04077L67.9892 12.8608C68.1292 12.9408 68.2693 13.0308 68.4093 13.1208H84.7993C85.7593 13.1208 86.6493 13.5708 87.1793 14.3208C87.6693 15.0208 87.7792 15.8807 87.4892 16.6807L84.3592 25.2207C84.0892 25.9507 83.5093 26.5208 82.7893 26.8108C83.1793 27.4708 83.2492 28.2507 82.9792 28.9807L80.0992 36.8408C79.8292 37.5708 79.2493 38.1407 78.5293 38.4307C78.9193 39.0907 78.9892 39.8708 78.7192 40.6008L75.5892 49.1406C75.1992 50.2206 74.1093 50.9407 72.8993 50.9407H70.1493C69.4993 51.5907 68.7692 52.1609 67.9692 52.6208L66.3492 53.5508V73.4707C66.3492 75.4807 65.3193 77.3107 63.6593 78.2607L63.6192 78.2808L61.6393 79.2808C61.5693 81.0108 60.7492 82.5907 59.4792 83.4507L59.4392 83.4807L49.7593 89.2307C48.0493 90.2607 46.0593 90.8108 44.0293 90.8108Z" fill="white"/>
<path d="M80.3123 27.1797H7.7622C7.0322 27.1797 6.50216 27.7796 6.72216 28.3796L9.60217 36.2397C9.74217 36.6297 10.1622 36.8896 10.6422 36.8896H77.4323C77.9123 36.8896 78.3322 36.6297 78.4722 36.2397L81.3522 28.3796C81.5622 27.7796 81.0423 27.1797 80.3123 27.1797Z" fill="#7A2511"/>
<path d="M82.7222 24.6072L85.8522 16.0671C86.0722 15.4771 85.5423 14.8672 84.8123 14.8672H3.2622C2.5322 14.8672 2.00216 15.4671 2.22216 16.0671L5.35217 24.6072C5.49217 24.9972 5.91221 25.2571 6.39221 25.2571H81.6921C82.1621 25.2571 82.5822 24.9972 82.7222 24.6072Z" fill="#7A2511"/>
<path d="M10.9688 39.9968L14.0988 48.5369C14.2388 48.9269 14.6589 49.1868 15.1389 49.1868H72.9289C73.4089 49.1868 73.8288 48.9269 73.9688 48.5369L77.0988 39.9968C77.3188 39.4068 76.7889 38.7969 76.0589 38.7969H12.0189C11.2789 38.7969 10.7588 39.4068 10.9688 39.9968Z" fill="#7A2511"/>
<path d="M61.2897 22.7188H26.7596C24.9196 22.7188 23.4297 24.3587 23.4297 26.3887V73.4788C23.4297 74.8488 24.1196 76.1088 25.2296 76.7388L37.7196 83.0388C41.5996 84.9988 46.4396 84.9988 50.3196 83.0388L62.8097 76.7388C63.9097 76.1088 64.6096 74.8488 64.6096 73.4788V26.3887C64.6196 24.3587 63.1297 22.7188 61.2897 22.7188Z" fill="#7A2511"/>
<path d="M57.3506 32.9609H30.7106C29.2906 32.9609 28.1406 34.451 28.1406 36.291V79.041C28.1406 80.281 28.6806 81.421 29.5306 82.001L39.1707 87.7209C42.1707 89.5009 45.9006 89.5009 48.9006 87.7209L58.5406 82.001C59.3906 81.431 59.9307 80.291 59.9307 79.041V36.291C59.9207 34.451 58.7706 32.9609 57.3506 32.9609Z" fill="#D85123"/>
<path d="M71.4659 43.5609V21.9208C71.4659 18.8108 69.806 15.9408 67.116 14.3808L48.376 3.56094C45.686 2.01094 42.366 2.01094 39.676 3.56094L20.9359 14.3808C18.2459 15.9308 16.5859 18.8108 16.5859 21.9208V43.5609C16.5859 46.6709 18.2459 49.541 20.9359 51.101L39.676 61.9208C42.366 63.4708 45.686 63.4708 48.376 61.9208L67.116 51.101C69.806 49.541 71.4659 46.6709 71.4659 43.5609Z" fill="url(#paint0_linear_599_12817)"/>
<path d="M67.0212 23.6808V41.8109C67.0212 44.4209 65.6312 46.821 63.3712 48.121L47.6713 57.1808C45.4113 58.4808 42.6312 58.4808 40.3812 57.1808L24.6813 48.121C22.4213 46.821 21.0312 44.4109 21.0312 41.8109V23.6808C21.0312 21.0808 22.4213 18.671 24.6813 17.371L40.3812 8.31094C42.6412 7.01094 45.4213 7.01094 47.6713 8.31094L63.3712 17.371C65.6312 18.671 67.0212 21.0708 67.0212 23.6808Z" fill="url(#paint1_linear_599_12817)"/>
<path d="M64.6196 24.6185V40.8585C64.6196 43.1885 63.3796 45.3484 61.3496 46.5184L47.2897 54.6382C45.2697 55.8082 42.7796 55.8082 40.7596 54.6382L26.6996 46.5184C24.6796 45.3484 23.4297 43.1985 23.4297 40.8585V24.6185C23.4297 22.2885 24.6696 20.1283 26.6996 18.9583L40.7596 10.8384C42.7796 9.66844 45.2697 9.66844 47.2897 10.8384L61.3496 18.9583C63.3796 20.1283 64.6196 22.2885 64.6196 24.6185Z" fill="#251F3A"/>
<path d="M53.6079 39.5519C53.3079 39.5519 53.0278 39.6817 52.8378 39.9117C50.7578 42.4717 47.5779 44.1019 44.0279 44.1019C39.0079 44.1019 34.7479 40.8419 33.2479 36.3319C33.0379 35.6819 33.5078 35.0218 34.1878 35.0218H45.6379H55.1479H58.8579C59.3779 35.0218 59.8078 34.6319 59.8479 34.1119C59.8879 33.6619 59.9079 33.2118 59.9079 32.7518C59.9079 24.0718 52.9479 17.0219 44.3079 16.8619C35.3379 16.7019 27.9579 24.0719 28.1279 33.0419C28.2879 41.6819 35.3379 48.6417 44.0179 48.6417C49.7379 48.6417 54.7579 45.6119 57.5579 41.0719C57.9679 40.4119 57.4978 39.5519 56.7178 39.5519H53.6079ZM44.0279 21.3917C49.0479 21.3917 53.3079 24.6517 54.8079 29.1617C55.0179 29.8117 54.5479 30.4718 53.8679 30.4718H34.1978C33.5178 30.4718 33.0379 29.8017 33.2579 29.1617C34.7479 24.6417 39.0079 21.3917 44.0279 21.3917Z" fill="white"/>
<path d="M47.7712 76.9697C47.7712 77.7697 47.6113 78.4397 47.2913 78.9797C46.9713 79.5197 46.5312 79.9297 45.9712 80.1997C45.4112 80.4697 44.7613 80.6099 44.0312 80.6099C43.3212 80.6099 42.6712 80.4697 42.1112 80.1997C41.5512 79.9297 41.0912 79.5197 40.7712 78.9797C40.4412 78.4397 40.2812 77.7697 40.2812 76.9697C40.2812 76.4197 40.3712 75.9298 40.5712 75.4998C40.7612 75.0598 41.0312 74.6896 41.3712 74.3896C41.7112 74.0796 42.1113 73.8497 42.5613 73.6897C43.0213 73.5297 43.5113 73.4497 44.0413 73.4497C44.7613 73.4497 45.4012 73.5896 45.9712 73.8796C46.5312 74.1696 46.9813 74.5698 47.3013 75.0898C47.6213 75.6098 47.7712 76.2397 47.7712 76.9697ZM47.5712 71.2197C47.5712 71.8797 47.4212 72.4497 47.1212 72.9497C46.8212 73.4497 46.4112 73.8299 45.8812 74.0999C45.3512 74.3699 44.7413 74.5098 44.0413 74.5098C43.3513 74.5098 42.7312 74.3699 42.2012 74.0999C41.6712 73.8299 41.2412 73.4397 40.9412 72.9497C40.6412 72.4597 40.4912 71.8797 40.4912 71.2197C40.4912 70.4497 40.6412 69.7998 40.9412 69.2798C41.2412 68.7598 41.6612 68.3598 42.2012 68.0898C42.7412 67.8198 43.3512 67.6797 44.0312 67.6797C44.7312 67.6797 45.3412 67.8198 45.8712 68.0898C46.4012 68.3598 46.8212 68.7598 47.1212 69.2798C47.4212 69.7998 47.5712 70.4397 47.5712 71.2197ZM44.9313 76.7397C44.9313 76.3897 44.8912 76.0999 44.8212 75.8599C44.7512 75.6199 44.6512 75.4398 44.5112 75.3098C44.3812 75.1798 44.2213 75.1199 44.0312 75.1199C43.8512 75.1199 43.6913 75.1798 43.5513 75.3098C43.4113 75.4398 43.3012 75.6199 43.2312 75.8599C43.1612 76.0999 43.1212 76.3897 43.1212 76.7397C43.1212 77.0697 43.1612 77.3599 43.2412 77.6099C43.3212 77.8599 43.4213 78.0397 43.5613 78.1697C43.7013 78.2997 43.8613 78.3599 44.0413 78.3599C44.2313 78.3599 44.3912 78.2997 44.5212 78.1697C44.6512 78.0397 44.7512 77.8499 44.8212 77.6099C44.8912 77.3599 44.9313 77.0697 44.9313 76.7397ZM44.7312 71.3699C44.7312 71.0699 44.7113 70.8099 44.6713 70.5999C44.6313 70.3799 44.5512 70.2199 44.4512 70.0999C44.3512 69.9799 44.2113 69.9197 44.0413 69.9197C43.8813 69.9197 43.7512 69.9798 43.6412 70.0898C43.5412 70.2098 43.4613 70.3698 43.4113 70.5898C43.3613 70.8098 43.3412 71.0699 43.3412 71.3699C43.3412 71.6699 43.3613 71.9297 43.4113 72.1597C43.4613 72.3897 43.5312 72.5597 43.6412 72.6897C43.7512 72.8197 43.8813 72.8796 44.0513 72.8796C44.2213 72.8796 44.3612 72.8197 44.4612 72.6897C44.5612 72.5597 44.6313 72.3897 44.6713 72.1597C44.7113 71.9297 44.7312 71.6699 44.7312 71.3699Z" fill="white"/>
<defs>
<linearGradient id="paint0_linear_599_12817" x1="44.0273" y1="63.0845" x2="44.0273" y2="2.40204" gradientUnits="userSpaceOnUse">
<stop stop-color="#34001F"/>
<stop offset="1" stop-color="#FF7A2B"/>
</linearGradient>
<linearGradient id="paint1_linear_599_12817" x1="44.0326" y1="7.32564" x2="44.0326" y2="58.1612" gradientUnits="userSpaceOnUse">
<stop stop-color="#34001F"/>
<stop offset="1" stop-color="#FF7A2B"/>
</linearGradient>
</defs>
</svg>
