<svg width="124" height="27" viewBox="0 0 124 27" fill="none" xmlns="http://www.w3.org/2000/svg">
<path d="M112.972 7.79844C112.972 9.49844 112.972 11.1984 112.972 12.7984C112.972 13.7984 112.572 14.5984 111.672 14.9984C111.372 15.0984 110.972 15.1984 110.672 15.1984C107.272 15.1984 103.972 15.1984 100.572 15.1984C99.0719 15.1984 98.1719 14.1984 98.1719 12.7984C98.1719 9.49844 98.1719 6.09844 98.1719 2.79844C98.1719 1.29844 99.1719 0.398438 100.572 0.398438C103.872 0.398438 107.272 0.398438 110.572 0.398438C111.772 0.398438 112.672 1.09844 112.872 2.09844C112.972 2.29844 112.972 2.59844 112.972 2.89844C112.972 4.49844 112.972 6.19844 112.972 7.79844ZM104.772 9.39844C104.072 9.89844 103.272 10.2984 102.472 10.4984C102.172 10.5984 102.072 10.7984 102.072 11.0984C102.172 11.3984 102.372 11.4984 102.672 11.3984C102.872 11.3984 102.972 11.2984 103.072 11.2984C103.972 10.9984 104.772 10.5984 105.472 9.99844C105.572 10.0984 105.672 10.0984 105.772 10.1984C106.572 10.7984 107.372 11.1984 108.272 11.3984C108.572 11.4984 108.872 11.3984 108.972 11.0984C109.072 10.7984 108.872 10.5984 108.572 10.4984C108.172 10.3984 107.772 10.1984 107.472 10.0984C107.072 9.89844 106.672 9.59844 106.272 9.39844C107.072 8.59844 107.572 7.69844 107.972 6.69844C108.072 6.49844 108.172 6.39844 108.372 6.39844C108.572 6.39844 108.772 6.39844 108.972 6.39844C109.272 6.39844 109.472 6.19844 109.472 5.89844C109.472 5.59844 109.272 5.39844 108.972 5.39844C108.072 5.39844 107.272 5.39844 106.372 5.39844C106.072 5.39844 105.972 5.29844 106.072 4.99844C106.072 4.79844 106.072 4.69844 106.072 4.49844C106.072 4.19844 105.872 3.99844 105.572 4.09844C105.272 4.19844 105.172 4.29844 105.072 4.59844C105.072 4.79844 105.072 4.89844 105.072 5.09844C105.072 5.39844 104.972 5.49844 104.772 5.49844C103.872 5.49844 102.972 5.49844 102.172 5.49844C101.872 5.49844 101.672 5.69844 101.672 5.99844C101.672 6.29844 101.872 6.49844 102.172 6.49844C102.372 6.49844 102.672 6.49844 102.872 6.49844C103.072 6.49844 103.072 6.49844 103.172 6.69844C103.272 6.89844 103.372 7.19844 103.472 7.39844C103.872 7.99844 104.272 8.69844 104.772 9.39844Z" fill="#534988"/>
<path d="M116.072 25.7984C114.372 25.7984 112.672 25.7984 110.972 25.7984C110.172 25.7984 109.572 25.4984 109.072 24.8984C108.772 24.4984 108.672 23.8984 108.672 23.3984C108.672 21.0984 108.672 18.7984 108.672 16.4984C108.672 16.2984 108.772 16.1984 108.972 16.1984C109.572 16.1984 110.272 16.1984 110.872 16.1984C112.572 16.1984 113.972 14.7984 114.072 12.9984C114.072 12.3984 114.072 11.7984 114.072 11.1984C114.072 10.9984 114.172 10.8984 114.372 10.8984C116.672 10.8984 118.972 10.8984 121.272 10.8984C122.372 10.8984 123.572 11.6984 123.572 13.1984C123.572 16.5984 123.572 19.9984 123.572 23.3984C123.572 24.4984 122.872 25.3984 121.872 25.6984C121.672 25.7984 121.372 25.7984 121.072 25.7984C119.372 25.7984 117.772 25.7984 116.072 25.7984ZM119.472 21.4984C119.472 21.4984 119.472 21.3984 119.372 21.2984C118.472 19.1984 117.472 17.0984 116.472 14.9984C116.372 14.7984 116.272 14.6984 115.972 14.6984C115.672 14.6984 115.572 14.7984 115.472 14.9984C114.572 17.0984 113.572 19.1984 112.672 21.2984C112.472 21.5984 112.572 21.8984 112.872 21.9984C113.172 22.0984 113.372 21.9984 113.572 21.6984C113.772 21.1984 114.072 20.6984 114.272 20.1984C114.372 19.9984 114.472 19.8984 114.672 19.8984C115.572 19.8984 116.472 19.8984 117.272 19.8984C117.572 19.8984 117.672 19.9984 117.772 20.1984C117.972 20.6984 118.172 21.1984 118.472 21.6984C118.572 21.9984 118.772 22.0984 119.072 21.9984C119.372 21.8984 119.472 21.7984 119.472 21.4984Z" fill="#534988"/>
<path d="M105.975 20.4953C105.475 20.4953 104.975 20.4953 104.475 20.1953C103.775 19.7953 103.475 19.1953 103.375 18.2953C103.375 17.8953 103.375 17.5953 103.375 17.1953C103.375 16.8953 103.575 16.6953 103.775 16.6953C103.975 16.6953 104.175 16.8953 104.175 17.1953C104.175 17.4953 104.175 17.8953 104.175 18.1953C104.175 18.9953 104.775 19.5953 105.575 19.6953C105.875 19.6953 106.275 19.6953 106.575 19.6953C106.875 19.6953 107.075 19.8953 106.975 20.0953C106.975 20.3953 106.775 20.4953 106.475 20.4953C106.475 20.4953 106.275 20.4953 105.975 20.4953Z" fill="#534988"/>
<path d="M115.569 5.60156C115.969 5.70156 116.369 5.70156 116.769 5.80156C117.669 6.10156 118.169 6.90156 118.169 7.80156C118.169 8.20156 118.169 8.50156 118.169 8.90156C118.169 9.20156 117.969 9.40156 117.769 9.40156C117.569 9.40156 117.369 9.20156 117.369 8.90156C117.369 8.50156 117.369 8.10156 117.269 7.60156C117.169 6.90156 116.569 6.40156 115.869 6.40156C115.569 6.40156 115.269 6.40156 114.969 6.40156C114.669 6.40156 114.469 6.30156 114.469 6.00156C114.469 5.70156 114.669 5.60156 114.969 5.60156C115.169 5.70156 115.369 5.70156 115.569 5.60156Z" fill="#534988"/>
<path d="M104.07 6.39844C105.07 6.39844 106.07 6.39844 107.07 6.39844C106.77 7.29844 106.27 7.99844 105.57 8.69844C104.97 8.09844 104.47 7.29844 104.07 6.39844Z" fill="#534988"/>
<path d="M116.069 16.2969C116.469 17.1969 116.869 17.9969 117.269 18.8969C116.469 18.8969 115.769 18.8969 114.969 18.8969C115.269 17.9969 115.669 17.1969 116.069 16.2969Z" fill="#534988"/>
<path d="M12.4718 0C12.9718 0 13.5718 0 14.0718 0C14.1718 0 14.2719 0 14.2719 0C14.9719 0.1 15.6718 0.2 16.3718 0.4C23.0718 2.1 27.1718 8.5 26.0718 15.3C25.0718 21.3 19.7719 26 13.6719 26.1C10.4719 26.2 7.67188 25.3 5.17188 23.3C2.57188 21.2 0.971826 18.6 0.371826 15.3C0.271826 14.8 0.271875 14.4 0.171875 13.9C0.171875 13.4 0.171875 12.8 0.171875 12.3C0.171875 12 0.271851 11.7 0.271851 11.4C0.671851 8.7 1.6718 6.4 3.4718 4.4C5.4718 2.2 7.9718 0.800001 10.9718 0.300001C11.4718 0.100001 11.9718 0.1 12.4718 0ZM18.6719 13.1C18.6719 10.1 16.2719 7.7 13.2719 7.6C10.2719 7.6 7.77185 10 7.77185 13C7.77185 16 10.1719 18.5 13.1719 18.5C16.1719 18.5 18.6719 16.1 18.6719 13.1ZM18.7719 18.3C18.7719 18.2 18.7719 18.2 18.7719 18.3C18.5718 18 18.3718 17.8 18.0718 17.6C17.9718 17.6 17.8719 17.6 17.7719 17.6C17.6719 17.7 17.6719 17.8 17.6719 17.9C17.8719 18.1 18.0718 18.4 18.3718 18.6C18.4718 18.7 18.7719 18.5 18.7719 18.3ZM13.5718 20.1C13.5718 20 13.5718 19.9 13.5718 19.7C13.5718 19.5 13.4719 19.4 13.2719 19.4C13.1719 19.4 12.9718 19.5 12.9718 19.6C12.9718 19.9 12.9718 20.1 12.9718 20.4C12.9718 20.5 13.1719 20.6 13.2719 20.6C13.4719 20.6 13.5718 20.5 13.5718 20.3C13.5718 20.3 13.5718 20.2 13.5718 20.1ZM8.57178 17.5C8.47178 17.5 8.47183 17.5 8.37183 17.5C8.17183 17.7 7.97185 17.9 7.77185 18.1C7.67185 18.2 7.77183 18.4 7.87183 18.4C7.97183 18.4 8.17185 18.5 8.27185 18.4C8.47185 18.3 8.67185 18.1 8.77185 17.9C8.87185 17.8 8.87185 17.7 8.77185 17.6L8.57178 17.5ZM20.2719 12.8C20.1719 12.8 20.0718 12.8 19.9718 12.8C19.7718 12.8 19.6719 12.9 19.6719 13.1C19.6719 13.3 19.7718 13.4 19.9718 13.4C20.1718 13.4 20.4719 13.4 20.6719 13.4C20.8719 13.4 20.9718 13.3 20.9718 13.1C20.9718 12.9 20.8719 12.8 20.6719 12.8C20.4719 12.8 20.3719 12.8 20.2719 12.8ZM6.17188 13.4C6.27187 13.4 6.3718 13.4 6.4718 13.4C6.5718 13.4 6.67185 13.2 6.77185 13.1C6.87185 12.9 6.67178 12.8 6.57178 12.8C6.37178 12.8 6.07183 12.8 5.87183 12.8C5.77183 12.8 5.67188 13 5.67188 13.1C5.67188 13.3 5.7718 13.4 5.9718 13.4C5.9718 13.4 6.07188 13.4 6.17188 13.4ZM18.4718 7.6C18.3718 7.6 18.3719 7.6 18.2719 7.6C18.0718 7.8 17.8719 8 17.6719 8.2C17.5719 8.3 17.6719 8.5 17.7719 8.5C17.8719 8.6 18.0719 8.6 18.1719 8.5C18.3719 8.4 18.4719 8.2 18.6719 8C18.7719 7.9 18.7719 7.8 18.6719 7.7C18.6719 7.7 18.5718 7.6 18.4718 7.6ZM8.77185 8.3C8.57185 8 8.37178 7.8 8.07178 7.6C7.97178 7.6 7.87185 7.6 7.77185 7.7C7.67185 7.8 7.67188 7.9 7.67188 8C7.87187 8.2 8.07185 8.4 8.27185 8.6C8.57185 8.7 8.77185 8.5 8.77185 8.3ZM12.9718 6C12.9718 6.1 12.9718 6.2 12.9718 6.3C12.9718 6.5 13.0719 6.6 13.2719 6.6C13.3719 6.6 13.5718 6.5 13.5718 6.4C13.6718 6.2 13.5718 5.9 13.5718 5.7C13.5718 5.5 13.4719 5.4 13.2719 5.4C13.0719 5.4 12.9718 5.5 12.9718 5.7C12.9718 5.8 12.9718 5.9 12.9718 6Z" fill="#534988"/>
<path d="M12.8753 8.20312C12.8753 11.4031 12.8753 14.6031 12.8753 17.9031C11.2753 17.7031 9.9753 17.0031 9.0753 15.7031C8.0753 14.0031 7.97532 12.3031 8.97532 10.6031C9.97532 9.10313 11.2753 8.40313 12.8753 8.20312Z" fill="#534988"/>
</svg>
