<svg width="58" height="76" viewBox="0 0 58 76" fill="none" xmlns="http://www.w3.org/2000/svg">
<path d="M42.2365 0.0646973C44.0365 0.904697 44.4065 1.96465 43.4965 3.76465C41.4565 7.79465 40.2365 12.0447 39.8565 16.5447C39.8265 16.8847 39.7765 17.2247 39.7265 17.5947C32.3365 17.5947 24.9565 17.5947 17.5265 17.5947C17.3465 16.2347 17.1965 14.8546 16.9665 13.4946C16.3865 10.0046 15.2265 6.71469 13.6365 3.55469C12.8265 1.94469 13.2665 0.814736 14.9365 0.104736C14.9565 0.0947363 14.9765 0.0746875 14.9865 0.0546875C15.2765 0.0546875 15.5765 0.0546875 15.8665 0.0546875C18.2565 1.23469 20.6665 2.39451 23.0365 3.62451C23.6365 3.93451 23.9465 3.82452 24.3965 3.38452C25.5665 2.23452 26.8065 1.16469 28.0265 0.0546875C28.4165 0.0546875 28.8065 0.0546875 29.1965 0.0546875C29.7765 0.524687 30.3665 0.9646 30.9165 1.4646C31.5265 2.0246 32.1465 2.58461 32.6665 3.22461C33.1865 3.85461 33.6365 3.92467 34.3765 3.53467C36.6765 2.32467 39.0165 1.21469 41.3465 0.0546875C41.6565 0.0646875 41.9465 0.0646973 42.2365 0.0646973Z" fill="#4A3C7F"/>
<path d="M28.6101 22.1744C32.8801 22.1744 37.1501 22.1644 41.4201 22.1944C41.7401 22.1944 42.1701 22.3245 42.3601 22.5545C45.4301 26.3145 48.5801 30.0143 51.5001 33.8843C55.6701 39.3943 57.4901 45.6845 57.0901 52.6045C56.8401 56.8845 55.6001 60.8246 53.1301 64.3646C50.9701 67.4546 48.1601 69.7844 44.8301 71.4844C39.1601 74.3744 33.0801 75.2244 26.8001 74.9844C22.6501 74.8344 18.6101 74.1245 14.7501 72.5445C8.23011 69.8745 3.50011 65.4243 1.27011 58.6243C-0.279886 53.9043 -0.249889 49.0744 0.860111 44.2544C1.88011 39.8544 3.85011 35.9244 6.70011 32.4344C9.39011 29.1544 12.1001 25.8843 14.8201 22.6243C15.0301 22.3743 15.4601 22.1944 15.7901 22.1844C20.0701 22.1644 24.3401 22.1744 28.6101 22.1744ZM30.8201 34.6744C30.8201 34.2344 30.8301 33.7945 30.8201 33.3545C30.7801 32.0545 29.8301 31.1046 28.6001 31.1146C27.4001 31.1246 26.4701 32.0645 26.4401 33.3345C26.4201 34.1645 26.4001 34.9945 26.4501 35.8245C26.4801 36.3745 26.2801 36.6145 25.7901 36.8545C23.4801 37.9945 22.1601 39.8644 22.0601 42.4544C21.9601 45.0844 23.1201 47.0944 25.3901 48.4644C26.5201 49.1444 27.7801 49.2144 29.0401 49.4144C30.1301 49.5844 30.8901 50.6144 30.8101 51.6744C30.7201 52.7844 29.8601 53.6344 28.7601 53.7044C27.6101 53.7644 26.6401 53.0043 26.4601 51.8943C26.4201 51.6543 26.4301 51.4044 26.3801 51.1644C26.1401 49.9844 25.1501 49.2346 24.0001 49.3646C22.8401 49.4946 22.0201 50.4146 22.0501 51.6146C22.0901 53.8146 22.9501 55.7145 24.8301 56.7945C26.1301 57.5445 26.6001 58.3245 26.4901 59.7745C26.4001 60.9645 27.4901 61.8746 28.6701 61.8646C29.8201 61.8446 30.7401 60.9645 30.8301 59.7945C30.8601 59.3545 30.8801 58.9144 30.8301 58.4744C30.7701 57.9044 30.9901 57.6443 31.5101 57.3843C33.8501 56.2143 35.1401 54.2644 35.1801 51.6644C35.2201 49.1144 34.0701 47.1345 31.8401 45.8045C30.7301 45.1445 29.5001 45.0343 28.2701 44.8843C27.2001 44.7443 26.4501 43.8244 26.4401 42.7444C26.4401 41.6644 27.2001 40.7745 28.2601 40.5945C29.6501 40.3645 30.6701 41.2743 30.8301 42.8943C30.9601 44.1543 31.9201 44.9844 33.1601 44.9044C34.3301 44.8344 35.2501 43.8643 35.2001 42.6544C35.1101 40.3843 34.2101 38.4645 32.2301 37.3445C31.0501 36.6745 30.4901 35.9744 30.8201 34.6744Z" fill="#4A3C7F"/>
</svg>
