<svg width="67" height="63" viewBox="0 0 67 63" fill="none" xmlns="http://www.w3.org/2000/svg">
<path d="M0.234415 18.1875C22.4744 18.1875 44.6344 18.1875 66.8744 18.1875C66.8744 18.5375 66.8744 18.8575 66.8744 19.1675C66.8744 31.2075 66.8744 43.2476 66.8744 55.2776C66.8744 59.2576 64.0044 62.2177 60.0044 62.3577C59.7244 62.3677 59.4544 62.3677 59.1744 62.3677C41.6444 62.3677 24.1144 62.3175 6.58441 62.3975C2.10441 62.4175 0.224415 59.4276 0.234415 56.0176C0.244415 45.9276 0.234415 35.8476 0.234415 25.7576C0.234415 23.2676 0.234415 20.7675 0.234415 18.1875ZM53.5944 30.1375C53.5944 29.3075 53.6044 28.4875 53.5944 27.6575C53.5844 26.4975 52.9644 25.8577 51.8144 25.8477C50.1644 25.8377 48.5144 25.8377 46.8644 25.8477C45.7844 25.8577 45.1144 26.4576 45.0944 27.5276C45.0544 29.2476 45.0544 30.9675 45.0944 32.6875C45.1144 33.6775 45.7144 34.3076 46.6844 34.3276C48.4744 34.3776 50.2644 34.3776 52.0444 34.3276C53.0744 34.2976 53.5644 33.7175 53.5844 32.6775C53.6044 31.8275 53.5944 30.9875 53.5944 30.1375ZM32.7244 53.0176C33.5944 53.0176 34.4644 53.0376 35.3344 53.0176C36.3644 52.9976 36.9344 52.4975 36.9644 51.4675C37.0144 49.7075 37.0144 47.9375 36.9744 46.1675C36.9544 45.1575 36.3244 44.5476 35.3044 44.5276C33.5844 44.4876 31.8644 44.4876 30.1444 44.5276C29.0944 44.5476 28.4944 45.1975 28.4844 46.2375C28.4644 47.9375 28.4644 49.6276 28.4844 51.3276C28.4944 52.3576 29.1344 52.9876 30.1744 53.0176C31.0244 53.0376 31.8744 53.0176 32.7244 53.0176ZM49.3244 53.0276C50.1744 53.0276 51.0244 53.0376 51.8744 53.0276C53.0144 53.0076 53.5744 52.4576 53.5844 51.3376C53.6044 49.6376 53.6044 47.9476 53.5844 46.2476C53.5744 45.2176 52.9644 44.5576 51.9144 44.5376C50.1944 44.4976 48.4744 44.4976 46.7544 44.5376C45.7444 44.5576 45.1044 45.1775 45.0844 46.1775C45.0444 47.9175 45.0444 49.6675 45.0844 51.4075C45.1144 52.4375 45.7844 53.0176 46.8444 53.0276C47.6744 53.0376 48.5044 53.0276 49.3244 53.0276ZM32.7444 25.8477C31.9144 25.8477 31.0944 25.8377 30.2644 25.8477C29.1344 25.8577 28.4944 26.4676 28.4844 27.5776C28.4644 29.2476 28.4744 30.9277 28.4844 32.5977C28.4944 33.6177 29.0544 34.2876 30.0544 34.3176C31.8644 34.3676 33.6744 34.3676 35.4844 34.3076C36.4344 34.2776 36.9244 33.7776 36.9544 32.8176C37.0044 31.0076 37.0044 29.1975 36.9544 27.3875C36.9244 26.4175 36.2544 25.8576 35.2844 25.8376C34.4444 25.8376 33.5944 25.8477 32.7444 25.8477ZM12.0844 48.7976C12.0844 49.6276 12.0744 50.4476 12.0844 51.2776C12.1044 52.3776 12.7344 53.0176 13.8544 53.0276C15.4644 53.0376 17.0644 53.0376 18.6744 53.0276C19.8044 53.0176 20.5544 52.3275 20.5844 51.2075C20.6244 49.5375 20.6244 47.8575 20.5744 46.1875C20.5444 45.1775 19.9144 44.5676 18.9044 44.5476C17.1844 44.5076 15.4644 44.5076 13.7444 44.5476C12.6944 44.5676 12.1044 45.2276 12.0844 46.2676C12.0744 47.0976 12.0844 47.9476 12.0844 48.7976ZM12.0844 30.0776C12.0844 30.9076 12.0744 31.7276 12.0844 32.5576C12.0944 33.6476 12.6644 34.3177 13.7444 34.3477C15.4144 34.3977 17.0944 34.3877 18.7644 34.3477C19.8444 34.3177 20.5444 33.6276 20.5744 32.5676C20.6244 30.8676 20.6144 29.1675 20.5644 27.4775C20.5344 26.4675 19.8744 25.8777 18.8644 25.8677C17.1644 25.8477 15.4644 25.8477 13.7744 25.8677C12.7444 25.8777 12.1044 26.5176 12.0744 27.5376C12.0644 28.3776 12.0844 29.2276 12.0844 30.0776Z" fill="#4A3C7F"/>
<path d="M53.3943 0.185791C53.5343 0.145791 53.5943 0.105957 53.6543 0.105957C56.0443 0.145957 58.4444 0.0258594 60.8144 0.255859C63.6843 0.535859 66.1643 2.96594 66.6143 5.58594C66.6543 5.83594 66.6743 6.08594 66.6743 6.33594C66.6743 8.79594 66.6743 11.2459 66.6743 13.7559C44.5143 13.7559 22.4043 13.7559 0.264346 13.7559C0.264346 11.0059 0.244341 8.30595 0.274341 5.59595C0.284341 5.07595 0.434348 4.5459 0.594348 4.0459C1.39435 1.4959 3.32434 0.0859375 5.99434 0.0859375C7.91434 0.0859375 9.84434 0.0859375 11.8543 0.0859375C11.8543 0.395938 11.8543 0.645742 11.8543 0.885742C11.8543 2.63574 11.8443 4.37598 11.8543 6.12598C11.8643 7.46598 12.7243 8.37598 13.9443 8.37598C15.1543 8.37598 16.0043 7.47597 16.0143 6.11597C16.0343 4.14597 16.0143 2.16574 16.0143 0.135742C27.0843 0.135742 38.0943 0.135742 49.1843 0.135742C49.1943 0.365742 49.2243 0.615957 49.2243 0.855957C49.2243 2.64596 49.2143 4.43584 49.2343 6.23584C49.2443 7.27584 49.8443 8.04591 50.7443 8.30591C51.5643 8.54591 52.5443 8.24585 52.9843 7.49585C53.2343 7.06585 53.3643 6.50586 53.3743 6.00586C53.4243 4.30586 53.3943 2.60576 53.3943 0.905762C53.3943 0.665762 53.3943 0.415791 53.3943 0.185791Z" fill="#4A3C7F"/>
</svg>
