<svg width="97" height="91" viewBox="0 0 97 91" fill="none" xmlns="http://www.w3.org/2000/svg">
<path d="M0.635037 26.6953C32.625 26.6953 64.505 26.6953 96.495 26.6953C96.495 27.2053 96.495 27.6554 96.495 28.1154C96.495 45.4354 96.495 62.7454 96.495 80.0654C96.495 85.7854 92.365 90.0454 86.615 90.2554C86.215 90.2654 85.8251 90.2654 85.4251 90.2654C60.2051 90.2654 34.985 90.1954 9.76504 90.3154C3.32504 90.3454 0.615028 86.0454 0.625028 81.1354C0.645028 66.6254 0.635037 52.1154 0.635037 37.6154C0.635037 34.0054 0.635037 30.4053 0.635037 26.6953ZM77.385 43.8854C77.385 42.6954 77.395 41.5053 77.385 40.3253C77.365 38.6553 76.475 37.7353 74.825 37.7253C72.445 37.7053 70.075 37.7053 67.695 37.7253C66.145 37.7353 65.175 38.5954 65.1451 40.1354C65.0851 42.6054 65.095 45.0854 65.1451 47.5554C65.175 48.9754 66.0351 49.8754 67.4351 49.9154C70.0051 49.9854 72.5851 49.9854 75.1551 49.9154C76.6351 49.8754 77.335 49.0354 77.365 47.5454C77.405 46.3254 77.385 45.1054 77.385 43.8854ZM47.365 76.8054C48.615 76.8054 49.875 76.8254 51.125 76.7954C52.615 76.7654 53.435 76.0554 53.475 74.5654C53.545 72.0254 53.545 69.4853 53.485 66.9453C53.445 65.4853 52.545 64.6153 51.085 64.5853C48.615 64.5353 46.1351 64.5353 43.6651 64.5853C42.1551 64.6153 41.285 65.5554 41.2751 67.0554C41.2551 69.4954 41.2551 71.9354 41.2751 74.3754C41.2951 75.8554 42.215 76.7654 43.695 76.7954C44.915 76.8254 46.135 76.8054 47.365 76.8054ZM71.245 76.8054C72.465 76.8054 73.6851 76.8254 74.9051 76.8054C76.5451 76.7754 77.355 75.9954 77.375 74.3754C77.395 71.9354 77.395 69.4954 77.375 67.0554C77.365 65.5754 76.475 64.6253 74.975 64.5853C72.505 64.5353 70.0251 64.5353 67.5551 64.5853C66.0951 64.6153 65.1851 65.4953 65.1551 66.9453C65.0951 69.4553 65.0951 71.9553 65.1651 74.4653C65.2051 75.9453 66.175 76.7754 67.695 76.8054C68.875 76.8254 70.065 76.8054 71.245 76.8054ZM47.395 37.7153C46.205 37.7153 45.015 37.7053 43.835 37.7153C42.215 37.7353 41.2951 38.6153 41.2751 40.2053C41.2551 42.6153 41.2551 45.0254 41.2751 47.4254C41.285 48.8954 42.0851 49.8654 43.5351 49.9054C46.1351 49.9854 48.745 49.9754 51.345 49.8954C52.705 49.8554 53.425 49.1254 53.455 47.7554C53.525 45.1554 53.535 42.5453 53.455 39.9453C53.415 38.5453 52.4551 37.7453 51.0451 37.7153C49.8351 37.6953 48.615 37.7153 47.395 37.7153ZM17.6651 70.7253C17.6651 71.9153 17.6451 73.1054 17.6651 74.2854C17.6951 75.8754 18.605 76.7854 20.205 76.8054C22.515 76.8254 24.825 76.8254 27.135 76.8054C28.755 76.7854 29.845 75.8054 29.885 74.1854C29.945 71.7754 29.945 69.3653 29.875 66.9553C29.835 65.4953 28.935 64.6253 27.475 64.5953C25.005 64.5453 22.5251 64.5453 20.0551 64.5953C18.5551 64.6253 17.6951 65.5654 17.6651 67.0654C17.6551 68.2754 17.6651 69.5053 17.6651 70.7253ZM17.6651 43.7954C17.6651 44.9854 17.6551 46.1753 17.6651 47.3553C17.6851 48.9253 18.5051 49.8854 20.0551 49.9254C22.4651 49.9954 24.8751 49.9854 27.2851 49.9154C28.8351 49.8754 29.845 48.8753 29.885 47.3453C29.955 44.9053 29.945 42.4654 29.875 40.0254C29.835 38.5754 28.8751 37.7253 27.4351 37.7153C24.9951 37.6953 22.555 37.6953 20.105 37.7153C18.615 37.7253 17.7051 38.6454 17.6651 40.1254C17.6451 41.3554 17.6751 42.5754 17.6651 43.7954Z" fill="#4A3C7F"/>
<path d="M77.1069 0.796265C77.3069 0.736265 77.3969 0.67627 77.4869 0.67627C80.9169 0.72627 84.3769 0.56624 87.7769 0.89624C91.9069 1.30624 95.4669 4.79628 96.1169 8.56628C96.1769 8.92628 96.2068 9.28624 96.2068 9.64624C96.2168 13.1762 96.2068 16.7163 96.2068 20.3163C64.3268 20.3163 32.5169 20.3163 0.676926 20.3163C0.676926 16.3663 0.656824 12.4662 0.696824 8.57617C0.706824 7.83617 0.926897 7.0762 1.1469 6.3562C2.2969 2.6862 5.07691 0.66625 8.90691 0.65625C11.6769 0.65625 14.4468 0.65625 17.3368 0.65625C17.3368 1.10625 17.3368 1.45627 17.3368 1.80627C17.3368 4.31627 17.3168 6.82619 17.3468 9.34619C17.3668 11.2762 18.5968 12.5862 20.3468 12.5862C22.0968 12.5862 23.3068 11.2862 23.3268 9.33618C23.3468 6.49618 23.3368 3.65621 23.3368 0.736206C39.2568 0.736206 55.1069 0.736206 71.0569 0.736206C71.0769 1.07621 71.1169 1.42624 71.1169 1.76624C71.1269 4.34624 71.0969 6.92622 71.1269 9.49622C71.1469 10.9862 71.9969 12.1062 73.2969 12.4762C74.4769 12.8162 75.8869 12.3963 76.5169 11.3063C76.8769 10.6863 77.0668 9.88625 77.0868 9.15625C77.1568 6.71625 77.1169 4.26628 77.1169 1.81628C77.1069 1.48628 77.1069 1.13626 77.1069 0.796265Z" fill="#4A3C7F"/>
</svg>
