<svg width="97" height="126" viewBox="0 0 97 126" fill="none" xmlns="http://www.w3.org/2000/svg">
<path d="M71.3857 0.13501C74.3957 1.54501 75.0157 3.30506 73.4957 6.31506C70.0957 13.0351 68.0557 20.145 67.4157 27.645C67.3657 28.215 67.2757 28.775 67.2057 29.405C54.8657 29.405 42.5457 29.405 30.1457 29.405C29.8357 27.125 29.5957 24.8351 29.2157 22.5651C28.2357 16.7451 26.3157 11.245 23.6557 5.97498C22.3057 3.29498 23.0457 1.40497 25.8257 0.214966C25.8657 0.194966 25.8857 0.16501 25.9157 0.13501C26.4057 0.13501 26.8957 0.13501 27.3857 0.13501C31.3857 2.10501 35.3957 4.04496 39.3557 6.08496C40.3557 6.60496 40.8657 6.41506 41.6157 5.68506C43.5757 3.77506 45.6457 1.975 47.6757 0.125C48.3257 0.125 48.9757 0.125 49.6357 0.125C50.5957 0.905 51.5957 1.64499 52.5157 2.48499C53.5357 3.41499 54.5657 4.35505 55.4357 5.42505C56.3057 6.48505 57.0457 6.58506 58.2957 5.93506C62.1257 3.91506 66.0457 2.05501 69.9357 0.13501C70.4057 0.13501 70.8957 0.13501 71.3857 0.13501Z" fill="#4A3C7F"/>
<path d="M48.6221 37.0587C55.7521 37.0587 62.8821 37.0486 70.0121 37.0886C70.5421 37.0886 71.2621 37.3087 71.5721 37.6887C76.7021 43.9587 81.9521 50.1486 86.8421 56.6086C93.8121 65.8186 96.8321 76.3187 96.1721 87.8587C95.7621 95.0087 93.6821 101.589 89.5621 107.489C85.9621 112.639 81.2621 116.529 75.7021 119.369C66.2421 124.199 56.0821 125.609 45.6021 125.219C38.6821 124.969 31.9221 123.789 25.4921 121.149C14.6121 116.699 6.71208 109.259 2.98208 97.9185C0.392081 90.0285 0.432088 81.9785 2.30209 73.9286C4.00209 66.5886 7.28209 60.0187 12.0521 54.1887C16.5421 48.7087 21.0621 43.2487 25.6121 37.8187C25.9621 37.4087 26.6821 37.0986 27.2321 37.0886C34.3621 37.0386 41.4921 37.0587 48.6221 37.0587ZM52.3121 57.9187C52.3121 57.1887 52.3321 56.4486 52.3121 55.7186C52.2421 53.5486 50.6521 51.9586 48.6121 51.9786C46.6021 52.0086 45.0621 53.5587 45.0021 55.6787C44.9621 57.0587 44.9321 58.4486 45.0121 59.8286C45.0721 60.7486 44.7221 61.1487 43.9121 61.5487C40.0621 63.4487 37.8521 66.5785 37.6821 70.8985C37.5121 75.2885 39.4521 78.6385 43.2421 80.9286C45.1321 82.0686 47.2421 82.1886 49.3321 82.5086C51.1521 82.7886 52.4221 84.5087 52.2821 86.2887C52.1321 88.1387 50.6921 89.5685 48.8621 89.6685C46.9521 89.7785 45.3221 88.5085 45.0121 86.6485C44.9421 86.2485 44.9621 85.8286 44.8821 85.4386C44.4921 83.4686 42.8221 82.2186 40.9121 82.4286C38.9721 82.6385 37.6121 84.1786 37.6521 86.1786C37.7221 89.8485 39.1621 93.0187 42.2921 94.8387C44.4521 96.0987 45.2521 97.3987 45.0721 99.8187C44.9221 101.809 46.7521 103.329 48.7121 103.299C50.6321 103.269 52.1721 101.799 52.3121 99.8387C52.3621 99.1087 52.3921 98.3685 52.3121 97.6385C52.2121 96.6885 52.5721 96.2487 53.4421 95.8187C57.3521 93.8687 59.5021 90.6087 59.5821 86.2786C59.6521 82.0186 57.7221 78.7086 54.0021 76.4986C52.1521 75.3986 50.0921 75.2186 48.0321 74.9586C46.2521 74.7286 44.9921 73.1885 44.9821 71.3885C44.9821 69.5885 46.2421 68.0987 48.0221 67.8087C50.3521 67.4287 52.0421 68.9485 52.3221 71.6485C52.5321 73.7485 54.1421 75.1286 56.2221 75.0086C58.1821 74.8986 59.7021 73.2686 59.6221 71.2486C59.4621 67.4686 57.9621 64.2586 54.6621 62.3786C52.6921 61.2586 51.7621 60.0987 52.3121 57.9187Z" fill="#4A3C7F"/>
</svg>
