<svg width="97" height="98" viewBox="0 0 97 98" fill="none" xmlns="http://www.w3.org/2000/svg">
<path d="M0.033432 45.8648C0.283432 44.0748 0.513432 42.2848 0.783432 40.4948C1.07343 38.5748 1.08343 38.5748 2.97343 38.5748C12.4034 38.5748 21.8434 38.5648 31.2734 38.5748C34.9434 38.5748 37.7834 40.4148 38.9634 43.5248C40.8434 48.4648 37.2834 53.8049 31.9834 53.9249C28.9134 53.9949 25.8434 53.9148 22.7734 53.9548C19.4534 54.0048 16.8034 56.5148 16.4534 59.8748C16.1434 62.9248 18.2834 65.9948 21.3634 66.6448C22.6934 66.9248 24.1034 66.8348 25.4734 66.8848C28.5934 66.9748 30.4634 69.7248 29.3734 72.6548C28.7634 74.2948 27.5534 75.2048 25.8134 75.2348C22.9334 75.2848 20.0434 75.3248 17.1634 75.2448C15.8534 75.2048 15.1534 75.6648 14.7034 76.8748C14.1434 78.3848 13.4234 79.8448 12.7434 81.4148C10.3334 78.8148 8.32344 76.0748 6.60344 73.1148C2.92344 66.7948 0.763426 59.9948 0.183426 52.6948C0.163426 52.4248 0.0834375 52.1548 0.0234375 51.8848C0.0334375 49.8748 0.033432 47.8748 0.033432 45.8648Z" fill="#4A3C7F"/>
<path d="M45.3719 97.0184C43.5119 96.7684 41.6419 96.6284 39.8119 96.2484C37.2519 95.7284 34.7319 95.0384 32.1919 94.4184C32.1819 94.3184 32.1819 94.2083 32.1719 94.1083C33.0619 93.2883 33.9219 92.4384 34.8419 91.6684C36.0219 90.6784 36.5719 89.5583 36.2019 87.9583C35.9219 86.7483 35.8019 85.4783 35.8119 84.2383C35.8219 82.1284 37.2619 80.4183 39.1119 80.1083C41.1019 79.7683 42.8719 80.8284 43.7519 82.7884C44.2819 83.9584 44.8319 85.1183 45.5219 86.1983C47.0819 88.6183 49.3419 89.5184 52.1619 88.9883C52.8619 88.8584 53.5719 88.6883 54.2519 88.4483C57.3319 87.3583 58.3619 85.5383 57.7119 82.3383C57.4819 81.2083 57.1519 80.0883 57.0119 78.9383C56.5319 74.9583 59.1919 71.3983 63.1919 70.5783C66.9419 69.8083 70.8319 72.0984 71.9019 75.8684C73.1019 80.0784 74.1519 84.3284 75.3219 88.7584C73.3019 89.8884 71.3019 91.1084 69.2119 92.1484C63.7419 94.8684 57.9319 96.4083 51.8419 96.8583C51.5619 96.8783 51.2919 96.9584 51.0219 97.0084C49.1319 97.0184 47.2519 97.0184 45.3719 97.0184Z" fill="#4A3C7F"/>
<path d="M51.8447 0.851562C63.8847 1.95156 73.9647 6.68155 82.6047 15.2115C82.0247 15.2115 81.7047 15.2115 81.3747 15.2115C75.8847 15.2115 70.4047 15.1516 64.9147 15.2416C60.9047 15.3116 57.8747 17.2215 56.1247 20.8315C54.3747 24.4415 54.7747 27.9816 57.1947 31.1816C59.2447 33.9016 62.0947 35.0715 65.4647 35.0815C67.5047 35.0915 69.5447 35.0416 71.5747 35.1116C73.5947 35.1816 75.0847 36.6915 75.2847 38.6915C75.5047 40.9715 74.3547 42.8316 72.3347 43.3016C71.6447 43.4616 70.9047 43.4315 70.1847 43.4515C68.3347 43.5015 66.4747 43.3715 64.6447 43.5815C61.2647 43.9715 58.8947 47.0016 59.1247 50.3916C59.3447 53.6916 62.1347 56.3316 65.4847 56.3716C68.1847 56.4016 70.8747 56.3916 73.5747 56.4016C73.6047 56.4016 73.6247 56.4216 73.7847 56.4916C73.7847 58.1716 73.9047 59.9316 73.7547 61.6616C73.6047 63.4016 74.1747 64.4116 75.7847 65.1716C78.0147 66.2216 80.1347 67.5216 82.2747 68.7616C82.7147 69.0116 83.1247 69.4015 83.3947 69.8315C84.6947 71.8615 85.9447 73.9216 87.1847 75.9916C87.3347 76.2416 87.3947 76.7415 87.2447 76.9515C84.5347 80.7515 81.3147 84.0816 77.6147 86.9316C77.5247 87.0016 77.4047 87.0416 77.2247 87.1316C76.2447 83.3616 75.2847 79.6416 74.3047 75.9316C73.1747 71.6516 70.4147 68.9915 66.0747 68.3215C62.0047 67.6915 58.6747 69.2616 56.3247 72.6516C54.5947 75.1516 54.3647 77.9416 55.0447 80.8416C55.2547 81.7516 55.4747 82.6716 55.6247 83.5916C55.8047 84.7616 55.4547 85.5115 54.3747 85.9415C53.3647 86.3415 52.3047 86.6515 51.2347 86.8215C49.6247 87.0715 48.3247 86.3716 47.4747 85.0216C46.8247 83.9916 46.2947 82.8816 45.7847 81.7816C43.7947 77.4916 38.6147 76.3916 35.4347 79.6316C33.7147 81.3816 33.3347 83.5516 33.5847 85.8916C33.6247 86.2616 33.6247 86.6516 33.7347 87.0016C34.2947 88.6916 33.7047 89.9216 32.3147 90.9316C31.6347 91.4316 31.0347 92.0515 30.4847 92.6915C29.9747 93.2915 29.5247 93.2515 28.8647 92.9515C23.7247 90.6415 19.1147 87.5715 15.0147 83.7115C14.5447 83.2715 14.4547 82.9316 14.7347 82.3516C15.3947 81.0016 16.0147 79.6316 16.5847 78.2416C16.8247 77.6516 17.1647 77.4816 17.7847 77.4816C20.4447 77.5116 23.1147 77.5415 25.7747 77.4615C28.5947 77.3815 30.8747 75.5616 31.6847 72.9016C32.4747 70.3016 31.5647 67.5216 29.3747 65.8716C28.3447 65.1016 27.1947 64.6516 25.8947 64.6116C24.6747 64.5716 23.4447 64.6416 22.2347 64.4916C20.0247 64.2316 18.6147 62.3916 18.7547 60.1116C18.9047 57.7916 20.4547 56.2116 22.7247 56.1816C25.7947 56.1416 28.8747 56.2016 31.9447 56.1516C36.4447 56.0816 40.3347 52.9716 41.4047 48.6716C43.0147 42.2016 38.2347 36.3116 31.3247 36.2916C22.4247 36.2616 13.5147 36.2816 4.61469 36.2816C3.67469 36.2816 2.74469 36.2816 1.55469 36.2816C2.41469 33.9716 3.03469 31.7216 4.05469 29.6716C5.57469 26.6316 7.39469 23.7316 9.07469 20.7716C9.38469 20.2316 9.78469 20.0216 10.4447 20.0416C11.8847 20.0816 13.3247 20.0416 14.7647 19.9816C15.2547 19.9616 15.4847 20.1015 15.6547 20.5715C16.1547 21.9215 16.6447 23.2815 17.2747 24.5715C18.7547 27.6015 21.1747 28.7916 24.3447 28.1716C27.5547 27.5416 29.8047 25.1616 30.0047 22.0316C30.0947 20.6616 29.9247 19.2816 29.9447 17.9016C29.9747 15.6416 31.0147 14.2216 33.1247 13.3916C34.2847 12.9316 35.3647 13.0416 36.2647 13.9016C37.3147 14.8916 38.2847 15.9516 39.2947 16.9816C40.7247 18.4216 42.3647 19.5615 44.4547 19.5715C48.5647 19.6015 51.8947 17.9415 54.1447 14.4615C56.2547 11.1915 56.2747 7.80155 54.1847 4.46155C53.4847 3.33155 52.7247 2.19156 51.8447 0.851562Z" fill="#4A3C7F"/>
<path d="M88.917 74.4786C87.677 72.4486 86.517 70.4886 85.277 68.5686C84.897 67.9886 84.3869 67.4087 83.7969 67.0587C81.4869 65.6887 79.127 64.3886 76.757 63.0986C76.227 62.8086 75.997 62.5186 76.007 61.8786C76.057 59.8786 76.027 57.8686 76.027 55.8586C76.027 54.4186 75.727 54.1286 74.247 54.1286C71.367 54.1286 68.477 54.1286 65.597 54.1286C63.967 54.1286 62.657 53.4986 61.917 51.9886C61.127 50.3986 61.227 48.8186 62.227 47.3586C63.057 46.1386 64.317 45.7286 65.737 45.7186C67.617 45.7086 69.497 45.7486 71.377 45.6886C74.6369 45.5886 77.257 43.1486 77.577 39.9786C77.907 36.6486 75.867 33.7186 72.627 32.9786C71.847 32.7986 71.007 32.8287 70.197 32.8087C68.197 32.7587 66.1769 32.8686 64.1869 32.6986C60.1269 32.3486 57.237 28.8386 57.397 24.6486C57.547 20.8086 60.837 17.5086 64.737 17.4686C71.197 17.3986 77.657 17.4386 84.107 17.4686C84.477 17.4686 84.947 17.8186 85.217 18.1386C90.557 24.5586 94.037 31.8686 95.527 40.0786C97.677 51.9886 95.627 63.1886 89.457 73.6186C89.307 73.8986 89.137 74.1486 88.917 74.4786Z" fill="#4A3C7F"/>
<path d="M11.4141 17.8413C14.0541 14.7513 16.7941 12.1913 19.8541 9.98131C28.2041 3.94131 37.5341 0.87129 47.8441 0.71129C48.6741 0.70129 49.2141 0.901363 49.6541 1.66136C50.3741 2.91136 51.1441 4.14136 52.0141 5.28136C55.1841 9.40136 52.7041 14.0913 49.6641 15.8913C48.6841 16.4713 47.5741 16.9013 46.4741 17.2113C44.5441 17.7513 42.8041 17.2413 41.3741 15.8313C40.3941 14.8613 39.4741 13.8313 38.5041 12.8513C36.8041 11.1413 34.8241 10.3514 32.4541 11.2814C29.9541 12.2714 28.0041 13.8013 27.8341 16.7413C27.7541 18.2113 27.8941 19.6814 27.8641 21.1514C27.8041 23.7114 26.2841 25.5013 23.8441 26.0013C21.8541 26.4013 20.0341 25.4314 19.2941 23.5614C18.7141 22.0814 18.1441 20.5813 17.5841 19.0913C17.1841 18.0413 16.4441 17.5814 15.3241 17.6514C14.1041 17.7314 12.8841 17.7713 11.4141 17.8413Z" fill="#4A3C7F"/>
</svg>
