<svg width="107" height="79" viewBox="0 0 107 79" fill="none" xmlns="http://www.w3.org/2000/svg">
<path d="M0.0625 63.8485C0.0625 62.1085 0.0625 60.3683 0.0625 58.6283C0.1225 58.1483 0.202422 57.6784 0.232422 57.1984C0.472422 53.4884 0.622393 49.7685 0.952393 46.0585C1.74239 37.2585 3.03248 28.5284 4.66248 19.8484C6.85248 8.21839 17.7024 -0.20156 29.4824 0.52844C32.6124 0.71844 35.4424 1.76841 38.2524 2.99841C40.9724 4.18841 43.7725 5.13839 46.7725 5.22839C50.0725 5.32839 53.3825 5.27841 56.6825 5.36841C61.0725 5.48841 65.2024 4.57839 69.2424 2.84839C71.5224 1.87839 73.9424 0.948465 76.3724 0.678465C88.6424 -0.711535 100.102 7.85842 102.332 20.0084C103.412 25.8884 104.302 31.7984 105.112 37.7184C106.252 45.9584 106.812 54.2485 106.922 62.5685C106.932 63.5685 106.822 64.5985 106.592 65.5585C105.262 70.9785 101.672 74.5184 96.8724 77.0184C92.0524 79.5184 87.4125 79.2684 82.8925 76.2184C79.4525 73.8984 76.6824 70.8883 73.8424 67.9083C71.3024 65.2483 68.7324 62.5984 66.0824 60.0384C64.5724 58.5884 62.6825 58.0385 60.5425 58.0785C55.8525 58.1685 51.1524 58.1685 46.4524 58.0785C44.3824 58.0385 42.6325 58.6483 41.0625 59.9183C40.3325 60.5083 39.6024 61.1084 38.9524 61.7784C36.2624 64.5984 33.6225 67.4584 30.9325 70.2784C28.5225 72.7984 26.0124 75.1983 22.9424 76.9283C20.8124 78.1283 18.5624 78.8684 16.0824 78.7084C9.5024 78.2984 2.55249 72.6784 0.672485 66.2384C0.442485 65.4684 0.2625 64.6585 0.0625 63.8485ZM34.2424 34.9285C34.8624 34.9285 35.3024 34.9285 35.7524 34.9285C37.3124 34.9085 38.8824 34.9784 40.4424 34.8584C42.9724 34.6484 44.7125 32.1784 44.1725 29.7084C43.7325 27.6684 42.1225 26.2984 40.0425 26.2584C38.1425 26.2184 36.2424 26.2484 34.2424 26.2484C34.2424 24.3384 34.2424 22.5685 34.2424 20.8085C34.2324 19.0385 33.5524 17.6184 31.9924 16.7384C29.1824 15.1384 25.6425 17.1184 25.5425 20.3484C25.4825 22.2784 25.5325 24.2184 25.5325 26.2584C23.4625 26.2584 21.5224 26.2184 19.5824 26.2684C17.4724 26.3184 15.7225 27.9884 15.5125 30.0284C15.2825 32.2584 16.6124 34.2784 18.7024 34.7784C19.3724 34.9384 20.0825 34.9185 20.7725 34.9285C22.3325 34.9485 23.8825 34.9384 25.5225 34.9384C25.5225 36.9384 25.5025 38.8085 25.5325 40.6785C25.5625 42.7985 27.0125 44.5184 29.0325 44.8884C31.8125 45.4084 34.1624 43.4484 34.2324 40.4984C34.2824 38.6784 34.2424 36.8785 34.2424 34.9285ZM81.1024 38.7484C81.0824 35.3384 78.3025 32.5784 74.9025 32.6084C71.5125 32.6384 68.7425 35.4484 68.7625 38.8384C68.7924 42.2284 71.6124 45.0084 74.9924 44.9784C78.4124 44.9484 81.1224 42.1884 81.1024 38.7484ZM85.2324 16.1884C81.8124 16.1984 79.0425 18.9384 79.0425 22.3384C79.0425 25.7184 81.8324 28.5284 85.2224 28.5284C88.6024 28.5384 91.4025 25.7384 91.4125 22.3484C91.4125 18.9384 88.6524 16.1784 85.2324 16.1884Z" fill="#4A3C7F"/>
</svg>
