<svg width="106" height="107" viewBox="0 0 106 107" fill="none" xmlns="http://www.w3.org/2000/svg">
<path d="M24.5541 106.364H81.3865C94.9345 106.364 105.941 95.3401 105.941 81.81L105.935 24.5543C105.935 11.0063 94.9109 0 81.3807 0H24.5543C11.0063 0 0 11.0241 0 24.5543V81.8159C0 95.3465 11.024 106.364 24.5541 106.364ZM8.91194 24.5543C8.91194 15.9265 15.921 8.91208 24.5541 8.91208H81.3865C90.0143 8.91208 97.0287 15.9211 97.0287 24.5543V81.8159C97.0287 90.4437 90.0196 97.4581 81.3865 97.4581L24.5541 97.4523C15.9263 97.4523 8.91194 90.4432 8.91194 81.8101V24.5543Z" fill="#534988"/>
<path d="M52.9734 79.228C67.3395 79.228 79.0249 67.5367 79.0249 53.1765C79.0249 38.8104 67.3394 27.125 52.9734 27.125C38.6074 27.125 26.9219 38.8105 26.9219 53.1765C26.9219 67.5425 38.6074 79.228 52.9734 79.228ZM52.9734 36.0371C62.4193 36.0371 70.1128 43.7307 70.1128 53.1765C70.1128 62.6223 62.4191 70.3159 52.9734 70.3159C43.5276 70.3159 35.834 62.6223 35.834 53.1765C35.834 43.7307 43.5276 36.0371 52.9734 36.0371Z" fill="#534988"/>
<path d="M83.6536 17.886C92.4206 21.5181 86.9725 34.66 78.2053 31.0337C69.4442 27.4016 74.8865 14.2537 83.6536 17.886Z" fill="#534988"/>
</svg>
