<svg width="74" height="69" viewBox="0 0 74 69" fill="none" xmlns="http://www.w3.org/2000/svg">
<path d="M73.4967 42.2653C73.0067 43.3053 72.2067 43.6654 71.1467 43.5954C70.2967 43.5354 69.4367 43.5854 68.4767 43.5854C68.4767 43.9354 68.4767 44.2253 68.4767 44.5253C68.4767 51.7853 68.4767 59.0454 68.4767 66.3054C68.4767 68.1354 67.9067 68.7453 66.1967 68.7453C63.1667 68.7453 60.1367 68.7453 57.1067 68.7453C55.5967 68.7453 54.9967 68.0953 54.9967 66.4553C54.9967 59.1653 54.9967 51.8854 54.9967 44.5954C54.9967 44.2954 54.9967 43.9954 54.9967 43.5754C53.8767 43.5754 52.8368 43.5954 51.7968 43.5654C50.6268 43.5354 49.8768 42.6653 50.0168 41.4853C50.0568 41.1253 50.2268 40.7453 50.4368 40.4553C53.7068 35.7553 56.9867 31.0552 60.2867 26.3752C61.0867 25.2352 62.3467 25.1854 63.1367 26.3054C66.5067 31.0954 69.8368 35.9053 73.1868 40.7053C73.2968 40.8653 73.3967 41.0253 73.5067 41.1853C73.4967 41.5453 73.4967 41.9053 73.4967 42.2653Z" fill="#4A3C7F"/>
<path d="M43.5636 48.9859C43.5636 49.3859 43.5636 49.6659 43.5636 49.9459C43.5636 55.4359 43.5636 60.9259 43.5636 66.4159C43.5636 68.0959 42.9536 68.756 41.4036 68.756C38.3236 68.756 35.2436 68.756 32.1736 68.756C30.7436 68.756 30.1136 68.086 30.1136 66.556C30.1136 61.036 30.1136 55.526 30.1136 50.006C30.1136 49.706 30.1136 49.3959 30.1136 48.9859C29.1336 48.9859 28.2136 48.966 27.2936 48.996C26.4236 49.016 25.6636 48.8259 25.2536 47.9159C24.8636 47.0559 25.2136 46.3459 25.6936 45.6559C28.8736 41.1059 32.0436 36.546 35.2236 31.996C36.2236 30.566 37.4136 30.576 38.4236 32.016C41.6636 36.646 44.8936 41.2859 48.1336 45.9159C48.5736 46.5459 48.7236 47.1959 48.4036 47.9259C48.0836 48.6459 47.5136 48.986 46.7936 48.996C45.7436 48.996 44.7036 48.9859 43.5636 48.9859Z" fill="#4A3C7F"/>
<path d="M5.19738 54.4025C4.12738 54.4025 3.14738 54.3925 2.16738 54.4025C1.39738 54.4125 0.737378 54.1725 0.367378 53.3925C-0.0126223 52.5925 0.197385 51.8725 0.687385 51.1725C3.94739 46.5225 7.20738 41.8726 10.4674 37.2226C11.3074 36.0226 12.5674 36.0026 13.4074 37.2026C16.7174 41.9426 20.0074 46.6925 23.3074 51.4425C23.7174 52.0325 23.7874 52.6627 23.4974 53.3227C23.1774 54.0427 22.6074 54.3725 21.8774 54.3925C20.8274 54.4125 19.7874 54.4025 18.6474 54.4025C18.6474 54.7325 18.6474 55.0126 18.6474 55.2826C18.6474 58.9826 18.6474 62.6727 18.6474 66.3727C18.6474 68.1127 18.0574 68.7626 16.4674 68.7626C13.4174 68.7626 10.3574 68.7626 7.30738 68.7626C5.84738 68.7626 5.20739 68.0726 5.20739 66.5226C5.20739 62.8026 5.20739 59.0827 5.20739 55.3627C5.19739 55.0727 5.19738 54.7925 5.19738 54.4025Z" fill="#4A3C7F"/>
<path d="M22.2593 22.4699C21.9693 22.9699 21.7393 23.5398 21.3593 23.9498C20.3693 25.0298 19.3093 26.02 18.3093 27.08C18.1193 27.28 17.9893 27.6999 18.0293 27.9899C18.2593 29.5599 18.5493 31.1098 18.8293 32.6698C18.9693 33.4498 18.7593 34.1 18.1793 34.58C17.5693 35.08 16.8893 35.0898 16.2293 34.6898C14.9593 33.9398 13.6893 33.1798 12.4293 32.3998C12.0793 32.1798 11.8093 32.1798 11.4593 32.3998C10.2193 33.1698 8.95932 33.8898 7.70932 34.6398C7.02932 35.0498 6.34931 35.14 5.69931 34.62C5.05931 34.11 4.86932 33.42 5.01932 32.58C5.28932 31.1 5.50932 29.5998 5.81932 28.1298C5.92932 27.5898 5.78931 27.2798 5.43931 26.9398C4.44931 25.9798 3.49931 24.9699 2.50931 23.9999C1.89931 23.3999 1.52932 22.7 1.81932 21.82C2.09932 20.95 2.75931 20.6199 3.58931 20.5199C4.98931 20.3699 6.37932 20.1598 7.76932 19.9198C8.01932 19.8798 8.3193 19.6298 8.4293 19.3898C9.0493 18.0398 9.62932 16.6599 10.2093 15.2799C10.5493 14.4699 11.0693 13.9198 11.9493 13.9298C12.7893 13.9398 13.2793 14.4999 13.6193 15.2699C14.2093 16.6399 14.7893 18.02 15.4293 19.36C15.5493 19.61 15.8793 19.8598 16.1493 19.9098C17.6093 20.1598 19.0793 20.3299 20.5393 20.5499C21.4693 20.7099 22.0993 21.4599 22.2593 22.4699Z" fill="#4A3C7F"/>
<path d="M61.9189 0.96875C62.4989 0.96875 63.0189 1.42872 63.3489 2.18872C63.9589 3.57872 64.5889 4.95889 65.1689 6.35889C65.3489 6.79889 65.5989 6.95879 66.0289 7.00879C67.4489 7.17879 68.8689 7.40887 70.2889 7.58887C71.0489 7.68887 71.5689 8.09866 71.8189 8.87866C72.0689 9.67866 71.8189 10.3387 71.2789 10.8887C70.2389 11.9387 69.1989 12.9988 68.1289 14.0288C67.7989 14.3388 67.7089 14.6489 67.7989 15.0989C68.0789 16.5289 68.3189 17.9687 68.5889 19.3987C68.7489 20.2587 68.6889 21.0489 67.9689 21.6089C67.2489 22.1689 66.5489 22.0188 65.8289 21.5688C64.6689 20.8488 63.4789 20.1987 62.3389 19.4587C61.8789 19.1687 61.5489 19.1988 61.1089 19.4788C59.9589 20.2088 58.7789 20.8789 57.6189 21.5789C56.8989 22.0189 56.1689 22.1389 55.4689 21.5889C54.7889 21.0489 54.7089 20.2987 54.8689 19.4487C55.1589 17.9687 55.4189 16.4788 55.6389 14.9888C55.6789 14.6988 55.5589 14.2789 55.3689 14.0789C54.3489 12.9989 53.2889 11.9687 52.2289 10.9287C51.6389 10.3587 51.4089 9.65888 51.6289 8.84888C51.8589 8.01888 52.4389 7.64883 53.2289 7.54883C54.5989 7.37883 55.9689 7.13877 57.3389 6.98877C57.8689 6.92877 58.1289 6.69873 58.3389 6.19873C58.9189 4.79873 59.5389 3.40881 60.1689 2.02881C60.5089 1.31881 60.9989 0.98875 61.9189 0.96875Z" fill="#4A3C7F"/>
<path d="M47.1557 16.4185C46.8657 16.9185 46.6357 17.4984 46.2657 17.9084C45.2757 18.9884 44.2057 19.9686 43.2057 21.0386C42.9957 21.2586 42.8657 21.7086 42.9057 22.0186C43.1157 23.4586 43.4057 24.8886 43.6657 26.3186C43.8257 27.1686 43.8057 27.9886 43.0857 28.5486C42.3557 29.1186 41.6257 28.9685 40.8757 28.4985C39.7457 27.7885 38.5757 27.1485 37.4457 26.4285C37.0057 26.1485 36.6657 26.1185 36.2157 26.4185C35.0757 27.1585 33.8957 27.8286 32.7257 28.5386C32.0057 28.9786 31.2957 29.1186 30.5857 28.5586C29.9057 28.0186 29.7757 27.2985 29.9457 26.4385C30.2257 24.9785 30.4357 23.5086 30.7357 22.0586C30.8457 21.5486 30.7157 21.2585 30.3857 20.9285C29.3857 19.9385 28.4157 18.9185 27.4057 17.9285C26.8057 17.3485 26.4657 16.6686 26.7157 15.8186C26.9657 14.9786 27.5757 14.5885 28.3957 14.4985C29.7957 14.3385 31.1857 14.1085 32.5857 13.9585C33.0157 13.9185 33.2057 13.7186 33.3657 13.3286C33.9457 11.9486 34.5457 10.5885 35.1357 9.21851C35.4657 8.43851 35.9557 7.89844 36.8157 7.89844C37.6757 7.89844 38.1557 8.42851 38.4857 9.21851C39.0557 10.5685 39.6657 11.9085 40.2257 13.2585C40.4057 13.7085 40.6257 13.9185 41.1057 13.9685C42.5557 14.1185 43.9957 14.3286 45.4357 14.5386C46.4057 14.6786 47.0057 15.3885 47.1557 16.4185Z" fill="#4A3C7F"/>
</svg>
