<svg width="30" height="30" viewBox="0 0 30 30" fill="none" xmlns="http://www.w3.org/2000/svg">
<g opacity="0.54">
<path d="M29.7668 27.7773C29.6468 28.3473 29.4368 28.8672 28.9868 29.2572C27.9368 30.1772 26.5768 30.1073 25.5468 29.0873C23.4168 26.9573 21.2868 24.8272 19.1668 22.6972C19.0868 22.6172 19.0367 22.5072 18.9667 22.4172C15.8667 24.4672 12.5768 25.1073 9.04682 24.2073C6.13682 23.4673 3.82677 21.8172 2.12677 19.3472C-1.07323 14.6772 -0.663184 8.31721 3.54682 4.09721C7.72682 -0.0927927 14.0668 -0.552744 18.7968 2.64726C23.7568 6.00726 25.8668 13.0372 22.2368 18.9672C22.3068 19.0472 22.3867 19.1273 22.4667 19.2073C24.5267 21.2673 26.5768 23.3372 28.6468 25.3872C29.1768 25.9072 29.6268 26.4573 29.7568 27.2073C29.7668 27.3873 29.7668 27.5873 29.7668 27.7773ZM20.1668 12.5972C20.1368 8.06721 16.5368 4.4872 12.0468 4.4672C7.58682 4.4472 3.95681 8.06723 3.91681 12.5572C3.87681 17.0172 7.52679 20.6773 12.0168 20.7073C16.4868 20.7273 20.1368 17.0972 20.1668 12.5972Z" fill="#3A187C"/>
</g>
</svg>
