<svg width="91" height="104" viewBox="0 0 91 104" fill="none" xmlns="http://www.w3.org/2000/svg">
<path d="M85.764 24.364C80.5505 23.2533 75.8296 20.5131 72.2894 16.543C68.7492 12.5728 66.5747 7.58014 66.0831 2.2929V0H48.0989V71.0851C48.0878 74.2321 47.0869 77.2966 45.2369 79.8478C43.3869 82.3991 40.7808 84.3089 37.7847 85.3089C34.7887 86.3089 31.5534 86.3488 28.5334 85.423C25.5134 84.4973 22.8606 82.6523 20.9477 80.1475C19.0051 77.6008 17.9275 74.504 17.8712 71.3062C17.8148 68.1084 18.7827 64.9758 20.6343 62.3627C22.486 59.7497 25.1252 57.792 28.1693 56.7735C31.2134 55.7551 34.5041 55.7288 37.5642 56.6986V38.501C30.7404 37.5614 23.7924 38.7697 17.692 41.9568C11.5917 45.1438 6.64408 50.1503 3.5413 56.2758C0.43851 62.4014 -0.664284 69.3396 0.38717 76.1201C1.43862 82.9007 4.59173 89.1843 9.40546 94.0921C13.996 98.7702 19.8822 101.98 26.3125 103.311C32.7428 104.642 39.4256 104.035 45.5078 101.567C51.59 99.0984 56.7957 94.8809 60.4605 89.4526C64.1252 84.0244 66.0827 77.6316 66.0831 71.0903V34.7678C73.3512 39.9429 82.0656 42.7178 91 42.702V24.9047C89.2405 24.9069 87.4856 24.7257 85.764 24.364Z" fill="#534988"/>
</svg>
