<svg width="80" height="70" viewBox="0 0 80 70" fill="none" xmlns="http://www.w3.org/2000/svg">
<path d="M39.6175 50.7298C37.1175 50.7798 34.7575 50.1898 32.5775 49.0098C23.4275 44.0398 14.2775 39.0698 5.1575 34.0398C1.8875 32.2398 0.1875 29.3699 0.1875 25.6199C0.1875 21.9199 1.8575 19.0598 5.0775 17.2798C14.2275 12.2198 23.4075 7.19979 32.6275 2.26979C37.2575 -0.210211 42.0575 -0.170172 46.6875 2.30983C55.7875 7.18983 64.8475 12.1597 73.8975 17.1297C77.2075 18.9497 79.0075 21.7799 79.0275 25.5899C79.0475 29.4499 77.2375 32.3297 73.8775 34.1697C64.9375 39.0797 55.9775 43.9498 47.0175 48.8298C44.6975 50.0798 42.2475 50.7698 39.6175 50.7298Z" fill="#4A3C7F"/>
<path d="M68.447 43.4492C68.447 46.8992 68.667 50.1692 68.387 53.3992C68.087 56.7992 66.047 59.2892 62.937 60.6792C56.437 63.5692 49.897 66.3492 43.357 69.1392C40.787 70.2392 38.187 70.1593 35.617 69.0493C29.287 66.3093 22.937 63.6094 16.627 60.8494C13.017 59.2694 10.907 56.4893 10.697 52.5293C10.537 49.5493 10.667 46.5594 10.667 43.3594C13.077 44.6694 15.277 45.8693 17.487 47.0693C21.397 49.1993 25.307 51.3492 29.227 53.4792C36.087 57.1992 42.987 57.2493 49.867 53.5393C55.677 50.4093 61.457 47.2293 67.257 44.0693C67.607 43.8493 67.987 43.6792 68.447 43.4492Z" fill="#4A3C7F"/>
</svg>
