<svg width="91" height="95" viewBox="0 0 91 95" fill="none" xmlns="http://www.w3.org/2000/svg">
<path d="M47.278 34.4424L74.784 0.944334C75.1782 0.377734 75.8295 0 76.5749 0H88.8284C89.3168 0.00858485 89.8052 0.171697 90.208 0.506506C91.1334 1.27056 91.2705 2.64413 90.4993 3.56271L55.5298 46.1608L87.5259 91.5746C88.22 92.5533 87.9801 93.9097 87.0032 94.6051C86.6262 94.8712 86.1892 95 85.7607 95H69.1115C68.3317 95 67.6462 94.5879 67.2606 93.9698L43.722 60.5576L16.2245 94.0557C15.8304 94.6223 15.1791 95 14.4336 95H2.17161C1.68318 94.9914 1.19476 94.8283 0.792021 94.4935C-0.133415 93.7294 -0.270517 92.3559 0.50068 91.4373L35.4702 48.8478L3.4655 3.43394C2.77143 2.45527 3.01135 1.09886 3.9882 0.403488C4.3738 0.137358 4.81081 0 5.23925 0H21.8885C22.6683 0 23.3538 0.412073 23.7394 1.03018L47.278 34.4424Z" fill="#534988"/>
</svg>
