<svg width="139" height="107" viewBox="0 0 139 107" fill="none" xmlns="http://www.w3.org/2000/svg">
<path d="M111.777 0H26.8517C12.2021 0 0.3125 11.9114 0.3125 26.5879V79.7638C0.3125 94.4403 12.2021 106.352 26.8517 106.352H111.777C126.427 106.352 138.317 94.4403 138.317 79.7638V26.5879C138.317 11.9114 126.427 0 111.777 0ZM127.701 79.7638C127.701 88.5378 120.535 95.7166 111.777 95.7166H26.8517C18.0938 95.7166 10.9282 88.5378 10.9282 79.7638V26.5879C10.9282 17.8139 18.0938 10.6352 26.8517 10.6352H111.777C120.535 10.6352 127.701 17.8139 127.701 26.5879V79.7638Z" fill="#534988"/>
<path d="M88.7954 42.5422L63.5371 28.2457C59.5389 26.0119 54.8426 26.0119 50.9079 28.3733C46.9731 30.671 44.625 34.8195 44.625 39.4148V68.2632C44.625 72.8585 46.9731 77.007 50.9713 79.3047C52.9387 80.4535 55.1599 81.0279 57.3177 81.0279C59.4754 81.0279 61.6332 80.4535 63.6005 79.3047L88.8589 64.8167C92.8571 62.519 95.2687 58.3705 95.2687 53.7113C95.2687 49.0522 92.8571 44.9037 88.7954 42.606V42.5422ZM57.3177 68.1993V39.351L82.576 53.6475L57.3177 68.1993Z" fill="#534988"/>
</svg>
