<svg width="87" height="77" viewBox="0 0 87 77" fill="none" xmlns="http://www.w3.org/2000/svg">
<path d="M43.1494 55.0448C40.4136 55.0995 37.831 54.4539 35.4453 53.1626C25.4322 47.7238 15.4191 42.285 5.43882 36.7805C1.86036 34.8107 0 31.6701 0 27.5664C0 23.5174 1.82753 20.3875 5.35127 18.4396C15.3644 12.9023 25.4103 7.40872 35.5 2.01368C40.5668 -0.700259 45.8196 -0.656443 50.8863 2.05749C60.8447 7.39782 70.7593 12.8364 80.663 18.2753C84.2852 20.2669 86.255 23.3641 86.2769 27.5335C86.2988 31.7576 84.3181 34.9091 80.6411 36.9227C70.8578 42.2958 61.0526 47.6254 51.2474 52.9657C48.7086 54.3336 46.0275 55.0886 43.1494 55.0448Z" fill="#685AAD"/>
<path d="M74.6989 47.0749C74.6989 50.8503 74.9397 54.4287 74.6333 57.9634C74.305 61.6841 72.0725 64.409 68.6692 65.9302C61.556 69.0928 54.3991 72.135 47.2422 75.1881C44.4298 76.3919 41.5845 76.3045 38.7721 75.0898C31.845 72.0914 24.896 69.1367 17.9908 66.1164C14.0403 64.3873 11.7312 61.345 11.5014 57.0115C11.3263 53.7504 11.4686 50.4784 11.4686 46.9766C14.1059 48.4101 16.5134 49.7233 18.9319 51.0365C23.2107 53.3674 27.4896 55.7201 31.7793 58.051C39.2864 62.1219 46.8373 62.1767 54.3663 58.1168C60.7243 54.6915 67.0496 51.2116 73.3967 47.7535C73.7797 47.5127 74.1955 47.3266 74.6989 47.0749Z" fill="#685AAD"/>
</svg>
