<svg width="1920" height="1080" viewBox="0 0 1920 1080" fill="none" xmlns="http://www.w3.org/2000/svg">
<rect width="1920" height="1080" fill="#262336"/>
<g opacity="0.3">
<g filter="url(#filter0_d_2971_28925)">
<path d="M1337.87 1063.65C1337.87 970.355 1296.39 880.885 1222.57 814.918C1148.75 748.951 1048.63 711.891 944.234 711.891C839.836 711.891 739.714 748.951 665.894 814.918C592.073 880.885 550.602 970.355 550.602 1063.65L944.234 1063.65H1337.87Z" fill="#262336"/>
<path d="M1337.87 1063.65C1337.87 970.355 1296.39 880.885 1222.57 814.918C1148.75 748.951 1048.63 711.891 944.234 711.891C839.836 711.891 739.714 748.951 665.894 814.918C592.073 880.885 550.602 970.355 550.602 1063.65L944.234 1063.65H1337.87Z" fill="url(#paint0_linear_2971_28925)" fill-opacity="0.75"/>
</g>
<g filter="url(#filter1_d_2971_28925)">
<path d="M1337.87 1063.65C1337.87 970.355 1296.39 880.885 1222.57 814.918C1148.75 748.951 1048.63 711.891 944.234 711.891C839.836 711.891 739.714 748.951 665.894 814.918C592.073 880.885 550.602 970.355 550.602 1063.65L944.234 1063.65H1337.87Z" fill="#262336"/>
<path d="M1337.87 1063.65C1337.87 970.355 1296.39 880.885 1222.57 814.918C1148.75 748.951 1048.63 711.891 944.234 711.891C839.836 711.891 739.714 748.951 665.894 814.918C592.073 880.885 550.602 970.355 550.602 1063.65L944.234 1063.65H1337.87Z" fill="url(#paint1_linear_2971_28925)" fill-opacity="0.75"/>
</g>
<mask id="path-3-inside-1_2971_28925" fill="white">
<path d="M1276.05 869.716C1239.03 819.378 1187.45 778.34 1126.46 750.696C1065.46 723.052 997.179 709.767 928.421 712.166C859.662 714.565 792.829 732.564 734.587 764.368C676.345 796.173 628.728 840.671 596.485 893.426L944.234 1053.48L1276.05 869.716Z"/>
</mask>
<path d="M1276.05 869.716C1239.03 819.378 1187.45 778.34 1126.46 750.696C1065.46 723.052 997.179 709.767 928.421 712.166C859.662 714.565 792.829 732.564 734.587 764.368C676.345 796.173 628.728 840.671 596.485 893.426L944.234 1053.48L1276.05 869.716Z" stroke="black" stroke-width="2.83824" mask="url(#path-3-inside-1_2971_28925)"/>
<path d="M1017.6 915.691C1001.06 924.332 977.684 931.949 945.664 931.949C898.918 931.949 871.596 915.691 869.628 886.428H1111.71V839.708C1111.71 803.173 1099.11 778.698 1071.03 760.646C1040.37 741.134 996.203 730.953 942.783 730.953C892.846 730.953 851.41 740.449 821.367 758.077C789.488 776.904 775.375 799.834 775.375 835.599V873.933C775.375 912.697 790.702 937.421 825.312 955.564C856.73 971.652 898.015 980.718 944.298 980.718C994.236 980.718 1033.69 971.647 1070.57 952.14L1017.6 915.691ZM869.478 838.598C869.478 813.014 878.733 779.213 943.546 779.213C1008.36 779.213 1017.61 813.014 1017.61 838.598H869.478Z" fill="url(#paint2_linear_2971_28925)"/>
<g filter="url(#filter2_d_2971_28925)">
<path d="M1433.46 1124.07C1433.46 1012.04 1383.61 904.601 1294.88 825.384C1206.15 746.167 1085.8 701.664 960.31 701.664C834.822 701.664 714.473 746.167 625.74 825.384C537.006 904.601 487.156 1012.04 487.156 1124.07L960.31 1124.07H1433.46Z" fill="#262336"/>
<path d="M1433.46 1124.07C1433.46 1012.04 1383.61 904.601 1294.88 825.384C1206.15 746.167 1085.8 701.664 960.31 701.664C834.822 701.664 714.473 746.167 625.74 825.384C537.006 904.601 487.156 1012.04 487.156 1124.07L960.31 1124.07H1433.46Z" fill="url(#paint3_linear_2971_28925)" fill-opacity="0.75"/>
</g>
<g filter="url(#filter3_d_2971_28925)">
<path d="M1433.46 1124.07C1433.46 1012.04 1383.61 904.601 1294.88 825.384C1206.15 746.167 1085.8 701.664 960.31 701.664C834.822 701.664 714.473 746.167 625.74 825.384C537.006 904.601 487.156 1012.04 487.156 1124.07L960.31 1124.07H1433.46Z" fill="#262336"/>
<path d="M1433.46 1124.07C1433.46 1012.04 1383.61 904.601 1294.88 825.384C1206.15 746.167 1085.8 701.664 960.31 701.664C834.822 701.664 714.473 746.167 625.74 825.384C537.006 904.601 487.156 1012.04 487.156 1124.07L960.31 1124.07H1433.46Z" fill="url(#paint4_radial_2971_28925)" fill-opacity="0.1"/>
</g>
</g>
<defs>
<filter id="filter0_d_2971_28925" x="265.359" y="193.912" width="1357.75" height="922.244" filterUnits="userSpaceOnUse" color-interpolation-filters="sRGB">
<feFlood flood-opacity="0" result="BackgroundImageFix"/>
<feColorMatrix in="SourceAlpha" type="matrix" values="0 0 0 0 0 0 0 0 0 0 0 0 0 0 0 0 0 0 127 0" result="hardAlpha"/>
<feMorphology radius="1.41912" operator="dilate" in="SourceAlpha" result="effect1_dropShadow_2971_28925"/>
<feOffset dy="-232.736"/>
<feGaussianBlur stdDeviation="141.912"/>
<feComposite in2="hardAlpha" operator="out"/>
<feColorMatrix type="matrix" values="0 0 0 0 0.988235 0 0 0 0 0.466667 0 0 0 0 0.466667 0 0 0 0.1 0"/>
<feBlend mode="normal" in2="BackgroundImageFix" result="effect1_dropShadow_2971_28925"/>
<feBlend mode="normal" in="SourceGraphic" in2="effect1_dropShadow_2971_28925" result="shape"/>
</filter>
<filter id="filter1_d_2971_28925" x="263.94" y="141.405" width="1360.59" height="925.082" filterUnits="userSpaceOnUse" color-interpolation-filters="sRGB">
<feFlood flood-opacity="0" result="BackgroundImageFix"/>
<feColorMatrix in="SourceAlpha" type="matrix" values="0 0 0 0 0 0 0 0 0 0 0 0 0 0 0 0 0 0 127 0" result="hardAlpha"/>
<feMorphology radius="2.83824" operator="dilate" in="SourceAlpha" result="effect1_dropShadow_2971_28925"/>
<feOffset dy="-283.824"/>
<feGaussianBlur stdDeviation="141.912"/>
<feComposite in2="hardAlpha" operator="out"/>
<feColorMatrix type="matrix" values="0 0 0 0 0.678431 0 0 0 0 0.345098 0 0 0 0 0.827451 0 0 0 0.2 0"/>
<feBlend mode="normal" in2="BackgroundImageFix" result="effect1_dropShadow_2971_28925"/>
<feBlend mode="normal" in="SourceGraphic" in2="effect1_dropShadow_2971_28925" result="shape"/>
</filter>
<filter id="filter2_d_2971_28925" x="201.913" y="183.686" width="1516.79" height="992.892" filterUnits="userSpaceOnUse" color-interpolation-filters="sRGB">
<feFlood flood-opacity="0" result="BackgroundImageFix"/>
<feColorMatrix in="SourceAlpha" type="matrix" values="0 0 0 0 0 0 0 0 0 0 0 0 0 0 0 0 0 0 127 0" result="hardAlpha"/>
<feMorphology radius="1.41912" operator="dilate" in="SourceAlpha" result="effect1_dropShadow_2971_28925"/>
<feOffset dy="-232.736"/>
<feGaussianBlur stdDeviation="141.912"/>
<feComposite in2="hardAlpha" operator="out"/>
<feColorMatrix type="matrix" values="0 0 0 0 0.988235 0 0 0 0 0.466667 0 0 0 0 0.466667 0 0 0 0.21 0"/>
<feBlend mode="normal" in2="BackgroundImageFix" result="effect1_dropShadow_2971_28925"/>
<feBlend mode="normal" in="SourceGraphic" in2="effect1_dropShadow_2971_28925" result="shape"/>
</filter>
<filter id="filter3_d_2971_28925" x="467.289" y="613.679" width="986.04" height="510.392" filterUnits="userSpaceOnUse" color-interpolation-filters="sRGB">
<feFlood flood-opacity="0" result="BackgroundImageFix"/>
<feColorMatrix in="SourceAlpha" type="matrix" values="0 0 0 0 0 0 0 0 0 0 0 0 0 0 0 0 0 0 127 0" result="hardAlpha"/>
<feMorphology radius="39.7353" operator="erode" in="SourceAlpha" result="effect1_dropShadow_2971_28925"/>
<feOffset dy="-68.1177"/>
<feGaussianBlur stdDeviation="29.8015"/>
<feComposite in2="hardAlpha" operator="out"/>
<feColorMatrix type="matrix" values="0 0 0 0 0 0 0 0 0 0 0 0 0 0 0 0 0 0 0.6 0"/>
<feBlend mode="normal" in2="BackgroundImageFix" result="effect1_dropShadow_2971_28925"/>
<feBlend mode="normal" in="SourceGraphic" in2="effect1_dropShadow_2971_28925" result="shape"/>
</filter>
<linearGradient id="paint0_linear_2971_28925" x1="944.234" y1="687.225" x2="944.234" y2="969.81" gradientUnits="userSpaceOnUse">
<stop offset="0.65" stop-color="#8653FF"/>
<stop offset="1" stop-color="#262336"/>
</linearGradient>
<linearGradient id="paint1_linear_2971_28925" x1="944.234" y1="687.225" x2="944.234" y2="969.81" gradientUnits="userSpaceOnUse">
<stop offset="0.29312" stop-color="#8653FF"/>
<stop offset="1" stop-color="#262336"/>
</linearGradient>
<linearGradient id="paint2_linear_2971_28925" x1="943.546" y1="730.953" x2="943.546" y2="980.718" gradientUnits="userSpaceOnUse">
<stop stop-color="#FF6C72"/>
<stop offset="1" stop-color="#894FFF"/>
</linearGradient>
<linearGradient id="paint3_linear_2971_28925" x1="960.31" y1="672.044" x2="960.31" y2="1011.39" gradientUnits="userSpaceOnUse">
<stop offset="0.65" stop-color="#8653FF"/>
<stop offset="1" stop-color="#262336"/>
</linearGradient>
<radialGradient id="paint4_radial_2971_28925" cx="0" cy="0" r="1" gradientUnits="userSpaceOnUse" gradientTransform="translate(960.306 507.446) rotate(90) scale(969.723 1289.55)">
<stop offset="0.227329" stop-color="#FA6A77"/>
<stop offset="0.385615" stop-color="#9F54E4" stop-opacity="0.21"/>
<stop offset="0.555206" stop-color="#262336" stop-opacity="0"/>
</radialGradient>
</defs>
</svg>
