<svg width="64" height="83" viewBox="0 0 64 83" fill="none" xmlns="http://www.w3.org/2000/svg">
<path d="M46.9559 0.964079C48.9257 1.88332 49.3306 3.04325 48.3348 5.01304C46.1023 9.42319 44.7673 14.0741 44.3514 18.9986C44.3186 19.3707 44.2639 19.7428 44.2091 20.1477C36.1221 20.1477 28.0459 20.1477 19.915 20.1477C19.7181 18.6594 19.5539 17.1491 19.3022 15.6608C18.6675 11.8416 17.3981 8.24136 15.6581 4.78328C14.7717 3.02141 15.2532 1.78487 17.0807 1.00789C17.1026 0.996952 17.1245 0.975012 17.1355 0.953125C17.4528 0.953125 17.7811 0.953125 18.0985 0.953125C20.7139 2.24443 23.3512 3.51366 25.9448 4.85969C26.6014 5.19893 26.9406 5.07856 27.4331 4.59706C28.7134 3.33858 30.0704 2.16783 31.4055 0.953125C31.8323 0.953125 32.2591 0.953125 32.6859 0.953125C33.3206 1.46746 33.9662 1.94887 34.5681 2.49603C35.2357 3.10886 35.9141 3.72169 36.4832 4.42206C37.0522 5.11149 37.5447 5.18816 38.3545 4.76137C40.8715 3.43723 43.4322 2.22255 45.982 0.953125C46.3212 0.964068 46.6386 0.964079 46.9559 0.964079Z" fill="#685AAD"/>
<path d="M32.0452 25.159C36.718 25.159 41.3907 25.1481 46.0635 25.1809C46.4137 25.1809 46.8843 25.3233 47.0922 25.575C50.4518 29.6896 53.8989 33.7385 57.0944 37.9735C61.6577 44.0033 63.6494 50.8869 63.2117 58.4596C62.9381 63.1433 61.5811 67.455 58.8781 71.3289C56.5144 74.7104 53.4393 77.2601 49.7952 79.1204C43.5903 82.283 36.9368 83.2132 30.0644 82.9506C25.523 82.7864 21.1019 82.0095 16.8778 80.2805C9.74274 77.3586 4.56657 72.4887 2.12622 65.0472C0.430005 59.882 0.462831 54.5965 1.67754 49.3219C2.79375 44.5068 4.94958 40.206 8.06842 36.3868C11.0122 32.7974 13.9778 29.2189 16.9544 25.6514C17.1842 25.3778 17.6547 25.1809 18.0159 25.1699C22.6996 25.148 27.3724 25.159 32.0452 25.159ZM34.4636 38.8381C34.4636 38.3566 34.4746 37.8753 34.4636 37.3938C34.4199 35.9711 33.3803 34.9315 32.0342 34.9425C30.721 34.9534 29.7033 35.9821 29.6705 37.3719C29.6486 38.2802 29.6267 39.1884 29.6814 40.0967C29.7142 40.6986 29.4954 40.9613 28.9592 41.2239C26.4313 42.4715 24.9867 44.5177 24.8773 47.352C24.7679 50.2301 26.0373 52.4297 28.5214 53.9289C29.758 54.6731 31.1369 54.7496 32.5157 54.9685C33.7085 55.1545 34.5402 56.2817 34.4527 57.4417C34.3542 58.6564 33.4131 59.5866 32.2093 59.6632C30.9508 59.7289 29.8894 58.8971 29.6924 57.6824C29.6486 57.4198 29.6595 57.1462 29.6048 56.8836C29.3422 55.5923 28.2588 54.7717 27.0003 54.914C25.7309 55.0563 24.8335 56.063 24.8664 57.3762C24.9101 59.7838 25.8513 61.8629 27.9086 63.0448C29.3312 63.8655 29.8456 64.7191 29.7252 66.3059C29.6267 67.6081 30.8195 68.6041 32.1108 68.5931C33.3693 68.5712 34.3761 67.6081 34.4746 66.3278C34.5074 65.8463 34.5293 65.3647 34.4746 64.8832C34.4089 64.2594 34.6497 63.9748 35.2187 63.6903C37.7795 62.4099 39.1911 60.276 39.2349 57.4307C39.2787 54.6402 38.0202 52.4736 35.5799 51.0181C34.3651 50.2959 33.0191 50.1753 31.6731 50.0112C30.5022 49.8579 29.6814 48.8513 29.6705 47.6694C29.6705 46.4875 30.5022 45.5137 31.6622 45.3167C33.1833 45.065 34.2995 46.0606 34.4746 47.8335C34.6168 49.2123 35.6674 50.1206 37.0244 50.0331C38.3047 49.9565 39.3115 48.895 39.2568 47.5708C39.1583 45.0867 38.1734 42.9858 36.0066 41.7601C34.7153 41.0269 34.1025 40.2607 34.4636 38.8381Z" fill="#685AAD"/>
</svg>
