<svg width="23" height="38" viewBox="0 0 23 38" fill="none" xmlns="http://www.w3.org/2000/svg">
<path d="M18.6873 9.50009H22.1397C22.6151 9.50009 23.0028 9.1 23.0028 8.60946V1.48438C23.0028 0.993823 22.615 0.59375 22.1397 0.59375H16.9611C11.727 0.59375 7.46719 4.98952 7.46719 10.3907V14.9151H1.42559C0.950199 14.9151 0.5625 15.3152 0.5625 15.8058V22.8596C0.5625 23.3502 0.950216 23.7502 1.42559 23.7502H6.86692V37.1097C6.86692 37.6003 7.25463 38.0004 7.73 38.0004H14.9363C15.4117 38.0004 15.7994 37.6003 15.7994 37.1097V23.7502H20.3393C20.732 23.7502 21.0776 23.4789 21.1771 23.0823L22.9774 15.9572C23.0465 15.6893 22.9909 15.4058 22.8257 15.1866C22.6622 14.9691 22.411 14.8387 22.1447 14.8387H16.1031V12.1668C16.1031 10.6934 17.2645 9.49486 18.6923 9.49486L18.6873 9.50009ZM15.235 16.6252H21.022L19.6717 21.969H14.9334C14.458 21.969 14.0703 22.3691 14.0703 22.8596V36.2191H8.59011V22.8596C8.59011 22.369 8.2024 21.969 7.72703 21.969H2.2857V16.6964H8.3273C8.80269 16.6964 9.19039 16.2963 9.19039 15.8058V10.3907C9.19039 5.97233 12.6731 2.37502 16.9582 2.37502H21.2736V7.71882H18.6843C16.3058 7.71882 14.3689 9.71754 14.3689 12.172V15.7345C14.3689 16.2251 14.7566 16.6252 15.232 16.6252H15.235Z" fill="#DBD8EF"/>
</svg>
