<svg width="73" height="69" viewBox="0 0 73 69" fill="none" xmlns="http://www.w3.org/2000/svg">
<path d="M4.34116e-05 19.8047C24.3379 19.8047 48.5883 19.8047 72.9261 19.8047C72.9261 20.1877 72.9261 20.5379 72.9261 20.8771C72.9261 34.0528 72.9261 47.2287 72.9261 60.3935C72.9261 64.7489 69.7854 67.9882 65.4081 68.1414C65.1017 68.1523 64.8062 68.1523 64.4998 68.1523C45.3162 68.1523 26.1326 68.0974 6.94902 68.1849C2.04643 68.2068 -0.0108999 64.9349 4.34116e-05 61.2032C0.0109867 50.1615 4.34116e-05 39.1306 4.34116e-05 28.0888C4.34116e-05 25.364 4.34116e-05 22.6281 4.34116e-05 19.8047ZM58.3935 32.8819C58.3935 31.9736 58.4044 31.0762 58.3935 30.168C58.3825 28.8985 57.704 28.1984 56.4455 28.1874C54.6399 28.1765 52.8342 28.1765 51.0286 28.1874C49.8467 28.1984 49.1135 28.8549 49.0917 30.0258C49.0479 31.9081 49.0479 33.7902 49.0917 35.6725C49.1135 36.7558 49.7701 37.4454 50.8316 37.4673C52.7905 37.522 54.7493 37.522 56.6972 37.4673C57.8244 37.4345 58.3606 36.7996 58.3825 35.6615C58.4044 34.7313 58.3935 33.812 58.3935 32.8819ZM35.5548 57.9203C36.5069 57.9203 37.4589 57.9421 38.411 57.9203C39.5381 57.8984 40.1619 57.3512 40.1948 56.224C40.2495 54.298 40.2495 52.361 40.2057 50.424C40.1838 49.3187 39.4944 48.6513 38.3782 48.6294C36.4959 48.5856 34.6137 48.5856 32.7314 48.6294C31.5824 48.6513 30.9258 49.3626 30.9148 50.5007C30.893 52.361 30.893 54.2105 30.9148 56.0709C30.9258 57.1981 31.6261 57.8874 32.7642 57.9203C33.6944 57.9421 34.6246 57.9203 35.5548 57.9203ZM53.7207 57.9312C54.6508 57.9312 55.581 57.9422 56.5112 57.9312C57.7587 57.9093 58.3716 57.3075 58.3825 56.0819C58.4044 54.2215 58.4044 52.372 58.3825 50.5116C58.3716 49.3845 57.704 48.6623 56.555 48.6404C54.6727 48.5966 52.7905 48.5966 50.9082 48.6404C49.803 48.6623 49.1026 49.3406 49.0807 50.435C49.0369 52.3391 49.0369 54.2541 49.0807 56.1583C49.1135 57.2854 49.8467 57.9203 51.0067 57.9312C51.915 57.9422 52.8233 57.9312 53.7207 57.9312ZM35.5767 28.1874C34.6684 28.1874 33.771 28.1765 32.8628 28.1874C31.6262 28.1984 30.9258 28.8659 30.9148 30.0806C30.893 31.9081 30.9039 33.7466 30.9148 35.5741C30.9258 36.6904 31.5386 37.4235 32.6329 37.4564C34.6137 37.5111 36.5944 37.5111 38.5751 37.4454C39.6148 37.4126 40.151 36.8654 40.1838 35.8149C40.2385 33.8341 40.2385 31.8532 40.1838 29.8725C40.151 28.811 39.4178 28.1984 38.3563 28.1765C37.437 28.1765 36.5069 28.1874 35.5767 28.1874ZM12.9678 53.3022C12.9678 54.2105 12.9569 55.1078 12.9678 56.0161C12.9897 57.2199 13.6792 57.9203 14.9048 57.9312C16.6667 57.9422 18.4176 57.9422 20.1795 57.9312C21.4161 57.9203 22.2368 57.1651 22.2696 55.9395C22.3134 54.1119 22.3134 52.2734 22.2587 50.4459C22.2259 49.3406 21.5364 48.6732 20.4312 48.6513C18.5489 48.6075 16.6667 48.6075 14.7844 48.6513C13.6354 48.6732 12.9897 49.3954 12.9678 50.5335C12.9569 51.4418 12.9678 52.372 12.9678 53.3022ZM12.9678 32.8164C12.9678 33.7247 12.9569 34.622 12.9678 35.5303C12.9788 36.7231 13.6026 37.4564 14.7844 37.4892C16.612 37.5439 18.4504 37.533 20.278 37.4892C21.4598 37.4564 22.2259 36.7013 22.2587 35.5413C22.3134 33.6809 22.3025 31.8205 22.2478 29.971C22.2149 28.8658 21.4927 28.2203 20.3874 28.2093C18.527 28.1874 16.6667 28.1874 14.8173 28.2093C13.6901 28.2203 12.9897 28.9206 12.9569 30.0368C12.946 30.956 12.9678 31.8862 12.9678 32.8164Z" fill="#685AAD"/>
<path d="M58.1801 0.109273C58.3333 0.0654995 58.399 0.021908 58.4646 0.021908C61.0801 0.0656811 63.7065 -0.0657453 66.3 0.18595C69.4408 0.492363 72.1547 3.15167 72.6471 6.01881C72.6909 6.29239 72.7128 6.56598 72.7128 6.83956C72.7128 9.53161 72.7128 12.2126 72.7128 14.9594C48.4625 14.9594 24.2668 14.9594 0.0384003 14.9594C0.0384003 11.95 0.0165077 8.9954 0.0493376 6.02976C0.0602809 5.46071 0.224438 4.88067 0.399531 4.3335C1.27499 1.54296 3.38704 0 6.3089 0C8.41001 0 10.5221 0 12.7217 0C12.7217 0.339242 12.7217 0.612611 12.7217 0.87525C12.7217 2.79033 12.7107 4.69472 12.7217 6.60979C12.7326 8.07619 13.6737 9.07203 15.0088 9.07203C16.333 9.07203 17.2631 8.08712 17.2741 6.59884C17.296 4.44301 17.2741 2.27599 17.2741 0.0545027C29.3883 0.0545027 41.4369 0.0545027 53.573 0.0545027C53.5839 0.306198 53.6168 0.580016 53.6168 0.842655C53.6168 2.8015 53.6058 4.76023 53.6277 6.73002C53.6386 7.86812 54.2952 8.71083 55.2801 8.99535C56.1775 9.25799 57.2499 8.92963 57.7314 8.10888C58.005 7.63832 58.1473 7.02551 58.1582 6.47834C58.2129 4.61798 58.1801 2.75752 58.1801 0.897158C58.1801 0.634519 58.1801 0.360968 58.1801 0.109273Z" fill="#685AAD"/>
</svg>
