<svg width="38" height="38" viewBox="0 0 38 38" fill="none" xmlns="http://www.w3.org/2000/svg">
<path d="M8.74013 38.0004H28.8071C33.5907 38.0004 37.4769 34.1234 37.4769 29.365L37.4749 9.2291C37.4749 4.46448 33.5824 0.59375 28.805 0.59375H8.74018C3.95652 0.59375 0.0703125 4.47075 0.0703125 9.2291V29.3671C0.0703125 34.1256 3.96276 38.0004 8.74013 38.0004ZM3.21703 9.2291C3.21703 6.19485 5.69186 3.72799 8.74013 3.72799H28.8071C31.8535 3.72799 34.3302 6.19297 34.3302 9.2291V29.3671C34.3302 32.4014 31.8553 34.8682 28.8071 34.8682L8.74013 34.8662C5.69375 34.8662 3.21703 32.4012 3.21703 29.3651V9.2291Z" fill="#DBD8EF"/>
<path d="M18.7767 28.4566C23.8492 28.4566 27.9752 24.345 27.9752 19.2947C27.9752 14.2424 23.8491 10.1328 18.7767 10.1328C13.7042 10.1328 9.57812 14.2424 9.57812 19.2947C9.57812 24.347 13.7042 28.4566 18.7767 28.4566ZM18.7767 13.2671C22.1119 13.2671 24.8284 15.9728 24.8284 19.2947C24.8284 22.6166 22.1119 25.3224 18.7767 25.3224C15.4414 25.3224 12.7249 22.6166 12.7249 19.2947C12.7249 15.9728 15.4414 13.2671 18.7767 13.2671Z" fill="#DBD8EF"/>
<path d="M29.6113 6.88498C32.7068 8.16234 30.7831 12.7841 27.6876 11.5088C24.5941 10.2315 26.5157 5.60757 29.6113 6.88498Z" fill="#DBD8EF"/>
</svg>
