<svg width="81" height="75" viewBox="0 0 81 75" fill="none" xmlns="http://www.w3.org/2000/svg">
<path d="M80.2444 45.1835C79.7082 46.3216 78.8327 46.7156 77.6727 46.639C76.7426 46.5733 75.8014 46.6281 74.7509 46.6281C74.7509 47.0111 74.7509 47.3284 74.7509 47.6567C74.7509 55.6015 74.7509 63.5464 74.7509 71.4912C74.7509 73.4938 74.1271 74.1613 72.2558 74.1613C68.94 74.1613 65.6242 74.1613 62.3084 74.1613C60.6559 74.1613 59.9993 73.4499 59.9993 71.6552C59.9993 63.6776 59.9993 55.711 59.9993 47.7333C59.9993 47.405 59.9993 47.0767 59.9993 46.6171C58.7737 46.6171 57.6356 46.639 56.4975 46.6061C55.2171 46.5733 54.3964 45.6212 54.5496 44.3299C54.5934 43.9359 54.7794 43.52 55.0092 43.2027C58.5877 38.0593 62.177 32.9159 65.7883 27.7944C66.6638 26.5469 68.0427 26.4924 68.9072 27.718C72.5951 32.9599 76.2392 38.2235 79.9052 43.4762C80.0256 43.6513 80.135 43.8264 80.2554 44.0015C80.2444 44.3955 80.2444 44.7895 80.2444 45.1835Z" fill="#685AAD"/>
<path d="M47.4785 52.5486C47.4785 52.9863 47.4785 53.2927 47.4785 53.5991C47.4785 59.6069 47.4785 65.6148 47.4785 71.6226C47.4785 73.4611 46.8109 74.1835 45.1147 74.1835C41.7442 74.1835 38.3736 74.1835 35.0141 74.1835C33.4492 74.1835 32.7597 73.4503 32.7597 71.776C32.7597 65.7353 32.7597 59.7055 32.7597 53.6648C32.7597 53.3365 32.7597 52.9972 32.7597 52.5486C31.6873 52.5486 30.6805 52.5267 29.6737 52.5595C28.7217 52.5814 27.89 52.3734 27.4413 51.3776C27.0145 50.4364 27.3975 49.6594 27.9228 48.9044C31.4028 43.9252 34.8718 38.9351 38.3518 33.9559C39.4461 32.391 40.7483 32.402 41.8536 33.9778C45.3992 39.0446 48.9339 44.1221 52.4796 49.1889C52.9611 49.8783 53.1252 50.5896 52.775 51.3885C52.4248 52.1764 51.8011 52.5486 51.0132 52.5595C49.8641 52.5595 48.726 52.5486 47.4785 52.5486Z" fill="#685AAD"/>
<path d="M5.49956 58.4683C4.32862 58.4683 3.25618 58.4574 2.18374 58.4683C1.34111 58.4792 0.618846 58.2166 0.213944 57.363C-0.201901 56.4875 0.0279164 55.6997 0.564138 54.9336C4.13165 49.845 7.69916 44.7564 11.2667 39.6678C12.1859 38.3546 13.5648 38.3327 14.484 39.6459C18.1062 44.833 21.7066 50.0311 25.3179 55.2291C25.7665 55.8748 25.8431 56.5643 25.5258 57.2866C25.1756 58.0745 24.5518 58.4355 23.753 58.4573C22.6039 58.4792 21.4658 58.4683 20.2183 58.4683C20.2183 58.8294 20.2183 59.136 20.2183 59.4314C20.2183 63.4805 20.2183 67.5186 20.2183 71.5676C20.2183 73.4718 19.5726 74.183 17.8327 74.183C14.4949 74.183 11.1463 74.183 7.80859 74.183C6.21087 74.183 5.51051 73.4279 5.51051 71.7317C5.51051 67.6608 5.51051 63.59 5.51051 59.5191C5.49957 59.2017 5.49956 58.8951 5.49956 58.4683Z" fill="#685AAD"/>
<path d="M24.1734 23.5333C23.8561 24.0804 23.6044 24.7042 23.1886 25.1528C22.1052 26.3347 20.9452 27.4182 19.8508 28.5782C19.6429 28.7971 19.5007 29.2566 19.5444 29.574C19.7961 31.2921 20.1135 32.9882 20.4199 34.6954C20.5731 35.5489 20.3433 36.2604 19.7086 36.7857C19.041 37.3329 18.2969 37.3437 17.5746 36.9059C16.1848 36.0852 14.795 35.2535 13.4162 34.3999C13.0332 34.1591 12.7377 34.1591 12.3547 34.3999C10.9977 35.2425 9.61888 36.0304 8.25097 36.8512C7.50682 37.2998 6.76267 37.3986 6.05135 36.8295C5.35098 36.2714 5.14307 35.5163 5.30722 34.597C5.60269 32.9774 5.84344 31.3357 6.18269 29.7271C6.30306 29.1361 6.14985 28.797 5.76683 28.4249C4.68345 27.3743 3.64383 26.2691 2.56044 25.2076C1.8929 24.551 1.48801 23.7851 1.80537 22.8221C2.11178 21.87 2.83403 21.5088 3.74232 21.3994C5.27438 21.2352 6.79551 21.0053 8.31662 20.7427C8.59021 20.6989 8.91849 20.4253 9.03887 20.1626C9.71735 18.6853 10.3521 17.1753 10.9868 15.6651C11.3589 14.7787 11.9279 14.1767 12.8909 14.1876C13.8101 14.1986 14.3464 14.8115 14.7184 15.6541C15.3641 17.1534 15.9988 18.6636 16.6992 20.13C16.8305 20.4036 17.1916 20.677 17.4871 20.7317C19.0848 21.0053 20.6935 21.1915 22.2912 21.4322C23.3089 21.6073 23.9984 22.428 24.1734 23.5333Z" fill="#685AAD"/>
<path d="M67.5692 0C68.2039 0 68.7729 0.503359 69.1341 1.33505C69.8016 2.85617 70.491 4.36652 71.1257 5.89858C71.3227 6.38009 71.5963 6.55508 72.0669 6.60979C73.6208 6.79583 75.1747 7.04761 76.7287 7.24459C77.5604 7.35402 78.1294 7.80247 78.403 8.65605C78.6766 9.53151 78.403 10.2538 77.8121 10.8557C76.674 12.0047 75.5359 13.1648 74.365 14.292C74.0038 14.6312 73.9053 14.9706 74.0038 15.463C74.3102 17.0279 74.5729 18.6035 74.8683 20.1684C75.0434 21.1095 74.9778 21.9743 74.1899 22.5871C73.4019 23.1999 72.6359 23.0357 71.848 22.5433C70.5786 21.7554 69.2763 21.0439 68.0288 20.2341C67.5254 19.9168 67.1643 19.9496 66.6828 20.256C65.4243 21.0549 64.133 21.7882 62.8635 22.5542C62.0756 23.0358 61.2768 23.1671 60.5107 22.5652C59.7666 21.9743 59.679 21.1534 59.8541 20.2232C60.1715 18.6036 60.456 16.9731 60.6968 15.3425C60.7405 15.0252 60.6092 14.5656 60.4013 14.3468C59.2851 13.1649 58.1251 12.0376 56.9651 10.8995C56.3195 10.2757 56.0678 9.50986 56.3085 8.62345C56.5602 7.71516 57.1949 7.31021 58.0594 7.20077C59.5587 7.01474 61.0579 6.75203 62.5571 6.58788C63.1371 6.52222 63.4217 6.27049 63.6515 5.72332C64.2862 4.19126 64.9647 2.67023 65.6541 1.16005C66.0262 0.383079 66.5624 0.0218866 67.5692 0Z" fill="#685AAD"/>
<path d="M51.4119 16.9096C51.0946 17.4568 50.8429 18.0915 50.438 18.5402C49.3546 19.7221 48.1837 20.7946 47.0893 21.9656C46.8595 22.2063 46.7173 22.6988 46.761 23.038C46.9909 24.6138 47.3082 26.1788 47.5927 27.7437C47.7678 28.6738 47.7459 29.5712 46.958 30.184C46.1592 30.8078 45.3603 30.6436 44.5396 30.1292C43.303 29.3523 42.0226 28.6518 40.786 27.8639C40.3045 27.5575 39.9324 27.5246 39.44 27.8529C38.1924 28.6627 36.9011 29.3961 35.6208 30.173C34.8328 30.6545 34.0559 30.8078 33.2789 30.195C32.5348 29.604 32.3925 28.816 32.5785 27.8748C32.8849 26.2771 33.1148 24.6686 33.4431 23.0818C33.5634 22.5237 33.4212 22.2062 33.06 21.8451C31.9657 20.7617 30.9042 19.6455 29.7989 18.5621C29.1423 17.9274 28.7703 17.1834 29.0438 16.2532C29.3174 15.334 29.985 14.9071 30.8823 14.8086C32.4144 14.6335 33.9355 14.3818 35.4676 14.2176C35.9381 14.1739 36.146 13.9551 36.3211 13.5283C36.9558 12.0182 37.6124 10.5298 38.2581 9.03053C38.6192 8.17695 39.1555 7.58594 40.0966 7.58594C41.0377 7.58594 41.563 8.16601 41.9241 9.03053C42.5479 10.5079 43.2154 11.9743 43.8282 13.4517C44.0252 13.9441 44.266 14.1739 44.7912 14.2286C46.378 14.3927 47.9539 14.6226 49.5297 14.8524C50.5912 15.0056 51.2478 15.7825 51.4119 16.9096Z" fill="#685AAD"/>
</svg>
