<svg width="34" height="38" viewBox="0 0 34 38" fill="none" xmlns="http://www.w3.org/2000/svg">
<path d="M31.335 9.35698C29.4777 8.95748 27.7958 7.9719 26.5346 6.54391C25.2734 5.11591 24.4987 3.32017 24.3236 1.41846V0.59375H17.9167V26.1616C17.9127 27.2935 17.5561 28.3957 16.8971 29.3133C16.238 30.231 15.3095 30.9179 14.2422 31.2776C13.1749 31.6373 12.0223 31.6516 10.9464 31.3186C9.87051 30.9857 8.92543 30.3221 8.24395 29.4211C7.5519 28.5051 7.16799 27.3913 7.14792 26.2411C7.12784 25.0909 7.47264 23.9642 8.1323 23.0243C8.79197 22.0845 9.73221 21.3803 10.8167 21.014C11.9011 20.6477 13.0735 20.6382 14.1636 20.987V14.4417C11.7326 14.1038 9.25737 14.5384 7.0841 15.6847C4.91083 16.831 3.14823 18.6318 2.04285 20.835C0.937471 23.0382 0.544597 25.5338 0.919181 27.9726C1.29377 30.4114 2.41707 32.6715 4.13198 34.4367C5.76739 36.1193 7.86434 37.2737 10.1552 37.7526C12.446 38.2315 14.8267 38.013 16.9936 37.1252C19.1604 36.2374 21.0149 34.7204 22.3205 32.768C23.6261 30.8156 24.3235 28.5162 24.3236 26.1634V13.099C26.9129 14.9604 30.0174 15.9585 33.2003 15.9528V9.55146C32.5735 9.55224 31.9483 9.48706 31.335 9.35698Z" fill="#DBD8EF"/>
</svg>
