<svg width="38" height="38" viewBox="0 0 38 38" fill="none" xmlns="http://www.w3.org/2000/svg">
<path d="M19.7701 14.1556L31.0768 0.965585C31.2388 0.742484 31.5065 0.59375 31.813 0.59375H36.8499C37.0507 0.59713 37.2514 0.661356 37.417 0.793189C37.7974 1.09404 37.8538 1.63489 37.5368 1.99658L23.1621 18.7697L36.3145 36.6516C36.5998 37.037 36.5012 37.5711 36.0996 37.8449C35.9447 37.9497 35.765 38.0004 35.5889 38.0004H28.745C28.4245 38.0004 28.1427 37.8381 27.9842 37.5947L18.3084 24.4385L7.00522 37.6285C6.84319 37.8516 6.5755 38.0004 6.26905 38.0004H1.2286C1.02783 37.997 0.827056 37.9328 0.661507 37.8009C0.281096 37.5001 0.224738 36.9592 0.541748 36.5975L14.9164 19.8278L1.76047 1.94588C1.47516 1.56052 1.57379 1.02643 1.97534 0.752625C2.13384 0.647835 2.31348 0.59375 2.4896 0.59375H9.33348C9.65401 0.59375 9.9358 0.756005 10.0943 0.999388L19.7701 14.1556Z" fill="#DBD8EF"/>
</svg>
