<svg width="49" height="38" viewBox="0 0 49 38" fill="none" xmlns="http://www.w3.org/2000/svg">
<path d="M39.4547 0.59375H9.85827C4.75288 0.59375 0.609375 4.78329 0.609375 9.94541V28.6487C0.609375 33.8108 4.75288 38.0004 9.85827 38.0004H39.4547C44.5601 38.0004 48.7036 33.8108 48.7036 28.6487V9.94541C48.7036 4.78329 44.5601 0.59375 39.4547 0.59375ZM45.0041 28.6487C45.0041 31.7348 42.5069 34.2597 39.4547 34.2597H9.85827C6.80613 34.2597 4.30893 31.7348 4.30893 28.6487V9.94541C4.30893 6.85936 6.80613 4.33441 9.85827 4.33441H39.4547C42.5069 4.33441 45.0041 6.85936 45.0041 9.94541V28.6487Z" fill="#DBD8EF"/>
<path d="M29.8461 15.9799L22.2947 11.77C21.0994 11.1122 19.6953 11.1122 18.519 11.8076C17.3426 12.4842 16.6406 13.7058 16.6406 15.0589V23.5539C16.6406 24.907 17.3426 26.1286 18.538 26.8052C19.1261 27.1435 19.7902 27.3127 20.4353 27.3127C21.0804 27.3127 21.7255 27.1435 22.3137 26.8052L29.8651 22.539C31.0604 21.8624 31.7814 20.6408 31.7814 19.2688C31.7814 17.8968 31.0604 16.6752 29.8461 15.9987V15.9799ZM20.4353 23.5351V15.0402L27.9867 19.25L20.4353 23.5351Z" fill="#DBD8EF"/>
</svg>
