<svg width="128" height="24" viewBox="0 0 128 24" fill="none" xmlns="http://www.w3.org/2000/svg">
<path d="M13.0359 17.4672C12.1359 18.2672 10.9359 18.9672 9.23594 18.9672C6.83594 18.9672 5.33594 17.4672 5.23594 14.7672H17.9359V10.4672C17.9359 7.06719 17.2359 4.76718 15.8359 3.16718C14.2359 1.36718 11.9359 0.367188 9.13594 0.367188C6.53594 0.367188 4.33594 1.26719 2.73594 2.86719C1.03594 4.56719 0.335938 6.76718 0.335938 10.0672V13.5672C0.335938 17.1672 1.13594 19.4672 2.93594 21.1672C4.53594 22.6672 6.73594 23.4672 9.13594 23.4672C11.7359 23.4672 13.8359 22.6672 15.7359 20.7672L13.0359 17.4672ZM5.33594 10.3672C5.33594 7.96719 5.83594 4.86719 9.23594 4.86719C12.6359 4.86719 13.1359 7.96719 13.1359 10.3672H5.33594Z" fill="url(#paint0_linear_1732_95051)"/>
<path d="M29.9309 3.46563V0.265625H19.6309V3.46563H23.1309V23.4656H26.5309V3.46563H29.9309Z" fill="#251F3A"/>
<path d="M42.9773 23.5656V0.265625H39.5773V20.2656H35.6773V0.265625H32.2773V23.5656H42.9773Z" fill="#251F3A"/>
<path d="M55.5324 3.46563V0.265625H45.2324V3.46563H48.7324V23.4656H52.1324V3.46563H55.5324Z" fill="#251F3A"/>
<path d="M68.5789 23.5656V0.265625H57.8789V23.5656H68.5789ZM65.1789 20.2656H61.2789V3.46563H65.1789V20.2656Z" fill="#251F3A"/>
<path d="M83.4328 23.5656L81.1328 17.5656H82.8328V0.265625H72.1328V23.5656H75.5328V17.5656H77.5328L79.7328 23.5656H83.4328ZM79.4328 14.2656H75.5328V3.46563H79.4328V14.2656Z" fill="#251F3A"/>
<path d="M93.3887 19.5656V23.5656H97.0887V19.5656H99.5887V16.1656H97.0887V9.96563H93.3887V16.1656H89.1887L96.9887 0.265625H92.8887L87.4887 10.9656C85.0887 15.6656 84.8887 16.2656 84.8887 17.2656C84.8887 19.5656 87.0887 19.5656 88.9887 19.5656H93.3887Z" fill="#251F3A"/>
<path d="M115.811 23.5656V0.265625H112.411L109.011 8.76562L105.511 0.265625H102.111V23.5656H105.511V9.16563L109.011 17.4656L112.411 9.16563V23.5656H115.811Z" fill="#251F3A"/>
<path d="M127.799 23.5672V20.3672H122.799V12.7672H127.799V9.56718H122.799V3.56718H127.799V0.367188H119.299V23.5672H127.799Z" fill="#251F3A"/>
<defs>
<linearGradient id="paint0_linear_1732_95051" x1="9.13594" y1="0.367987" x2="9.13594" y2="23.5282" gradientUnits="userSpaceOnUse">
<stop offset="0.00283151" stop-color="#55CEDD"/>
<stop offset="1" stop-color="#8458F8"/>
</linearGradient>
</defs>
</svg>
